<svg xmlns="http://www.w3.org/2000/svg" width="20" height="20"><path d="M16.912 16.064l-1.02-11.526a.493.493 0 00-.49-.45h-2.105a3.532 3.532 0 00-7.062 0H4.129a.49.49 0 00-.49.45L2.612 16.064v.044a2.547 2.547 0 002.683 2.38h8.941a2.547 2.547 0 002.683-2.38.178.178 0 00-.007-.044zM9.766 1.599a2.547 2.547 0 012.546 2.489h-5.09a2.547 2.547 0 012.544-2.489zm4.471 15.9H5.295a1.575 1.575 0 01-1.7-1.371l.98-11.05h1.652v1.5a.493.493 0 00.987 0v-1.5h5.098v1.5a.493.493 0 00.987 0v-1.5h1.652l.983 11.05a1.577 1.577 0 01-1.698 1.372z"/></svg>