<svg xmlns="http://www.w3.org/2000/svg" width="26" height="26"><path d="M23.993 6.878a.091.091 0 00-.026-.052.569.569 0 00-.078-.13l-.026-.026L16.959.156a.545.545 0 00-.156-.1c-.026 0-.026 0-.052-.026a.33.33 0 00-.157-.03H5.027a3 3 0 00-3 3v20a3 3 0 003 3h15.97a3 3 0 003-3V7.034c.023-.052-.004-.104-.004-.156zm-6.852-4.95l4.846 4.559h-4.846zm5.705 21.1a1.818 1.818 0 01-1.826 1.852h-16a1.857 1.857 0 01-1.85-1.85V3.022a1.857 1.857 0 011.85-1.85h10.949V7.06a.578.578 0 00.573.573h6.3z"/><path d="M11.306 5.784H6.043a.573.573 0 100 1.146h5.263a.573.573 0 000-1.146zm7.789 4.534H6.043a.573.573 0 100 1.146h13.052a.573.573 0 000-1.146zm0 3.802H6.043a.573.573 0 000 1.146h13.052a.573.573 0 000-1.146zm0 3.779H6.043a.573.573 0 100 1.146h13.052a.573.573 0 100-1.146z"/></svg>