<svg width="35" height="22" xmlns="http://www.w3.org/2000/svg"><path d="M33.5 7.6h-.4c-1.6 0-3.2 0-4.8-.2 3.9-.6 5.5-1.9 5.9-2.4.4-.4.7-.9.7-1.4 0-1-.8-1.7-1.7-1.7h-.4c-2.2.4-4.4.6-6.6.6h-.5c-.9.1-3.9.4-6 .6.2 0 .3-.1.5-.2h.1v-.1c.2-.6.2-1.2-.1-1.8l.3-.6c.1-.1 0-.3-.1-.3s-.3 0-.3.1l-.4.8.1.1c.2.4.2.9.1 1.3-.2.1-.4.1-.7.1.1-.2.2-.4.2-.6 0-.4-.3-.8-.7-1.1 0-.5-.4-.9-.9-.9h-.6c-.5.1-.9.4-.9.9-.4.2-.6.6-.7 1.1 0 .2.1.4.2.6-.2 0-.5-.1-.7-.1-.1-.4-.1-.9.1-1.3l.1-.1-.4-.9c-.1-.1-.3-.1-.4 0s-.2.2-.1.3l.3.6c-.2.6-.3 1.2-.1 1.8v.1h.1c.2.1.3.1.5.2-2.1-.2-4.9-.5-5.8-.6h-.5c-2.2 0-4.4-.2-6.6-.6h-.1c-.9-.2-1.8.4-2 1.3v.4c0 .5.3 1 .7 1.4.5.5 2.1 1.8 5.9 2.4-1.7.1-3.3.2-4.9.2h-.1C.9 7.5.1 8.3 0 9.2v.3c.1.6.5 1.1 1 1.4.7.5 2.6 1.5 6.6 1.5h1.9c4.9-.8 6.7-4 6.7-4.1v-.1c0-.5 0-.9.1-1.3l.3.6v12.7c0 .6.1 1.2.3 1.8 0 .1.1.1.2.1s.1-.1.1-.2-.1-.2-.1-.3c.1.1.2.1.2.1l.1-.1c0 .1-.1.2-.1.3-.1.1 0 .2.1.2.1.1.2 0 .2-.1.2-.6.3-1.1.3-1.7v-13c.2-.3.3-.6.4-.9.1.6.2 1.1.2 1.7v.1c.1.1 1.9 3.3 6.7 4.1h1.9c3.9 0 5.9-1 6.6-1.5.5-.3.9-.8 1-1.4.4-.8-.3-1.7-1.2-1.8zM8.8 3h.5c.9.1 4.6.5 6.7.7V4c-.8-.1-6.2-.5-7.2-.7V3zM1.2 4.6c-.1-.1-.1-.1 0 0L1 4.4c-.2-.2-.4-.5-.4-.9 0-.7.5-1.2 1.2-1.2H2c2.1.4 4.3.6 6.4.7v.3H7.3c-.3 0-.7 0-1.1.1l-2.5-.3c-.3 0-.5-.1-.7-.2-.1 0-.2 0-.2.1s0 .2.1.2c1.5.5 3 .6 4.6.4h.7c-.4.3-.6.6-.8.9 0 .1 0 .2.1.2s.2 0 .2-.1c.2-.4.5-.8.8-1 .8.1 6.7.6 7.4.7v.3c-1-.1-5.4-.4-5.6-.4-.1 0-.2.1-.2.2s.1.2.2.2c.3 0 4.1.3 5.4.4-2.1 1.4-4.5 2.1-7 2.1-.1 0-.3 0-.4-.1-4.7-.4-6.7-2-7.1-2.4zM5 9h.5c2.2 0 4.5-.3 6.6-1 .2.1.7.4.6.8s-.5.7-1.4 1.1c-.8.3-1.6.7-2.2 1.4-.1.1-.1.2 0 .3.1.1.2.1.3 0 .6-.6 1.3-1 2.1-1.3 1.1-.4 1.6-.9 1.7-1.4 0-.4-.2-.7-.6-.9 1.2-.4 2.4-1 3.4-1.7-.1.6-.2 1.2-.2 1.8-1.5 2.1-3.8 3.5-6.3 3.8h-.4c-5.7.3-7.8-1.5-7.8-1.5-.3-.2-.5-.5-.5-.8-.3-.8.2-1.4.8-1.5h1.2c1.9 0 3.8-.2 5.7-.4h.7c2.5 0 4.9-.8 6.9-2.2v.1c-.9.6-4.7 3.1-11.1 3-.1 0-.2.1-.2.2s.1.1.2.2zm11.3-6.8c0-.1-.1-.1-.1-.2s.1-.2.1-.3v.5zm.2.9c.1 0 .1 0 0 0h.3c0 .4-.1.7-.3 1.1V3.1zm.8 18.1c0-.2-.1-.4-.1-.6h.1v.6zm.1-12.7l.2.1v.1h-.4v-.1l.2-.1zm-.2-.3v-.7l.2-.1.2.1v.7l-.2-.1h-.1l-.1.1zm.5.9v.7h-.4v-.7h.4zm0 1.1v.2l-.2-.1h-.1l-.1.1v-.2h.4zm-.3.5l.2.1v.7l-.2-.1h-.1l-.1.1v-.7l.2-.1zm0 1.1l.2.1v.1h-.4v-.1l.2-.1zm.3.6v.2l-.2-.1h-.1l-.1.1v-.2h.4zm-.3.5l.2.1v.7l-.2-.1h-.1l-.1.1V13l.2-.1zm0 1.1l.2.1v.1h-.4V14h.2zm.3.6v.2l-.2-.1h-.1l-.1.1v-.2h.4zm-.3.4l.2.1v.1h-.4v-.1l.2-.1zm.3.6v.7h-.4v-.7h.4zm0 1.1v.2l-.2-.1h-.1l-.1.1v-.2h.4zm-.3.5l.2.1v.1h-.4v-.1l.2-.1zm.3.6v.2l-.2-.1h-.1l-.1.1v-.2h.4zm-.3.5l.2.1v.6h-.4v-.7h.2zm0 1l.2.1v.1h-.4v-.1l.2-.1zm.1.8c-.1 0-.2-.1-.2-.2h.4c0 .1-.1.2-.2.2zm.1 1.1v-.6h.1c0 .2 0 .4-.1.6zm.1-14.1h-.3l-.2.1v-.1c-.1-.2-.3-.4-.3-.6H18l-.3.6zm.4-1.1h-1.4v-.2c0-.1.1-.1.1-.2l.7-.4.8.4c-.1.1-.1.2-.2.4zm.2-.9l-.8-.4h-.2l-.8.4h.1v-.2c.4-.5.6-1.1.6-1.8h.6c0 .7.2 1.3.5 2zm.1-.8c-.2-.4-.2-.8-.3-1.2h.2c.1.4.1.8.1 1.2zm-.1-1.9h-1.6v-.1c0-.3.1-.6.3-.8h1c.3.1.5.3.6.6 0 .1-.1.3-.3.3zm.6 1.3c2.1-.2 5.9-.6 6.8-.7h.5v.3h-.1c-.7.1-5.9.6-7.2.7v-.3zm0 .6c1.2-.1 6.6-.6 7.3-.7h.2c.4.3.7.6.9 1.1 0 .1.1.1.2.1s.1-.1.1-.2c-.1-.3-.4-.6-.6-.9h.4c1.5.2 3.1.1 4.6-.4 0-.1.1-.2 0-.3 0-.1-.1-.1-.2-.1-.2.1-.5.2-.7.2l-2.6.2c-.4 0-.8 0-1.1-.1h-.8V3c2.1 0 4.3-.2 6.3-.6.6-.1 1.3.3 1.4.9v.3c0 .3-.2.7-.4.9v.1s0 .1-.1.1c-.5.5-2.4 2-7.2 2.5-.1 0-.3.1-.4.1-2.5 0-4.9-.7-7-2.1 1.4-.1 5-.4 5.3-.4.1 0 .2-.1.2-.2s-.1-.2-.2-.2c-.3 0-4.6.4-5.6.4v-.5zm15.5 5.2c-.1.3-.3.6-.5.8 0 0-2.1 1.8-7.8 1.5h-.4c-2.6-.3-4.9-1.7-6.3-3.8 0-.6-.1-1.2-.2-1.8 1.1.7 2.2 1.2 3.4 1.7-.3.2-.5.5-.6.9 0 .5.6 1 1.7 1.4.8.3 1.5.7 2.1 1.3.1.1.2.1.3 0 .1-.1.1-.2 0-.2-.6-.6-1.4-1.1-2.2-1.4-.9-.3-1.4-.7-1.4-1.1s.4-.7.6-.8c2.1.7 4.4 1 6.6 1h.3c.1 0 .2-.1.2-.2s-.1-.2-.2-.2c-6.5.1-10.3-2.4-11.1-3 0-.1-.1-.1-.1-.2v-.1c2 1.5 4.5 2.4 7 2.3h.7c1.9.2 3.8.4 5.7.4h1.3c.6.2 1 .8.9 1.5zM33 2.8c0-.1.1-.1.2-.1 0 0 .7.3.8.8.1.4-.2.8-.7 1.2-.1.1-.2 0-.3 0-.1-.1 0-.2 0-.3.4-.3.6-.6.6-.9 0-.3-.5-.5-.5-.5s-.1-.1-.1-.2zm-.5 2.1c0-.1.1-.2.2-.2s.2.1.2.2-.1.2-.2.2c-.1.1-.2 0-.2-.2zM34.1 9c.1.3 0 .7-.5 1.2l-.1.1s-.1 0-.1-.1c-.1-.1-.1-.2 0-.3.2-.2.5-.6.4-.8-.1-.3-.6-.5-.8-.5-.1 0-.2-.1-.2-.2s.1-.2.2-.2c.1.1.9.3 1.1.8zm-.8 1.4c0 .1-.1.2-.2.2s-.2-.1-.2-.2.1-.2.2-.2.2.1.2.2z"/></svg>