<svg version="1.1" id="Слой_1" xmlns="http://www.w3.org/2000/svg" x="0" y="0" viewBox="0 0 70 44" xml:space="preserve"><style>.st0{fill:#403732}.st1{fill:#7b6fa0}.st2{fill:#b5aa67}.st3{fill:#e7da9f}.st4{fill:#cecbe6}.st5{fill:#5f5444}.st6{fill:#ebe3a4}.st7{fill:#cecbe0}.st8{fill:#4e4142}.st9{fill:#a2b856}.st10{fill:#67a8aa}.st11{fill:#4d6ea2}.st12{fill:#ddb6a6}.st13{fill:#7e9054}.st14{fill:#ede4c0}.st15{fill:#b78774}.st16{fill:#693d39}.st17{fill:#445276}.st18{fill:#9b625c}.st19{fill:#4a7b7d}.st20{fill:#8faccc}</style><path class="st0" d="M10.7 30.4c.4 1.1.8 2.1 1.2 3.2 0 .1.1.2.1.4.2.6.1.8-.4 1.2-.3.2-.7.5-1 .7-1.1.7-2.2 1.4-3.4 2.1-.2.1-.5.3-.7.4-.3.1-.6.1-.9-.1v-.1h.3c.4 0 .7-.1 1-.3.4-.3.9-.5 1.3-.8.9-.6 1.8-1.3 2.7-1.9.2-.1.3-.3.5-.4-.2-1.4-.8-2.6-1.2-3.9-.2-.6-.4-1.3-.2-1.9-.1 0-.1-.1-.2-.1h-.1c-.1.1-.1.3-.2.3-.2.2-.3.5-.2.8v1.4c0 .4-.1.9-.4 1.2-.3.3-.5.7-.8 1l-.6.6c-1 .9-2.1 1.8-3.1 2.6-.3.2-.6.3-1 .3-.3 0-.4-.1-.5-.1v-.1h.3c.4 0 .7-.1 1-.4 1-.9 2-1.8 2.9-2.8.3-.3.5-.5.7-.8h-.1v-.7c.2-.9.4-1.7.6-2.6v-.3c0-.2 0-.4-.1-.7-.3.1-.6.2-.8.4-.4.2-.9.3-1.3.4-.1 0-.3-.1-.4-.2-.1 0-.1-.2-.1-.3 0-.1.1-.2.1-.3 0-.4-.1-.8-.1-1.1 0-.4.1-.7.4-1-.3-.5-.7-1-1-1.4V25c.5.4.8.9 1.1 1.4.1-.1.3-.1.4-.2l-.6-1.5H6c.3.4.5 1 .8 1.5H7c.2-.4.5-.7 1-.6.5.1.9.4 1.1 1.1h.6c.2 0 .4-.1.6-.3.5-.4.9-.9 1.3-1.3.3-.3.6-.6.9-.8.4-.3.8-.4 1.2-.5.4 0 .7-.1 1-.6 1.1-2.1 2.2-4.1 3.1-6.2.9-2 1.5-4.1 2.2-6.2.4-1.2.7-2.4 1.2-3.6.5-1.4 1.3-2.7 2.2-3.9.9-1.1 2.1-1.9 3.6-2.2.2 0 .4-.1.6 0 .8 0 1.1.4 1.1 1.2h.3c.5-.1 1-.1 1.6.1 1 .3 1.4 1.1 1 2-.2.7-.5 1.3-.8 1.9-1.3 2.6-2.7 5.1-4.6 7.4-1.1 1.4-2.4 2.6-3.8 3.7-1.9 1.5-3.6 3.2-5 5.1-.5.6-1 1.3-1.5 1.9.1 0 .1.1.2.1.2 0 .4.1.6.1.1 0 .2 0 .3-.1 1.7-1.3 3.5-2.6 5.1-4 1.3-1.1 2.4-2.4 3.6-3.6.9-.9 1.9-1.8 2.8-2.7 1-1 2.2-1.8 3.4-2.4.9-.5 1.8-.8 2.7-.9.4 0 .8 0 1.1.2.5.2.7.5.6 1.1v.2c.3.1.5.2.8.3.9.4 1.2 1.3.6 2.2-.2.2-.3.4-.5.6.3.2.5.3.8.5.1.1.3.2.4.3.6.3.6.8.5 1.4-.1.7-.3 1.4-.5 2.2-.1.4-.1.9-.1 1.4 0 .4-.2.8-.5 1.1l-.1.1c-.3.6-.8 1-1.3 1.5-.2.2-.4.4-.5.6-.1.2-.3.4-.4.7 0 .1.1.2.2.4.8-.4 1.8-.4 2.7-.5.3 0 .6-.1.9-.1h.8c.2 0 .4.1.6.1.2 0 .3.1.6.1 2-1.1 4.2-1.9 6.3-2.9 1-.5 1.9-1 2.8-1.6 2.5-1.5 4.9-3 7.6-4.1 1.3-.5 2.6-1 4.1-1.1 1.5-.2 2.9.1 4.2 1l.6.6c.5.6.5 1.2 0 1.8-.2.3-.5.5-.8.8.1.1.2.1.2.2.4.3.7.7.8 1.2.1.4.1.8-.2 1.1-.2.2-.5.5-.8.6l-2.1.9c-2.6.9-5.4 1.5-8.1 1.9-1.3.2-2.6.2-3.8.3-1.1 0-2.1-.2-3.1-.5-.9-.3-1.9-.3-2.8 0-1.4.4-2.9.8-4.3 1.1-.1 0-.1.1-.2.1.2.1.4.3.6.4h3c1.6 0 3.2.1 4.8 0 1.1-.1 2.3-.3 3.4-.4 2.3-.2 4.5-.3 6.8-.2 1.1.1 2.1.2 3.1.7.7.3 1.4.8 1.9 1.4l.6.9c.3.6.1 1.1-.4 1.5-.4.3-1 .5-1.5.6-1.3.2-2.5.2-3.8.1-3.6-.3-7.1-1.3-10.6-2.4-1.5-.5-3-.9-4.6-1h-.4c.1 0 .1.1.1.1 3.1.9 6.2 2.1 9.2 3.5 1.4.6 2.8 1.2 4.1 1.8 1.2.5 2.3 1.1 3.4 2 .3.3.7.6 1 1 .4.5.3 1.1-.2 1.5-.6.5-1.4.8-2.2.9-1.5.2-2.9-.2-4.2-1-1.2-.7-2.2-1.6-3.2-2.6-1.8-1.6-3.6-3.2-5.6-4.6-.9-.7-1.9-1.3-3-1.7-.6-.2-1.2-.3-1.8-.5-.2.2-.1.4 0 .5.3.3.3.6.4 1 0 .3.1.7.1 1 .1.4 0 .7-.1 1.1-.1.7-.5 1.3-.7 1.9-.2.6-.5 1.3-.7 1.9-.1.1-.1.3-.2.4-.1.2-.3.4-.5.3-.1.4-.4.4-.8.4-.7 0-1.3.1-2 .1h-.2l-1.2 2.1c-.2.3-.3.5-.5.8-.4.6-.5 1.3-.3 2v.3c-.1-.1-.1-.1-.1-.2-.2-.5-.3-1-.1-1.6.2-.5.5-1.1.8-1.6.3-.6.5-1.2.8-1.9h-1v.1c-.4 1-.8 2.1-1.2 3.1-.2.5-.2 1-.2 1.5.1.4.1.8.1 1.1h-.1c-.1-.1-.1-.2-.2-.4-.2-.8-.2-1.6 0-2.4.3-.9.5-1.8.8-2.7 0-.1.1-.3.1-.5-.1-.1-.2-.1-.3-.2-.3.2-.6.1-.9-.1-1.3-.7-2.6-1.3-3.8-2-.1-.1-.3-.1-.5-.1h-.5c-.4 0-.8-.1-1-.4-.1-.1-.1-.1-.1-.2.4.1.7.5 1.3.3-1-.7-1.9-1.5-2.9-2.2-.1 0-.2.1-.3.1 0-.1 0-.2.1-.3-.2-.2-.4-.4-.7-.4-.2 0-.4-.2-.6-.3-.8-.6-1.7-1.1-2.5-1.7-.6-.4-1.2-.4-1.8-.3-.2 0-.3.2-.5.3-.6.4-1.3.5-2 .5-.1 0-.2 0-.3-.1 0-.3.3-.3.5-.5-.2-.4-.2-.9.2-1.3-.3 0-.6 0-.8-.1-.3 0-.4-.1-.3-.4-.2-.1-.5-.1-.7 0-.2.1-.3.1-.5.1-.4.1-.7.2-1 .4-.2.2-.4.3-.6.5-.1.1-.2.2-.4.2-.3 0-.5.1-.6.3-.1.1-.3.2-.4.2-.3.1-.6.3-.8.5.1.3.2.5.5.7.4.4.8.7 1.2 1.1.6.5 1.1 1.1 1.7 1.6.4.4.7.8.8 1.4 0 .1.1.2.1.3.7 1 1.2 2 1.6 3.1.2.5.3.9.5 1.4 0 .1.1.2.1.4.1.4.4.6.8.7.1 0 .3.1.4.1-.4.3-1.1.1-1.4-.3-.2-.3-.3-.5-.4-.8-.4-.9-.8-1.7-1.2-2.6-.1-.1-.1-.3-.2-.4v4c0 .3.2.4.4.5.1 0 .3.1.4.1.1 0 .1.1.3.1-.4.1-1 0-1.2-.3-.1-.1-.1-.3-.1-.4 0-.7-.1-1.5-.1-2.2-.1-1.3-.4-2.8-.8-4-.3 0-.5-.2-.7-.4-.3-.3-.6-.7-.9-1l-.1.1c.1.4-.1.8-.4 1.1-1 1.1-2 2.2-3.1 3.4-.3.3-.7.4-1.2.4-.1 0-.2-.1-.3-.1v-.1c.1 0 .2-.1.3-.1.4 0 .8-.2 1.1-.6.8-1 1.7-2 2.5-3.1.1-.2.2-.4.3-.5-.7-1-1.7-2.1-2.7-3 .1-.1 0-.2 0-.2l-.1.1c.1 0 .1 0 .1.1zm51.4 5.9l-.7-.7c-1.1-.9-2.4-1.6-3.7-2.1-1.5-.6-3-1.3-4.5-1.9-.4-.2-.8-.3-1.2-.5 0 0-.1 0-.1-.1 0 0-.1 0-.1-.1 0 0-.1 0-.1-.1 0 0-.1 0-.1-.1-.2-.1-.4-.2-.7-.3-1.8-.6-3.5-1.3-5.3-1.9-.9-.3-1.9-.5-2.8-.6h-.2v.1c.2 0 .3.1.5.1 1.3.3 2.6.8 3.7 1.6.9.6 1.8 1.3 2.7 2 1.3 1.1 2.6 2.2 3.9 3.4.7.6 1.5 1.3 2.2 1.9 1.4 1 2.9 1.6 4.7 1.3.7-.1 1.4-.3 2-.8.3-.3.4-.6.1-.9l-.1-.1c-.1 0-.1-.1-.2-.2 0 .1 0 0 0 0zm-50.4-.1l.1-.1.1-.1-.1.1s-.1 0-.1.1c0 0-.1 0 0 0-.1 0-.1 0 0 0zm.3-.4s0-.1 0 0l.2-.2c-.1 0-.1.1-.2.2 0-.1 0 0 0 0zm-4.9-1.7s0-.1 0 0c.1-.1.1-.1 0 0 .1-.1.1-.1 0 0 0-.1 0 0 0 0zm22.1-.3c0 .1 0 .1 0 0 .3.2.5.4.8.6 0-.2 0-.3.1-.4v-.1c0-.1.1-.2.1-.3v-.1c.2-.3.3-.5.5-.8-.2-.1-.5-.2-.7-.3-.6-.4-1.1-.7-1.6-1.1-.1 0-.2-.1-.2-.1-.3.1-.5.2-.8.2l-.1.1-.1.1-.1.1s-.1 0-.1.1l-.2.2c.5.4 1 .8 1.5 1.1.2.3.5.5.9.7zM11 26.1l-.4.4c-.3.2-.6.4-1 .4-.1 0-.2 0-.3.1-.5.2-.8.5-.8 1-.1.2 0 .4.1.5.2 0 .3 0 .5-.1.1 0 .2.1.4.1.2.1.3.1.4.2.3-.4.6-.4.9-.2.2.1.2.5.5.5.1-.4.4-.6.7-.8.3 0 .5 0 .8-.1.4.2.7.5.6 1 .2-.1.3-.2.5-.2.4-.1.6-.3.9-.5.1 0 .2-.1.2-.2.3-.2.6-.4 1-.5.1 0 .2-.1.3-.1.5 0 .6-.2.6-.6.1-.3.2-.5.4-.7.2-.2.2-.4.1-.6-.1-.2-.3-.4-.4-.6-.4-.4-.9-.5-1.3-.3l-.1.1c-.3.1-.6.1-.9.2-.3.1-.5.1-.8.2 0 0-.1 0-.1-.1l.3-.3c.5 0 1-.1 1.4-.4-.3-.3-.7-.5-1.1-.6-.4.1-.9.1-1.3.2 0 0-.1 0-.1.1 0 0-.1 0-.1.1l-.1.1h-.1l-.1.1-.1.1h-.1l-.1.1c-.3.3-.6.5-.8.8l-.1.1c.1 0-.1.2-.4.5.1-.1 0 0 0 0zm14.3-6.9c0-.1 0-.1 0 0l.2-.2c.1 0 .1-.1.2-.1l.1-.1.1-.1c.1 0 .1-.1.2-.1l.2-.2s.1 0 .1-.1c.4-.3.7-.5 1.1-.8 1.5-1.2 3-2.3 4.7-3.2.1 0 .1-.1.2-.2s.2-.1.2-.2c.3-.5.9-.5 1.4-.7h.5c.5-.1 1.1-.2 1.6-.3h1.4c-.2-.2-.5-.4-.8-.4-.1 0-.3-.1-.4-.1-1-.1-2 .1-3 .5-1.1.4-2.1 1-3 1.7-.7.4-1.3.9-1.9 1.4-.3 0-.4.1-.4.1-.1.1-.2.2-.3.2-.8.7-1.5 1.3-2.3 2-1.3 1.2-2.7 2.5-4.1 3.6-.8.6-1.6 1.1-2.3 1.7-.6.4-1.1.7-1.7 1.1l.1.1c.6-.4 1.2-.8 1.7-1.1.7-.5 1.3-.9 2-1.4 0 0 .1 0 .1-.1 0 0 .1 0 .1-.1.1-.1.3-.2.4-.3.1-.1.3-.2.4-.3.1-.1.2-.1.2-.2.1-.1.2-.1.2-.2.2-.1.3-.2.5-.4.1-.1.2-.1.2-.2.1-.1.2-.1.2-.2.1-.1.2-.1.2-.2.1-.1.2-.2.3-.2.1-.1.2-.1.2-.2.1-.1.2-.2.3-.2l.1-.1c.1-.1.2-.2.3-.2l.1-.1.1-.1c.1.3.2.2.3.2-.1 0-.1 0 0 0zm-13.5 9.3c0 .1 0 .1 0 0-.1.2-.2.3-.3.5 0 0 0 .1-.1.1 0 .2-.1.4-.1.5 0 .4.3.6.5 1l.2-.2c.1 0 .1-.1.2-.1-.2-.4-.2-.5.2-.8.1-.1.2-.1.2-.1.1-.1.2-.1.3-.2.4-.4.3-.8-.2-.9-.3-.1-.6-.1-.9.2zM27 20.8c-.1 0-.1 0 0 0l-.1.1-.1.1s0 .1-.1.1l-.1.1c-.1.1-.2.3-.4.4v.1c-.3.4-.7.8-1 1.2l.3.3c.1.1.2.2.4.3.3 0 .4-.2.5-.4.2-.2.3-.5.5-.7.8-1.1 1.8-2.1 2.8-3.1.4-.4.3-.5-.2-.6h-.2c-.2.1-.4.1-.5.2-.4.1-.8.6-1.2 1.1 0 0 0 .1-.1.1l-.1.1-.1.1s0 .1-.1.1l-.1.1-.1.1c.1 0 0 .1 0 .2 0-.1 0-.1 0 0zm-6-7.6s0 .1-.1.1c0 .1-.1.2-.1.3-.8 1.9-1.7 3.7-2.7 5.5-.5.9-1 1.8-1.5 2.6v.1c-.4.6-.8 1.2-1.2 1.9h.1c.4-.6.9-1.3 1.3-1.9.1-.1.1-.2.2-.3l1.8-2.7c1.6-2.4 3-4.8 4.1-7.5.7-1.7 1.5-3.4 2.5-4.9.3-.4.6-.8.8-1.3-.1-.4.4-.8.8-1.1.1-.1.3-.1.4-.2.1-.1.3-.1.4-.2.6-.5 1.3-.8 2.1-.9.4-.1.7-.1 1.1-.1-.6-.3-1.1-.4-1.7-.3H29c-1.1.2-2 .8-2.8 1.6-.9.8-1.5 1.8-2.2 2.8-1 1.7-1.9 3.6-2.7 5.5-.1.3-.2.5-.3.8.1.2.1.2 0 .2zm13.9 1.1s-.1 0-.1-.1h-.1c-.2-.2-.4-.3-.6-.5-.1-.1-.3-.2-.6-.1.1 0 .1.1.2.1v.1c0 .1 0 .1.1.2l.1.1s0 .1.1.1v.5c.3.2.7.4 1 .6.7.5 1.5.9 2.1 1.5.5.5.5.5 1.2.2l.1-.1s.1 0 .1-.1c.2 0 .1-.1.1-.2l-.3-.3c-.8-.5-1.5-.9-2.3-1.4-.4-.2-.7-.4-1.1-.6 0 .1 0 0 0 0zm22.5 4.6s-.1 0-.1.1H57s-.1 0-.1.1c-.2.1-.3.1-.5.2h-.3c.8-.3 1.6-.7 2.4-1 .7-.3 1.4-.5 2.1-.7 1.6-.5 3.1-.8 4.8-.7h.8c-.1-.1-.2-.1-.3-.2-.9-.3-1.9-.4-2.8-.3-.1 0-.3.1-.4.1-.7.4-1.4.5-2.2.4h-.3c-1 .3-2 .7-3 1.1-1.8.8-3.5 1.7-5.1 2.7-2.1 1.3-4.4 2.4-6.8 3.2-1.2.4-2.3.9-3.5 1.4-.1 0-.2.1-.2.1v.1c.1-.1.3-.1.4-.2 1.1-.5 2.3-.9 3.4-1.4.1 0 .1 0 .2-.1.4-.1.8-.3 1.2-.4.1 0 .1 0 .2-.1.1 0 .1 0 .2-.1.1 0 .1 0 .2-.1.2-.1.4-.1.6-.2.1 0 .1 0 .2-.1.1 0 .1 0 .2-.1.3-.1.7-.2 1-.4h.1c-.6.2-1.1.4-1.7.6-.2.1-.4.2-.6.2h-.1c-.1 0-.1 0-.2.1-.1 0-.1 0-.2.1-1.2.5-2.5.9-3.7 1.4-.2.1-.4.2-.6.2v.1c.2-.1.4-.2.6-.2.1 0 .2-.1.4-.1.7-.2 1.5-.5 2.2-.7.1 0 .1 0 .2-.1.1 0 .1 0 .2-.1.1 0 .1 0 .2-.1.1 0 .1 0 .2.1h-.1c-.1 0-.1.1-.2.1.1 0 .2 0 .2-.1.2 0 .4-.1.5-.1.4 0 .8-.1 1.2-.1.1 0 .1.1.2.1h.6c1.1-.2 2.1-.5 3.1-.9 1.6-.7 3.3-1.4 4.9-2 1.4-.6 2.9-1.1 4.3-1.7.9-.3 1.8-.7 2.7-1 0 0 .1 0 .1.1-.2.1-.4.2-.6.2-2.4.9-4.8 1.8-7.2 2.9-1.4.6-2.8 1.2-4.2 1.7-.9.3-1.8.6-2.7.8.2 0 .4.1.6 0 .9-.2 1.8-.4 2.6-.6 2-.6 4-1.4 5.9-2.2 1.5-.6 3-1.3 4.4-2 0 0 .1 0 .1.1l-1.2.6s-.1 0-.1.1c-.1 0-.2.1-.3.1-1 .4-1.9.9-2.9 1.3-2.5 1.1-5.1 2.1-7.8 2.7h.5c.2 0 .4 0 .6-.1.7-.1 1.4-.3 2.1-.4.3 0 .5.1.8 0 .3-.1.6-.2.9-.2 1-.3 2.1-.6 3.1-.9 2.4-.8 4.7-1.7 6.6-3.4.1 0 .2 0 .2-.1-.1.2-.3.3-.4.5.2-.2.4-.3.6-.4.3-.2.5-.5.8-.8.1-.1.1-.4.2-.5h-.1s0 .1-.1.1c0 0-.1-.1-.1-.2-.1 0-.1 0-.1.1H66v-.1l.2-.2c-.1.1-.2.1-.3-.1.1-.1.1-.2.2-.3-.1 0-.1-.1-.2-.1h-.8c-2-.1-4 .4-5.9 1-.7.2-1.4.5-2 .8.3.2.2.3.2.3zM18 38c0 .1 0 .1 0 0 0 .1 0 .1 0 0 0 0 0-.1-.1-.1 0 .1.1.1.1.1zm15.2-2.1c.2.1.2.1.3.2.4.2.7.4 1.1.6.2.1.4 0 .5-.2v-.4c.1-.2.1-.4.2-.6-.2-.1-.3-.3-.5-.3-1-.4-1.9-1-2.9-1.5-.4-.2-.7-.4-1-.7-.1.2-.4.4-.4.7 0 0 0 .1-.1.1 0 .1-.1.2-.1.2v.2c0 .1-.1.2-.1.3.8.4 1.7.8 2.5 1.2.1.1.3.1.4.1 0 .1 0 .1.1.1zm-23-.1s.1 0 .1-.1l.1-.1c.1 0 .1-.1.2-.1.3-.1.5-.3.8-.4.1-.1.2-.2.4-.3 0 0 0-.1-.1-.1-.4.2-.7.5-1 .8-.1 0-.1.1-.2.1l-.1.1c-.1 0-.1.1-.2.1zm26.7-4.4s0-.1-.1-.1c0-.1 0-.1-.1-.2 0 0 0-.1-.1-.1-.1-.4-.4-.8-.6-1.2-.3.1-.2.3-.2.5.6 1.4 1.1 2.8 1.7 4.2 0 .1.1.2.1.3.1 0 .2-.1.3-.1.2-.2.1-.3 0-.5-.2-.5-.4-1-.6-1.4-.2-.4-.3-.7-.5-1.1.1-.2.1-.3.1-.3zm-28.7.1c0 .1 0 .2-.1.2 0 .2-.1.4-.1.5-.1.3-.1.4.1.5h.2c.2-.2.4-.4.4-.6.4-.8.3-1.6.3-2.5 0 0-.1-.1-.2-.1 0 0-.1 0-.1.1-.1.2-.1.5-.1.7 0 .1 0 .1-.1.2 0 .1 0 .2-.1.2 0 .1 0 .2-.1.3 0 .1 0 .2-.1.3.1.1 0 .2 0 .2zm27.3-3.2c0 .1-.1.2-.1.3 0 .1 0 .1-.1.2 0 .3 0 .5-.1.8 0 .2.2.3.3.2.1-.1.3-.2.4-.3.2-.2.3-.4.5-.6.2-.2.2-.3.1-.5s-.3-.3-.5-.3c-.1 0-.3-.1-.5.2zm-15-10c.1 0 .1-.1.2-.1l.1-.1.1-.1c.1-.1.2-.1.3-.2l.2-.2.3-.3.1-.1c.1 0 .2 0 .3-.1.2-.2.5-.4.7-.7l.2-.2c.3 0 .4-.2.5-.4l.3-.3.3-.3c1-1 2-2.1 2.8-3.2 1.5-2 2.7-4.2 3.9-6.4.3-.5.5-1 .7-1.5.1-.3.1-.6.2-.8-.1-.2-.1-.3-.2-.5-.3-.2-.7-.2-1.1-.1-.9.1-1.7.6-2.5 1.1-.1 0-.1.1-.1.2-.3.7-.8 1.2-1.5 1.5-.2.1-.3.2-.4.3-.9 1.2-1.6 2.5-2.2 3.9-.6 1.3-1.2 2.7-1.8 4.1-.8 1.8-1.9 3.4-3 5.1l-1.2 1.8-.1.1c-.6.9-1.3 1.9-1.9 2.8 0 .1-.1.1-.1.2h.2c.2-.2.3-.3.4-.5.1-.1.2-.3.3-.4.3-.5.7-.9 1-1.4.8-.9 1.5-1.8 2.3-2.7l.1-.1c.2 0 .3-.1.4-.3.1.1.1 0 .2-.1zM35 39c0-.1.1-.2.1-.2H35v.2c-.1.1-.1.1 0 0-.1.1 0 .1 0 0zm.1-.4c0-.1.1-.2.1-.2h-.1c.1 0 .1.1 0 .2zm-3.1-22v.1c-.2.1-.4.3-.5.4-.3.4-.6.7-.9 1.1-.1.1-.2.1-.2.2-.1 0-.1.1-.2.1l.1.1c-.2.2-.4.4-.5.6-.1.1-.1.2 0 .3-.1.1-.2.1-.3.2v.1c.1-.1.3-.1.4-.2.4-.2.8-.4 1.3-.6h.1l.1-.1c.1 0 .1 0 .2-.1 1.5-.8 3-1.7 4.3-2.7l.1-.1c-.1 0-.2-.1-.3-.1 0-.1-.1-.1-.1-.2h-.1c-.1-.1-.2-.1-.2-.2-.1.1-.2.1-.3.2 0 0-.1 0-.1-.1.1-.1.2-.1.2-.2-.1-.1-.2-.1-.3-.2-.1 0-.2 0-.4.1l-.1-.1c.1 0 .1-.1.2-.2-.3 0-.4 0-.5-.1-.1 0-.1.1-.2.1-.7.3-1.1.9-1.6 1.4-.1 0-.2.1-.2.2zm3.4 19.9c-.1.1-.1.2.1.3v-.3c0-.1.1-.2.1-.3.1-.2.1-.3.2-.5h-.3c0 .2-.1.3-.1.5v.3zm7.8-12.2c.2-.1.5-.2.7-.3.4-.2.8-.3 1.2-.5 1.5-.5 2.9-1 4.3-1.8 1.8-1.1 3.7-2.2 5.6-3.1 1.5-.8 3.1-1.5 4.8-2 .3-.1.5-.2.8-.3.7-.3 1.4-.5 2.1-.2h.3c.9 0 1.7 0 2.5.2.1.1.3.1.4.2v-.1c-.1-.1-.2-.1-.3-.2-1.4-.8-2.8-1-4.4-.7-1.8.4-3.6 1.1-5.2 1.9-1.9 1-3.8 2.1-5.6 3.2-1.3.8-2.6 1.6-4 2.2-.4.2-.9.4-1.3.6-.4.2-.9.4-1.3.6l-.6.3c-.2.1-.3.1-.5.2v.1c.2-.1.3-.2.5-.3zm21.3 5.2c.1 0 .3.1.4.1v-.1c-.1 0-.2-.1-.3-.1-.2 0-.3-.1-.5-.1-.1 0-.3-.1-.4-.1-.6-.2-1.3-.3-1.9-.5-1.4-.3-2.9-.5-4.3-.5-1.7 0-3.4-.1-5.2-.1h-4.1c-.3 0-.6-.1-.9-.1v.1c.2 0 .4.1.6.1.8.1 1.6.2 2.4.2 2.2.1 4.5 0 6.7.1 1.7.1 3.4.3 5.1.5.7.1 1.3.2 1.9.3.2.1.3.1.5.2zm-28-6.5c.3 0 .4-.2.5-.4.2-.1.4-.3.3-.5l-.1-.1c-.1-.1-.2-.1-.3-.2-.1-.2-.3-.3-.4-.5-.4.3-.7.6-1 .9-.3.3-.3.5.1.8.1.1.2.3.3.4h.1l.1.1c0-.2.2-.3.4-.5zm-10.4 8.3c-.1.1-.1.2 0 .2.1.1.2.1.4.2 0-.1.1-.1.1-.2l.1-.1c.1 0 .1-.1.2-.1l.1-.1c.2-.1.5-.3.8-.5-.4-.2-.8-.5-1.2-.7-.1.3-.2.5-.3.7v.2c0 .1-.1.1-.1.2l-.1.2zm29.8-.9c.3.1.6.1 1 .2.2 0 .4.1.6.1 1.9.4 3.8.6 5.8.4.9-.1 1.7-.2 2.4-.8 0-.1.1-.2.1-.3h-.2c-.6 0-1.3.1-1.9.1-2.2.1-4.3 0-6.5-.2-1.2-.1-2.4-.3-3.6-.4-.4-.1-.7-.1-1.1-.2v.1c.3.1.5.1.8.2.9.2 1.7.3 2.6.5h.3c.4.1.7.1 1.1.2l3 .3c.1 0 .2.1.3.1h2.2c.1 0 .2 0 .3.1-.7 0-1.3.1-2 .1-1.1 0-2.2-.1-3.4-.2-.1 0-.3 0-.4-.1h-.1c-.5-.1-.9-.2-1.3-.2-.1-.1-.3-.1-.5-.2v.1c.1 0 .3.1.5.1zM7.5 25.9c-.1.1-.2.2-.2.3.5 0 1 0 1.5.1-.1-.1-.1-.2-.2-.2V26c-.1-.1-.2-.2-.4-.2-.3-.2-.5-.1-.7.1zm2.7 2.8c-.1.4-.1.8 0 1.2.1 0 .2 0 .3.1.1-.3.3-.5.4-.8.1-.3 0-.4-.2-.5h-.4c-.1-.1-.1 0-.1 0zm25.1-14.6s.1 0 .1.1c.1.1.1.2.2.2.2-.1.3-.2.5-.2l.1.1-.3.3c.1.2.2.1.4 0v.1c0 .1.1.1.1.2.1 0 .2 0 .2.1.1.1.2.1.3.2.4-.4.7-.8.8-1.4 0-.2-.2-.1-.2-.2-.1 0-.2 0-.4-.1v-.1h-.4c-.6.1-1.1.3-1.7.4-.1 0-.1.1-.2.1.1.1.2.2.3.2h.2zM12.7 31.2l1.4 1.4c.2.3.5.5.7.8l.8.8c.1.1.2.2.3 0 0 0 .1 0 .2-.1-.1-.1-.2-.1-.3-.2-.7-.6-1.3-1.2-2-1.8-.4-.4-.8-.7-1.2-1.1-.1-.1-.2-.1-.3-.2 0 0-.1 0-.2.1v.1c.2-.1.4 0 .6.2zm6.3-8.1c-.7.5-1.3.9-2 1.4v.1c.7-.5 1.4-.9 2-1.5.1 0 .2-.1.3-.1l-.1-.1c0 .1-.1.2-.2.2zm22.5 3.6h-1.2c-.2-.1-.5-.2-.7-.2v-.1c.3 0 .5.1.8.1h1c0-.5-.1-.8-.3-1.2 0-.2-.1-.2-.3-.3-.3 0-.6-.1-1-.1h-.5c-.5.1-.9.1-1.4.2h-.2c-.5.1-.9.1-1.4.2-.2 0-.5.1-.6.3l-.9 1.2-.1.1c-.1.2 0 .9.2 1.1l.3.3c.2-.3.5-.5.8-.5.7 0 1 .3.9 1.1h.2c.1 0 .1.1.2.1h2.3c.3.1.7.2 1 .3.3-.5.8-.6 1.3-.7 0-.1.1-.3.1-.4l.1-.1c.2-.2.2-.5.1-.7-.1-.4-.3-.6-.7-.7zM9.1 28.6c-.4-.1-.6.1-.4.6H9c.2 0 .4-.2.4-.6h-.3zm16-5.5c0-.2-.2-.1-.3-.1l-.6.3s-.1 0-.1.1l-3 1.5c-.1.1-.2.1-.4.2h-.1l.1.1c.1 0 .1.1.2.1 0 .2.1.3.2.4.3-.2.6-.4.9-.5.9-.4 1.8-.8 2.7-1.3.3-.1.6-.2.9-.5-.2-.1-.3-.2-.4-.3.1.1 0 .1-.1 0 .1.1 0 0 0 0zm-.2 7.7c.1 0 .1.1.2.1l.1.1c.2.1.4.3.6.3V31c0-.1 0-.2.1-.2v-.2c.1-.2.3-.5.4-.8-1.2-.9-2.5-1.4-3.8-2.2-.1.3-.2.6-.2.9v.4c-.1.2 0 .2.1.3.5.3 1 .6 1.4.9.3.2.5.3.8.5l.1.1c.1.1.2.1.2.1zm16.6 3.6c.3-.8.6-1.5.9-2.2h-.7c-.1 0-.2-.1-.3-.1-.5.9-1 1.8-1.4 2.7-.2.4-.2.5.2.9l.1.1c0 .1.1.1.1.2l.1.1c.2.2.3 0 .3-.1.2-.4.5-1 .7-1.6zm-3.3-15.1c.2-.7.3-1.3.5-2 0-.1 0-.2-.1-.3 0 0-.1 0-.1.1v.1c-.1 0-.1 0-.2.1-.5.1-.5.1-.7.6-.2.7-.4 1.5-.6 2.2-.1.2-.2.5-.3.7v.3c.1.1.3.2.4.4l.3.3h.1c.2.1.2 0 .3-.1.1-.2.2-.5.2-.7.1-.6.2-1.2.2-1.7zM31 16.2s-.1 0 0 0c-.6.6-1.1 1.2-1.7 1.8.1 0 .2.1.2.1h.1c.1.1.3.2.5.3.2-.2.3-.4.5-.5.5-.7 1-1.3 1.6-1.8l1.3-1.3c.3-.2.3-.4.1-.7 0-.1 0-.1-.1-.2 0 0 0-.1-.1-.1-.1-.1-.2-.1-.3 0-.1.1-.3.2-.4.3-.6.7-1.1 1.3-1.7 2v.1zm3.7 8.7c.2-.1.4-.2.5-.3.1-.1.2-.3.3-.4v-.1c.1-.1.1-.2.2-.3-.2-.2-.4-.3-.5-.5l-.3-.6-.3.3c-.2.1-.3.3-.3.5 0 .6-.1 1.2-.3 1.7 0 .1-.1.3-.1.4h.1c.1-.1.2-.3.3-.4.2-.1.3-.2.4-.3zm1.7 11.3v.1c0 .1 0 .1-.1.2v.1c0 .1 0 .1-.1.2h.1c1.2 0 2.4-.1 3.6-.1.1 0 .2-.1.4-.2v-.1l-.1-.1c0-.1-.1-.1-.1-.2 0 0 0-.1-.1-.1l-.3-.6c-1 .2-2 .4-3.1.2 0 .1-.1.2-.1.2v.2c-.1.1-.1.2-.1.2zm-.1-1c-.1 0-.2.1-.2.1-.3.9-.5 1.8-.8 2.6v.1h.1c.2-.6.5-1.3.7-1.9.1-.2.2-.5.2-.9.1.1 0 .1 0 0zm-3.7-6.1s0-.1 0 0c-.4.4-.8.9-1.2 1.3 0 0 0 .1.1.1.2 0 .4 0 .5-.1.2-.4.4-.9.6-1.3 0-.1 0-.1 0 0V29v.1zm-8.1-7.7c.2-.1.4-.2.6-.2h.1c.8-.3 1.6-.5 2-1.3 0 0 .1-.1.1-.2h-.1l-.1-.1c.4-.2.7-.5 1-.9l.3-.3c.2-.2.4-.4.5-.6.1-.1.2-.1.1-.3.3-.2.6-.5.8-.7.2-.2.3-.4.5-.6 0-.1.1-.2.1-.2.4-.3.7-.7 1-1.1-.1 0-.2.1-.3.1-1.3.8-2.6 1.7-3.8 2.6-1.3 1-2.6 2.1-3.8 3.1-1.6 1.3-3.3 2.4-5 3.5-.5.3-.9.6-1.4.8 0 0 0 .1.1.1.5-.3.9-.6 1.4-.9.8-.5 1.7-1 2.5-1.5h.2c.1-.1.2-.1.4-.2.3-.1.5-.3.8-.4.2.1.3 0 .5-.1l.6-.3c.1-.1.3-.1.4-.2.3-.1.4-.1.5-.1zm-4.1 4c-.1 0-.1 0 0 0-.2 0-.4-.1-.4 0-.5.3-1 .3-1.5.3-.2 0-.4.1-.6.1 0 .3-.1.6-.4.8-.1 0-.1.2-.1.2 0 .2-.1.4-.1.6h.2c.6-.1 1.3-.1 1.9-.2.3-.1.5-.2.8-.4l.6-.3c.3-.1.4-.2.2-.5 0-.1-.1-.1-.1-.2-.2-.2-.3-.4-.5-.4zm13.1 1.3c0 .2-.1.4-.1.6 0 .1.1.2.1.2.1 0 .2 0 .3-.1.2-.2.3-.5.3-.8 0-.2-.1-.3-.3-.3-.2.1-.3.2-.3.4zm-25.8-.2c.4.6.4 1.3.3 2 .1-.1.2-.1.2-.1v-.7c0-.4.3-.6.6-.9 0 0 .1 0 .1-.1-.4-.2-.7-.4-1.2-.2zm3.8 7.9c.1.2.2.2.4 0-.3-.7-.5-1.4-.8-2.1-.3-.7-.5-1.4-.8-2.1v.3c.1.4.3.7.4 1.1.1.3.2.7.4 1 .1.6.3 1.2.4 1.8zm24.5.3v.2c.1 0 .2.1.2.1l.2-.2v-.6c-.1-.6-.3-1.2-.4-1.8-.1-.7-.3-1.4-.4-2.1 0-.1 0-.3-.2-.2-.2 0-.1.2-.1.2 0 .3.1.6.2.9.1.6.2 1.3.3 1.9 0 .5.1 1 .2 1.6zm18.7-5.2c.1 0 .3 0 .4.1h.4c1.7.1 3.4.3 5 .4 1 .1 2.1 0 3.1 0h1.2v-.1c-1-.1-2-.3-3.1-.4-1.2-.1-2.4-.2-3.6-.2-1.3-.1-2.6-.1-3.9-.2-.8-.1-1.6-.1-2.3-.2-.5 0-1.1-.1-1.6-.1.1.1.1.1.2.1l1.5.3c.7.1 1.4.2 2.1.2.2.1.4.1.6.1zm-22.4 1c.1.1.1.2.2.3l.3-.3c.1-.3.2-.5.3-.8.2-.5.3-1 .4-1.5 0-.1.1-.2.1-.3-.1 0-.2-.1-.3-.1-.1.1-.1.3-.1.4l-.9 2.1v.2zm1.4-6.3h-.3c0 .5.1.9.1 1.3 0 .3-.2.5-.1.7.3 0 .5-.1.7 0 .2.1.3.3.4.5l.2-.2c.2-.2.3-.5.5-.7.3-.3.3-.5-.1-.9l-.1.1c-.1 0-.1 0-.2.1-.3.3-.5.6-.8.9-.1 0-.1 0-.3.1-.1-.6.3-1.2.2-1.8 0-.1-.1-.1-.2-.1zM7.6 26.7c-.2-.5-.8-.5-1.2-.2-.6.5-.6 1.3-.4 1.9.2.5.5.6 1 .6.4 0 .8-.4.8-.8V28c-.1-.3-.1-.7-.2-1v-.3zm34 2.2c-.2.1-.4.1-.6.2-.3.2-.3.4-.1.8.3.4.4.8.3 1.2v.4c0 .2.1.3.3.3.3 0 .5.1.8.1.2 0 .2-.1.2-.2V31c0-.4-.1-.8-.2-1.2 0-.2-.1-.4-.2-.6l-.1-.1c-.1-.1-.1-.2-.3-.2h-.1c.1 0 .1 0 0 0zm-8.7-2.6c.3-.4.4-.9.3-1.5 0-.3-.1-.6-.3-.8-.3-.3-.8-.3-1.2.1-.7.5-.7 1.9-.1 2.4.1.1.3.2.5.2.3.1.6-.1.8-.4zm3.2 5.2c.2.9.4 1.7.6 2.6.1.3.1.6-.1.9v.3h1c0-.1.1-.3.1-.3-.1-.2-.2-.3-.3-.5l-1.2-3c0-.1-.1-.2-.1-.3H36c.1.1.1.2.1.3zM20 29.2c.4-.3.9-.3 1.4-.2h.6c.2-.5.3-1 .4-1.6-.2 0-.4-.1-.7-.1-.5-.1-1-.2-1.5-.2h-.1c-.5.3-1 .4-1.5.5-.2 0-.4.1-.7.1-.1 0-.3.1-.4.1v.1h.7c.4.1.5.2.2.6-.1.1-.1.3-.1.4v.3c.1.2.1.3 0 .5h.1c.7 0 1.2-.1 1.6-.5zm29.9-.6c.5 0 1 .1 1.6.1 1.2.1 2.5.2 3.7.2 1 .1 1.9.1 2.9.2 1.9.1 3.8.3 5.8.5.4.1.8.1 1.3.2H65c-.2-.1-.5-.1-.7-.2-2.5-.5-5-.8-7.6-.9-1.8-.1-3.7-.1-5.5-.1-.6 0-1.3-.1-1.9-.1.1.1.3.1.6.1zm15.4.8c-.7-.5-1.5-.9-2.4-1.1-.2 0-.3-.1-.5 0-.6 0-1.2-.1-1.7-.4-.2-.1-.4-.2-.6-.2-1.5-.2-3-.3-4.5-.2-1.7.1-3.4.2-5.2.3-1.7.1-3.3-.1-5-.2-1-.1-2-.1-3-.1h-.2v.2h.2c1.3-.1 2.6 0 3.9.1 1.4.1 2.8.2 4.2.2 2 0 4-.1 5.9-.1 3.2.1 6.1.6 8.9 1.5 0 .1.1.1.2.2v-.1c-.1 0-.1-.1-.2-.1zm-15.6-2.2h-4.1c-1 0-1.9 0-2.9-.1h-.3v.1h.2c1.1 0 2.1 0 3.2.1.6 0 1.2.1 1.7.1.8 0 1.6 0 2.4.1.1 0 .1 0 .2-.1h.3l4.5-.3h3.8c.4 0 .9.1 1.3.1h.7c.6 0 1.2.1 1.7.4.2.1.3.2.5.2.9.3 1.8.8 2.5 1.4.1 0 .1.1.2.1-.1-.4-.3-.7-.6-1-.5-.6-1.2-1-1.9-1.3-1-.4-2-.6-3-.6-2-.1-4 0-6 .1-1.4.3-2.9.5-4.4.7zm-3-2.5c.9-.2 1.7.1 2.6.3.9.2 1.8.4 2.7.4 1.1 0 2.2-.1 3.3-.2.4 0 .9-.1 1.3-.2.7-.1 1.3-.2 2-.4 2.1-.4 4.2-1 6.2-1.8.6-.2 1.2-.5 1.7-1 .2-.2.3-.5.2-.8-.2-.6-.6-1-1.1-1.4-.1.1-.2.1-.2.1-.7.4-1.3.8-2 1.2-2.1 1.1-4.4 1.9-6.7 2.5-1.4.4-2.9.7-4.3.9-1.2.2-2.4.2-3.7 0-.5-.1-1.1-.1-1.7 0-1.2.1-2.3.4-3.4.8-.6.2-1.3.4-1.9.6-.1 0-.3.1-.2.3.1 0 .2 0 .3-.1.6-.2 1.1-.3 1.7-.5 1.1-.1 2.2-.4 3.2-.7zm-13.4 1.7c-.1 0-.1 0 0 0-.4.4-.8.5-1.3.6-.4.1-.6.1-.9-.2-.2-.3-.3-.3-.2-.7v-.3c-.1-.6 0-1.1.3-1.6l.3-.3c-.1-.3-.2-.6-.3-.8-.2-.5-.2-.6-.1-.8.2.5.4 1 .6 1.6.1 0 .3-.1.4-.1-.1-.5-.3-1.1-.3-1.6.3.5.3 1.1.6 1.6.8-.7.8-.7 1.5-.6.3-.2.5-.5.8-.7l.2-.2c.2-.4.6-.7 1-1 .2-.2.5-.4.5-.7 0-.1.1-.1.1-.2.2-.5.4-1 .5-1.5.2-.5.3-1 .4-1.5-.4-.4-.9-.8-1.3-1.2-.1 0-.1.1-.1.1-2.1 1.7-4.5 3-7 4-.1 0-.2.1-.2.1-.8.8-1.6 1.6-2.1 2.6-.1.3-.3.5-.5.5-.2.2-.3.3-.5.4-.7.3-1.5.7-2.2 1-.8.3-1.5.8-2.2 1.2.1.6-.4.6-.8.8.5.1.9.1 1.3.2.3.1.7.2.9.3 1.1.6 2.1 1.2 3.1 1.8.3.2.5.4.8.6.1.1.3.2.4.3.2.2.5.3.7.4.3.2.6.3.9.2.2-.1.3-.1.5-.1.7-.1 1.4-.2 2.2-.3.1-.1.2-.2.2-.4.5-.6 1-1.3 1.5-1.9.2-.3.3-.6.3-.9v-.7zm-18.5-2.8c.2.1.3 0 .3-.1.6-1 1.2-1.9 1.8-2.9.8-1.3 1.6-2.7 2.3-4.1.9-1.9 1.8-3.9 2.6-5.8.7-1.7 1.5-3.2 2.5-4.7 1-1.6 2.2-2.9 4-3.7.1 0 .1-.1.2-.2.2-.4 0-.7-.5-.8-.8-.1-1.5.1-2.2.5-1.3.7-2.2 1.7-3 3-1.1 1.8-1.8 3.8-2.4 5.9-.4 1.4-.9 2.8-1.4 4.3-.8 2.3-2 4.5-3.1 6.7-.4.6-.7 1.2-1.1 1.9zm24.8 11.5c.1-.2.2-.4.3-.7.3-.7.7-1.4 1-2.1.1-.1.1-.3.1-.4v-.8c0-.3 0-.7-.2-1-.1-.2-.2-.4-.4-.6-.1 0-.2 0-.2-.1-.4-.2-.8-.2-1.2-.2-.8 0-1.7.2-2.4-.1-.1.1-.3.2-.4.3.1.1.1.2.1.2.7 1.4 1.3 2.9 1.9 4.3.1.2.1.3.1.5s-.1.5-.1.8c.5 0 1 0 1.4-.1zm-11-4s0 .1 0 0c.2.2.5.4.7.6.4.3.8.6 1.4.8.1 0 .2.1.3.2.5.5 1 .8 1.6 1.1.1.1.3.1.4.1.4-.1.8-.2 1.1-.3.3-.1.7-.2 1-.3v-1.2c0-.6 0-1.1-.1-1.7-.1-.6-.2-1.1-.1-1.7-.4-.3-.7-.7-.7-1.3-.1.2-.3.3-.4.4-.1.1-.2.2-.2.3-.2.6-.3 1.2-.5 1.7-.1.3-.2.5-.3.8-.1.1-.2.3-.4.3-.2.1-.6.1-1 .1h-2c-.3.1-.5.1-.8.1zm-9-8.4s0 .1 0 0h.2c1.1-.9 2.3-1.7 3.3-2.6 1.3-1.1 2.5-2.3 3.7-3.4 1.6-1.4 3.2-2.6 5.1-3.5 1.1-.6 2.2-1 3.4-1h.8c.2-.5.1-.9-.4-1-.1 0-.3-.1-.5-.1-.6 0-1.2.1-1.8.3-1.4.5-2.6 1.2-3.7 2.1-1.4 1-2.5 2.3-3.7 3.5-.8.8-1.6 1.7-2.4 2.5-1.2 1.2-2.5 2.2-3.8 3.2-.1-.1-.2 0-.2 0zm6.6-1.4c-3.1.8-5.9 2.3-8.6 4 0 .1.1.1.1.2.4 0 .8 0 1.2-.1.3 0 .5-.1.8-.2.3-.1.5-.2.8-.2 1.6-.8 3.1-1.6 4.6-2.3.2-.5.7-1 1.1-1.4zm9.4 12.4c-.7.2-1.5.3-2.2.5l.1.1c.6.3 1.2.7 1.9 1 .1.1.3.1.4.1l.1-.1c-.1-.6-.2-1.1-.3-1.6zm-23.9-2.9s0 .1 0 0c0 .1.1.2.1.2.2.3.5.5.7.8.3.4.6.9.9 1.3.2.2.3.2.5 0 0-.1 0-.1-.1-.2-.6-.7-1.2-1.4-1.8-2-.1 0-.2 0-.3-.1zm22.4-7.3c-.4-.3-1-.2-1.3.3l.3.3c.3 0 .6-.1.9-.1 0-.2.1-.3.1-.5zm2.8-10.3c-.8-.1-1.6.1-2.5.3.1.1.2.2.3.2.8-.1 1.5-.3 2.2-.5zM16.7 37.3c0-1-.3-2-.6-3-.1.1-.1.2-.1.2 0 .1.1.3.2.4.2.8.4 1.6.5 2.4zm-2.8-3.7l-.1-.1-.3.3c-.3.4-.6.7-.8 1.1-.1.1-.2.3-.3.4 0 0 .1 0 .1.1.4-.6.9-1.2 1.4-1.8zm3 2s-.1 0-.1.1c.2.6.6 1 .8 1.6h.1c-.3-.6-.5-1.1-.8-1.7zM11.1 30c0-.1 0-.1 0 0-.1 0-.2.1-.2.2.1.2.3.4.5.5h.1c-.1-.3-.2-.5-.4-.7zm-3.6 3.7c.5-.2.7-.5.6-.8-.3.3-.5.6-.6.8zm28-.3s.1 0 0 0c0-.4 0-.7-.1-1.1h-.1c.1.4-.1.8.2 1.1zm-1.3.4c.4 0 .8-.1 1.2-.2v-.1c-.5.1-.8.2-1.2.3zm-3.1-3c.4 0 .8.1 1.2 0v-.1c-.4 0-.8 0-1.2.1zm-20.4-.9c.1 0 .1 0 0 0 .3-.2.4-.5.5-.7 0 0-.1 0-.1-.1-.1.3-.2.5-.4.8zm20.4-3.7c-.1.3-.1.3.2.4v-.1c-.1-.1-.2-.1-.2-.3zM6 28.8c0 .3.1.4.4.3-.2-.1-.3-.2-.4-.3zm32 6.1c-.2.1-.3.2-.2.4h.1c.1-.1.1-.2.1-.4zm-.7 2.2c-.2.1-.2.3-.3.4h.1c.1-.1.1-.2.2-.4zm-5.9-10.4c0 .1 0 .1 0 0 0 .1.1.1.1.2v-.1l-.1-.1zm-11.9-3.9c-.1 0-.2 0-.2.1v.1c.1-.1.2-.1.2-.2zm-1.7 14.9v-.2.2zm.4-7.9zm-.1 8.5zm16.8 1zM13.4 29.1z"/><path class="st1" d="M51.6 30.9c.1 0 .1 0 .2.1 0 0 .1 0 .1.1 0 0 .1 0 .1.1.1.1.2.1.3.2l3.3 1.5c.9.4 1.8.9 2.8 1.3 1.1.5 2.2 1.1 3.2 1.8.2.1.4.3.6.4l.1.1.1.1s0 .1.1.1l.1.1c.2.4.2.7-.1.9-.6.5-1.2.7-2 .8-1.8.3-3.3-.2-4.7-1.3-.8-.6-1.5-1.2-2.2-1.9-1.3-1.1-2.6-2.3-3.9-3.4-.8-.7-1.8-1.3-2.7-2-1.1-.8-2.4-1.3-3.7-1.6-.2 0-.3-.1-.5-.1v-.1h.2c1 .1 1.9.3 2.8.6 1.8.6 3.5 1.3 5.3 1.9.2.1.4.2.7.3-.3-.1-.2 0-.2 0zm-4.9-6.2c-1 .3-2.1.5-3.1.8-.6.1-1.1.3-1.7.5-.1 0-.2 0-.3.1-.1-.2.1-.2.2-.3.6-.2 1.3-.4 1.9-.6 1.1-.4 2.2-.7 3.4-.8.5-.1 1.1-.1 1.7 0 1.2.1 2.5.1 3.7 0 1.5-.2 2.9-.5 4.3-.9 2.3-.7 4.6-1.4 6.7-2.5.7-.4 1.3-.8 2-1.2.1 0 .1-.1.2-.1.5.4.9.8 1.1 1.4.1.3 0 .6-.2.8-.5.5-1.1.8-1.7 1-2 .8-4.1 1.4-6.2 1.8-.7.1-1.3.2-2 .4-.5 0-.9.1-1.4.1-.6 0-1.3.1-1.9.1-1.3 0-2.5 0-3.7-.3-.7-.2-1.5-.3-2.2-.3-.4-.1-.6 0-.8 0z"/><path class="st2" d="M14.8 23.6c.4-.7.7-1.3 1.1-1.9 1.2-2.2 2.3-4.3 3.1-6.7.5-1.4.9-2.9 1.4-4.3.6-2 1.3-4 2.4-5.9.7-1.2 1.7-2.3 3-3 .7-.4 1.4-.6 2.2-.5.5.1.7.4.5.8 0 .1-.1.1-.2.2-1.8.7-3 2.1-4 3.7-1 1.5-1.8 3.1-2.5 4.7-.8 2-1.7 3.9-2.6 5.8-.7 1.4-1.5 2.7-2.3 4.1-.6 1-1.2 1.9-1.8 2.9 0 0-.1.2-.3.1z"/><path class="st3" d="M16.6 21.8c.5-.9 1-1.8 1.5-2.6 1-1.8 1.9-3.6 2.7-5.5 0-.1.1-.2.1-.3 0 0 0-.1.1-.1 0 0 0-.1.1-.1.1-.1.2-.2.2-.4.3-.7.6-1.5 1-2.2.6-1.1 1.1-2.2 1.7-3.3.5-.9 1.1-1.8 1.8-2.6.8-.9 1.7-1.5 2.8-2 .2-.1.5-.2.7-.3.6-.1 1.2 0 1.7.3-.4 0-.8 0-1.1.1-.8.1-1.5.5-2.1.9-.1.1-.3.1-.4.2-.1 0-.2.1-.4.1-.5.3-.9.7-1.1 1.2-.2.5-.5.9-.8 1.3-1 1.5-1.8 3.2-2.5 4.9-1 2.7-2.5 5.1-4.1 7.5l-1.8 2.7c-.1.1-.1.2-.2.3h-.1c.1 0 .1-.1.2-.1z"/><path class="st2" d="M19.6 22.7l.2-.2c1.3-1 2.6-2 3.8-3.2.8-.8 1.6-1.6 2.4-2.5 1.2-1.2 2.4-2.4 3.7-3.5 1.1-.9 2.4-1.7 3.7-2.1.6-.2 1.2-.3 1.8-.3.2 0 .3 0 .5.1.5.2.7.5.4 1h-.8c-1.2 0-2.3.5-3.4 1-1.8 1-3.5 2.2-5.1 3.5-1.3 1.1-2.5 2.3-3.7 3.4-1.1.9-2.2 1.8-3.3 2.6-.1.2-.1.2-.2.2 0 .1 0 0 0 0z"/><path class="st4" d="M46.7 23.5c-.4.1-.8.3-1.2.4-.1 0-.1 0-.2.1-1.1.5-2.3.9-3.4 1.4-.1.1-.3.1-.4.2v-.1c.1 0 .2-.1.2-.1 1.2-.5 2.3-1 3.5-1.4 2.4-.8 4.6-1.9 6.8-3.2 1.7-1 3.4-1.9 5.1-2.7 1-.4 2-.7 3-1.1h.3c.8.2 1.5 0 2.2-.4.1-.1.3-.1.4-.1.9-.1 1.9 0 2.8.3.1 0 .2.1.3.2h-.8c-1.6-.1-3.2.2-4.8.7-.7.2-1.4.4-2.1.7-.8.3-1.6.7-2.4 1-.1 0-.1 0-.2.1-2.2 1.1-4.4 2.2-6.7 3.3-.3.1-.7.2-1 .4-.1 0-.1 0-.2.1-.1 0-.1 0-.2.1-.2.1-.4.1-.6.2-.1 0-.1 0-.2.1-.1 0-.1 0-.2.1.1-.4.1-.3 0-.3z"/><path class="st5" d="M30.3 3c.4-.1.7-.1 1.1.1.1.2.1.3.2.5l-.1.1c-.4.9-.8 1.7-1.2 2.6-1.3 2.6-2.9 5-4.7 7.2-.6.7-1.3 1.5-1.9 2.2l-.3.3c-.2.1-.3.4-.5.4.1-.1.1-.2.2-.2.4-.4.7-.8 1.1-1.2.1-.1.2-.2.3-.4.4-.5.9-1 1.3-1.5l.1-.1c0-.1.1-.1.1-.2l.1-.1s0-.1.1-.1l.1-.1s0-.1.1-.1l.2-.2c.5-.8 1-1.5 1.6-2.3 0-.1.1-.1.1-.2s.1-.1.1-.2.1-.1.1-.2c.1-.2.2-.3.3-.5.1-.1.1-.2.2-.3.2-.3.4-.6.5-.9.1-.1.1-.2.2-.3 0 0 0-.1.1-.1.1-.1.1-.2.2-.3 0 0 0-.1.1-.1 0 0 0-.1.1-.1l.1-.1s0-.1.1-.1c0 0 0-.1.1-.1 0 0 0-.1.1-.1.1-.1.1-.2.2-.3.3-.7.6-1.3 1-2 .1-.1.1-.2.2-.3-.2 0-.3-.1-.3.1l-.5.5c-.1.1-.2.2-.3.4-1 1.2-1.9 2.4-2.8 3.7-1.6 2.5-3.1 5-4.7 7.5v.2h-.1c-.1.2-.3.4-.4.6.1-.1.2-.1.3-.1-.2.2-.5.4-.7.7-.1.1-.2.1-.3.1.4-.5.8-1.1 1.1-1.6.8-1.3 1.6-2.6 2.4-4 0 0 0-.1.1-.1l.1-.1c.1-.1.1-.2.2-.3l.2-.2c.4-.7.9-1.5 1.3-2.2l2.1-3 .1-.1s0-.1.1-.1c0 0 .1 0 .1-.1.5-.6 1-1.2 1.6-1.8l-.1-.1c-.1 0-.1.1-.2.1-.4.3-.8.6-1.1 1-2.1 2-3.7 4.3-5 6.9-1 2-1.9 4.1-3.3 5.9v.2c-.2 0-.2.1-.2.2-.7-.1-.8 0-.9 0 .1-.2.2-.4.4-.5 1.1-1.5 1.9-3.2 2.8-4.8.2-.3.3-.7.5-1 0 0 0-.1.1-.1.1-.1.1-.2.2-.3.7-1.3 1.4-2.5 2.3-3.7.1-.2.3-.4.4-.6l.3-.3.1-.1c.1-.1.2-.2.2-.3 0 0 .1 0 .1-.1l.1-.1.1-.1.1-.1.2-.2.1-.1.1-.1.1-.1.1-.1.1-.1.1-.1.1-.1.1-.1c.7-.6 1.3-1.2 2-1.8.1-.1.2-.1.3-.2v-.1c-.1.1-.2.1-.3.2h-.1c-1.3.7-2.4 1.6-3.4 2.8-1.4 1.7-2.5 3.6-3.4 5.6-.7 1.5-1.3 3-2.2 4.5-.4.6-.8 1.3-1.2 1.9 0 .1-.1.1-.1.2-.1.1-.2.1-.1.2-.1.1-.2.3-.4.3.1-.1.1-.2.2-.3 1.8-2.3 3-5 4.2-7.7 0 0 0-.1.1-.1 0 0 0-.1.1-.1 0 0 0-.1.1-.1 0 0 0-.1.1-.1 0 0 0-.1.1-.1 0-.1.1-.1.1-.2.1-.1.1-.2.2-.3.1-.2.2-.5.4-.7.1-.1.1-.2.2-.3 0 0 0-.1.1-.1 0 0 0-.1.1-.1 0-.1.1-.1.1-.2l.1-.1s0-.1.1-.1l.1-.1s0-.1.1-.1l.1-.1s0-.1.1-.1c0-.1.1-.1.1-.2s.1-.1.1-.2c.2-.3.4-.5.6-.8l1.8-2.1.1-.1.1-.1.1-.1.1-.1s.1 0 .1-.1c.6-.4 1.3-.8 1.9-1.2-.9.2-1.7.7-2.4 1.2-.1.1-.2.1-.3.2l-.1.1-.1.1h-.2c.4-.3.7-.6 1.1-.8.3-.2.6-.3.8-.5.1 0 .1 0 .2-.1-.8.4-.6.4-.3.3h-.7zm.7.6s0 .1 0 0c.1 0 .2-.1.2-.1-.1 0-.2.1-.2.1z"/><path class="st4" d="M50.2 27.4H50c-.8 0-1.7 0-2.5-.1-.4 0-.8-.1-1.3-.1h3.3c.1 0 .2 0 .3-.1 1.5-.2 3-.4 4.6-.5 2-.2 4-.3 6-.1 1 .1 2.1.2 3 .6.7.3 1.3.8 1.9 1.3.3.3.5.7.6 1-.1-.1-.1-.1-.2-.1-.8-.6-1.6-1-2.5-1.4-.2-.1-.3-.1-.5-.2-.5-.3-1.1-.4-1.7-.4-.6-.1-1.3-.2-1.9-.3-1-.1-2-.1-3.1-.1h-1.3c-.9.1-1.9.1-2.8.2-.7.2-1.2.3-1.7.3zm15.3-11.1c-.8-.2-1.7-.3-2.5-.2h-.3c-.7-.2-1.4-.1-2.1.2-.3.1-.5.2-.8.3-1.7.5-3.2 1.2-4.8 2-1.9 1-3.8 2.1-5.6 3.1-1.3.8-2.8 1.3-4.3 1.8v-.1c.4-.2.9-.4 1.3-.6 1.4-.6 2.7-1.3 4-2.2 1.8-1.2 3.7-2.3 5.6-3.2 1.7-.8 3.4-1.5 5.2-1.9 1.5-.3 3-.1 4.4.7 0 .1-.1.1-.1.1zm-2.5 3c-1.5.7-3 1.3-4.4 2-1.9.8-3.9 1.6-5.9 2.2-.9.3-1.8.4-2.6.6h-.6c.9-.3 1.8-.5 2.7-.8 1.4-.5 2.8-1.1 4.2-1.7 2.4-1.1 4.8-1.9 7.2-2.9.2-.1.4-.2.6-.2.5-.2 1-.4 1.5-.5h.1c-.1.1-.2.1-.3.2-1 .3-1.7.7-2.5 1.1z"/><path class="st4" d="M65.2 29.5c-2.8-1-5.6-1.5-8.6-1.5-2 0-4 0-5.9.1-1.4 0-2.8-.1-4.2-.2-1.3-.1-2.6-.2-3.9-.1h-.2v-.2h.2c1 0 2 0 3 .1 1.7.1 3.3.3 5 .2 1.7-.1 3.4-.2 5.2-.3 1.5-.1 3 0 4.5.2.2 0 .4.1.6.2.5.3 1.1.4 1.7.4h.5c.7.1 1.5.5 2.1 1.1.1-.1.1-.1 0 0zm-1.3-11.2c-.9.3-1.8.7-2.7 1-1.4.6-2.9 1.1-4.3 1.7-1.6.7-3.3 1.4-4.9 2-1 .4-2.1.7-3.1.9h-.4c.1-.1.2-.1.3-.1.8-.3 1.5-.5 2.3-.8 1.2-.5 2.4-1.1 3.6-1.6 2.6-1.2 5.2-2.3 7.9-3.1 1.2-.4 2.4-.7 3.6-.9v.1c-.9.3-1.6.6-2.3.8z"/><path class="st6" d="M18.9 23.7c.8-.6 1.6-1.1 2.3-1.7 1.5-1.1 2.8-2.3 4.1-3.6.7-.7 1.5-1.3 2.3-2 .2 0 .3-.1.3-.2.1 0 .2 0 .2-.2.1-.1.3-.1.4-.2.4-.2.7-.5 1.1-.8 1.2-.8 2.5-1.5 3.8-2 1-.4 2.1-.5 3.1-.5.3.1.5.2.8.4h-1.4c-.5.1-1.1.2-1.6.3h-.5c-.5.2-1 .2-1.4.7l-.2.2h-.1c-2.1 1.1-4 2.5-5.8 4l-.1.1s-.1 0-.1.1l-.2.2c-.1 0-.1.1-.2.1l-.1.1-.1.1c-.1 0-.1.1-.2.1l-.1.1-.1.1-.1.1s-.1 0-.1.1l-.1.1-.1.1c-.1.1-.2.2-.3.2l-.1.1c-.1.1-.2.2-.3.2-.1.1-.2.1-.2.2-.1.1-.2.2-.3.2-.1.1-.2.1-.2.2-.1.1-.2.1-.2.2-.1.1-.2.1-.2.2-.2.1-.3.2-.5.4-.1.1-.2.1-.2.2-.1.1-.2.1-.2.2-.1.1-.3.2-.4.3-.1.1-.3.2-.4.3 0 0-.1 0-.1.1 0 0-.1 0-.1.1-.7.5-1.3.9-2 1.4 0-.3 0-.3-.1-.3zM30.3 3h.6c-.2.1-.4.1-.6.2-.1 0-.1 0-.2.1h-.2c-.3.2-.6.3-.9.5-1.1.7-2 1.7-2.8 2.8-.6.8-1.1 1.7-1.7 2.5-.1.1-.1.3-.2.5l-.1.1s0 .1-.1.1c0 0 0 .1-.1.1 0 0 0 .1-.1.1 0 0 0 .1-.1.1 0 .1-.1.1-.1.2 0 0 0 .1-.1.1 0 0 0 .1-.1.1-.6 1.3-1.2 2.6-1.8 3.8-.4.9-.9 1.8-1.4 2.6-.9 1.4-1.9 2.7-2.8 4 0 0-.1 0-.1-.1l1.2-1.8c1.1-1.7 2.2-3.3 3-5.1.6-1.3 1.2-2.7 1.8-4.1.6-1.4 1.3-2.7 2.2-3.9.1-.2.2-.3.4-.3.7-.3 1.2-.8 1.5-1.5 0-.1.1-.1.1-.2 1-.4 1.8-.8 2.7-.9z"/><path class="st6" d="M25.5 8.7c-.2.1-.2.2-.2.3-.2.2-.3.4-.4.7-.1.1-.1.2-.2.3 0 .1-.1.1-.1.2 0 0 0 .1-.1.1 0 0 0 .1-.1.1 0 0 0 .1-.1.1 0 0 0 .1-.1.1 0 0 0 .1-.1.1-1.2 2.7-2.4 5.4-4.2 7.7-.1.1-.1.2-.2.3l-.1.1c-.8.9-1.5 1.8-2.3 2.7h-.1c.2-.3.5-.6.7-1 1.5-2 3-4 4-6.3 0 0 0-.1.1-.1 0-.1.1-.2.1-.3 0 0 0-.1.1-.1 0 0 0-.1.1-.1 0 0 0-.1.1-.1.1-.1.1-.2.2-.3 0 0 0-.1.1-.1 0 0 0-.1.1-.1 0 0 0-.1.1-.1.1-.2.2-.4.2-.5 0 0 0-.1.1-.1 0 0 0-.1.1-.1.2-.4.4-.8.5-1.1 0 0 0-.1.1-.1 0 0 0-.1.1-.1 0 0 0-.1.1-.1 0 0 0-.1.1-.1 0 0 0-.1.1-.1 0 0 0-.1.1-.1.1-.1.1-.2.2-.3.1-.1.1-.2.2-.4.1-.1.2-.3.2-.4.1-.1.1-.2.2-.3l.1-.1c0-.1.1-.2.1-.2l.6-.9c0-.1.1-.1.1-.2.1-.1.1-.2.2-.2.1-.1.2-.3.3-.4.2-.2.3-.4.5-.6-.2-.3-.1-.5 0-.6l.1-.1.1-.1c.3-.3.5-.6.8-.8l.1-.1.1-.1.1-.1c.1 0 .1-.1.2-.1l.1-.1.1-.1c.1-.1.2-.1.3-.2.7-.6 1.5-1.1 2.4-1.2-.7.4-1.3.8-1.9 1.2 0 0-.1 0-.1.1l-.1.1-.1.1-.1.1-.1.1c-.1 0-.2 0-.2.1-.3.3-.7.6-1 1l-1.2 1.5v.2c-.1 0-.2.1-.1.2-.1 0-.2.1-.1.2 0 0 0 .1-.1.1l-.1.1s0 .1-.1.1l-.1.1s0 .1-.1.1l-.1.1c-.1 0-.2.1-.1.2 0 0 0 .1-.1.1-.2-.1-.2 0-.2 0z"/><path class="st7" d="M42.9 25c1.2-.5 2.5-.9 3.7-1.4.1 0 .1 0 .2-.1.1 0 .1 0 .2-.1h.3c1.4-.3 2.7-.9 4-1.5 1.3-.7 2.6-1.4 3.9-2L57 19s.1 0 .1-.1c.1 0 .2-.1.3-.1 0 0 .1 0 .1-.1 0 0 .1 0 .1-.1.7-.3 1.3-.6 2-.8 1.9-.6 3.8-1.1 5.9-1h.2c.1 0 .3 0 .4.1 0 0-.1 0-.1.1-1.8.1-3.5.5-5.1 1-2.8.9-5.4 2-8 3.3-1.6.8-3.3 1.5-5 2-.6.2-1.1.4-1.7.5-.1 0-.1 0-.2.1-.1 0-.1 0-.2.1-.1 0-.1 0-.2.1-.7.2-1.5.5-2.2.7-.2.2-.3.3-.5.2.1.1 0 0 0 0z"/><path class="st4" d="M48 24c-.4 0-.8.1-1.2.1 0 0-.1 0-.1-.1 2.4-.7 4.7-1.6 6.9-2.8 2.1-1.1 4.3-2 6.6-2.8 1.7-.6 3.4-1 5.2-1.2.1 0 .2 0 .2.1-.3.1-.5.1-.8.2-3.2.7-6.2 1.9-9.1 3.2-1.7.8-3.4 1.6-5.1 2.3-.8.4-1.7.6-2.6 1z"/><path class="st6" d="M25.3 11.7c-.8 1.3-1.6 2.6-2.4 4-.3.6-.8 1.1-1.1 1.6l-.1.1-.3.3v-.2c1.4-1.8 2.3-3.9 3.3-5.9 1.3-2.6 2.9-4.9 5-6.9.4-.3.8-.7 1.1-1 .1 0 .1-.1.2-.1l.1.1c-.5.6-1 1.2-1.6 1.8 0 0-.1 0-.1.1 0 0 0 .1-.1.1l-.1.1c-.1.1-.2.1-.3.2-.2.3-.5.6-.7.9-1 1.2-1.8 2.6-2.5 4 0 .1-.1.2-.1.3-.2 0-.2.2-.2.3l-.1.1v.1z"/><path class="st4" d="M61.9 20l1.2-.6c.2-.1.3-.1.5-.2.8-.4 1.7-.9 2.5-1.3h.1c-.8.5-1.5 1.1-2.3 1.6-2.4 1.5-4.9 2.5-7.5 3.4-.8.3-1.6.5-2.4.8-.7.1-1.4.3-2.1.4-.2 0-.4 0-.6.1.1 0 .2-.1.2-.1 3.3-.9 6.5-2.1 9.5-3.6l.6-.3c.2-.2.2-.2.3-.2z"/><path class="st8" d="M48 24l2.7-.9c1.7-.7 3.4-1.5 5.1-2.3 2.9-1.3 6-2.5 9.1-3.2.3-.1.5-.1.8-.2.2 0 .3 0 .5-.1v-.1c-.2 0-.5 0-.7.1-1.8.2-3.5.6-5.2 1.2-2.3.8-4.5 1.7-6.6 2.8-2.2 1.2-4.5 2.1-6.9 2.8-.1 0-.2.1-.4.1-.1 0-.1 0-.2-.1.6-.2 1.1-.4 1.7-.5 1.7-.5 3.4-1.2 5-2 2.6-1.3 5.3-2.5 8-3.3 1.7-.5 3.4-.9 5.1-1 0 0 .1 0 .1-.1h.2c.1 0 .2.1.2.1-.1.1-.1.2-.2.3h-.2c-1.2.2-2.4.5-3.6.9-2.7.8-5.3 1.9-7.9 3.1-1.2.6-2.4 1.1-3.6 1.6-.7.3-1.5.5-2.3.8-.1 0-.2.1-.3.1h.4-.6c-.1-.1-.2-.1-.2-.1z"/><path class="st7" d="M48.2 28.1h4.1c1.7 0 3.4 0 5.2.1 1.5 0 2.9.2 4.3.5.6.1 1.3.3 1.9.5.1 0 .3.1.4.1 0 0-.1 0-.1.1-.6-.1-1.3-.2-1.9-.3-1.7-.2-3.4-.4-5.1-.5-2.2-.1-4.5-.1-6.7-.1-.8 0-1.6-.1-2.4-.2.1-.2.2-.2.3-.2zm6 1.4c-.7-.1-1.4-.1-2.1-.2l-1.5-.3c-.1 0-.1-.1-.2-.1.5 0 1.1.1 1.6.1.8.1 1.5.1 2.3.2 1.3.1 2.6.2 3.9.2 1.2.1 2.4.1 3.6.2 1 .1 2 .2 3.1.4v.1h-1.4c-.8 0-1.5 0-2.3-.1-.4 0-.7 0-1.1-.1-.8-.1-1.5-.1-2.3-.2-.4 0-.7 0-1.1-.1-.7 0-1.4-.1-2.1-.1h-.4z"/><path class="st3" d="M21.4 22.7c-.8.5-1.7 1-2.5 1.5l-.1-.1c1.7-1.1 3.4-2.2 5-3.5 1.3-1 2.6-2.1 3.8-3.1 1.2-1 2.4-1.9 3.8-2.6.1-.1.2-.1.3-.1-.3.4-.5.8-1 1.1-.1 0-.2.1-.3.1-.7.5-1.5 1-2.2 1.5-1.5 1.1-3 2.3-4.5 3.4-.7.7-1.5 1.2-2.3 1.8z"/><path class="st4" d="M51.2 28.6c1.8 0 3.7 0 5.5.1 2.5.1 5.1.4 7.6.9.2.1.5.1.7.2l.1.1c-.5-.1-.9-.1-1.3-.2-1.9-.3-3.8-.4-5.8-.5-1 0-1.9-.1-2.9-.2-1.2-.1-2.5-.1-3.7-.2-.5 0-1-.1-1.6-.1h.3c.4-.1.7-.1 1.1-.1z"/><path class="st6" d="M20.6 18.1c.4-.6.8-1.3 1.2-1.9.9-1.4 1.5-2.9 2.2-4.5.9-2 2-3.9 3.4-5.6 1-1.1 2-2.1 3.4-2.8h.1l.1.1c-.7.6-1.3 1.2-2 1.8l-.1.1-.1.1-.1.1-.1.1-.1.1-.1.1-.1.1-.1.1c-.2 0-.3.1-.2.2l-.1.1-.1.1-.1.1s-.1 0-.1.1c-.2 0-.3.1-.2.3l-.1.1c-.2 0-.3.1-.3.3-.1 0-.2.1-.2.1-.3.3-.6.7-.8 1-.7 1-1.3 2-1.8 3.1 0 .1 0 .2-.1.3 0 0 0 .1-.1.1-.2.3-.3.7-.5 1-.8 1.7-1.7 3.3-2.8 4.8-.1.2-.2.4-.4.5l-.1.1-.1.1c.6-.2.6-.2.5-.3 0 .1 0 0 0 0z"/><path class="st4" d="M65.5 19.1c-2 1.6-4.2 2.6-6.6 3.4-1 .3-2.1.6-3.1.9 0 0-.1 0-.1-.1 1.3-.5 2.5-.9 3.8-1.4 2.5-1 4.8-2.3 7-4h.1v.3c0 .1-.2.1-.1.3v.1c-.1-.2-.1 0-.2 0 0 0 0 .1-.1.1 0 0-.1 0-.1.1-.4.1-.5.2-.6.3z"/><path class="st9" d="M40.4 26.5c-.3 0-.5-.1-.8-.1v.1c.2.1.5.2.7.2-.1 0-.2.1-.3.1.1 0 .1.1.2.2-.2.5-.4 1-.6 1.4h-.5c-.4-.1-.7-.2-1.1-.3.1-.3.3-.6.4-.9.3-.6.5-1.2 1-1.7.4.1.8.2 1.3.3-.1.3-.2.5-.3.7z"/><path class="st10" d="M14 25.2c.3-.1.5-.1.8-.2.3-.1.6-.1.9-.2v.3c-.2 0-.4.1-.5.1-.2 0-.4.1-.6.1-.1 0-.2.1-.2.3 0 .2.1.2.3.2h.9c0 .2-.1.5-.1.7-.1.3-.2.5-.3.8v.1c-.1 0-.2 0-.2.1-.6.3-1.2.5-1.8.4 0-.1.1-.2.1-.3.2-.4.4-.9.5-1.3-.2-.4 0-.8.2-1.1z"/><path class="st11" d="M18.4 28.9c0-.1.1-.3.1-.4.2-.4.2-.5-.2-.6h-.7v-.1c.1 0 .3-.1.4-.1.6.1 1.2.1 1.8-.2.2-.1.4-.2.4-.5.5.1 1 .2 1.5.2.3.2.4.6.2 1-.1.2-.3.3-.5.3-.7 0-1.4.1-2.1.3-.3.3-.6.3-.9.1zm3.3-1.1c-.2.1-.5.2-.7.2-.4.1-.8.1-1.2.2-.4.1-.7.2-1.1.3-.1 0-.1.1-.2.2.1 0 .2.1.3.1.1 0 .3 0 .4-.1.6-.1 1.2-.3 1.8-.3.2 0 .3-.1.5-.2.2 0 .3-.2.2-.4z"/><path class="st12" d="M11.1 26l.6-.6.1.1c.1-.1.2-.2.4-.2l.9-.6c0 .1 0 .1-.1.2-.3.4-.5.7-.8 1.1-.4.5-.8 1-1 1.6-.1.2-.2.4-.2.6h-.1c-.4 0-.8-.1-1.2-.1.2-.3.5-.7.7-1l.6-.9c0-.1 0-.1.1-.2-.1.1 0 0 0 0zm2.9-.8c-.3.3-.4.7-.6 1.1-.1.4-.3.9-.5 1.3 0 .1-.1.2-.1.3v.1c-.3 0-.5 0-.8.1.1-.7.4-1.4.7-2.1.3-.4.5-.9.5-1.4.4-.1.7-.2 1.1-.3 0 .2-.1.5-.1.7l-.2.2z"/><path class="st7" d="M55.7 30.1c-.9-.2-1.7-.3-2.6-.5.1 0 .2 0 .3-.1 1.2.1 2.4.3 3.6.4 2.2.2 4.3.3 6.5.2.6 0 1.3-.1 1.9-.1-.3.1-.7.2-1 .3h-.3c-.7 0-1.5.1-2.2.1h-1.6c-.4 0-.8 0-1.2-.1-.3 0-.6 0-.9-.1-.6-.1-1.2-.2-1.8-.2-.1 0-.2 0-.3.1H56c-.1 0-.2-.1-.3 0z"/><path class="st3" d="M23.7 15.7c.6-.7 1.3-1.5 1.9-2.2 1.8-2.2 3.4-4.7 4.7-7.2.4-.9.8-1.7 1.2-2.6 0-.1.1-.1.1-.1-.1.3-.1.6-.2.8-.2.5-.4 1-.7 1.5-1.2 2.2-2.3 4.4-3.9 6.4-.9 1.1-1.8 2.2-2.8 3.2-.1.1-.2.2-.3.2z"/><path class="st13" d="M30.5 33.7c0-.3.2-.5.4-.7.4.2.7.5 1 .7 1 .5 1.8 1.2 2.9 1.5.2.1.3.2.5.3-.1.2-.2.4-.2.6 0 0-.1 0-.1-.1h-.1c0-.2-.2-.3-.4-.4-.5-.3-1-.6-1.6-.9l-1.8-.9c-.2-.1-.3-.2-.5 0 0-.1 0-.1-.1-.1z"/><path class="st14" d="M29.3 2.4c-.2.1-.5.2-.7.3-1.1.5-2 1.2-2.8 2-.7.8-1.3 1.6-1.8 2.6-.6 1.1-1.2 2.2-1.7 3.3-.4.7-.7 1.5-1 2.2-.1.1-.2.2-.2.4.1-.3.2-.5.3-.8.8-1.9 1.6-3.7 2.7-5.5.6-1 1.3-2 2.2-2.8.7-.9 1.6-1.4 2.7-1.7h.3z"/><path class="st13" d="M22.4 28.5c.1-.3.1-.5.2-.9 1.2.8 2.6 1.4 3.8 2.2-.2.3-.3.5-.4.8h-.1c0-.3-.1-.4-.3-.6-.6-.4-1.1-.8-1.7-1.1-.4-.2-.8-.5-1.2-.3-.2 0-.3-.1-.3-.1z"/><path class="st12" d="M15.7 25.1v-.2l.1-.1c.4-.3.9-.2 1.3.3 0 .2-.1.4-.1.6 0 .3-.1.6-.2.8-.1.2-.1.3-.2.5h-.2c-.4.1-.9.3-1.3.4.1-.3.2-.5.3-.8.1-.2.1-.5.1-.7h.1c.3-.1.7-.2 1-.3.2-.1.3-.2.3-.4-.2-.3-.4-.4-.7-.3-.2.1-.4.2-.5.2z"/><path class="st5" d="M22.2 14.3c-1 2.3-2.5 4.3-4 6.3-.2.3-.5.6-.7 1-.3.5-.7.9-1 1.4-.1.1-.2.3-.3.4-.1.2-.3.4-.4.5h-.2c.1-.1.2-.1.2-.2.4-.6.9-1.2 1.3-1.9l.6-.9c.9-1.3 1.9-2.6 2.8-4 .5-.8 1-1.7 1.4-2.6.6-1.3 1.2-2.5 1.8-3.8 0 0 0-.1.1-.1 0 0 0-.1.1-.1 0-.1.1-.1.1-.2 0 0 0-.1.1-.1 0 0 0-.1.1-.1 0 0 0-.1.1-.1 0 0 0-.1.1-.1l.1-.1c.1-.1.1-.2.2-.2.4-.6.8-1.3 1.2-1.9.1-.1.2-.3.3-.4v.2c-.1.1-.1.2-.2.2 0 .1-.1.1-.1.2l-.6.9c-.3.1-.3.1-.3.2l-.1.1c-.1.1-.1.2-.2.3-.1.1-.2.3-.2.4-.1.1-.1.2-.2.4-.1.1-.1.2-.2.3 0 0 0 .1-.1.1 0 0 0 .1-.1.1 0 0 0 .1-.1.1 0 0 0 .1-.1.1 0 0 0 .1-.1.1 0 0 0 .1-.1.1-.2.4-.4.8-.5 1.1 0 0 0 .1-.1.1 0 0 0 .1-.1.1-.1.2-.2.4-.2.5 0 0 0 .1-.1.1 0 0 0 .1-.1.1 0 0 0 .1-.1.1-.1.1-.1.2-.2.3 0 0 0 .1-.1.1 0 0 0 .1-.1.1 0 0 0 .1-.1.1 0 .1-.1.2-.1.3.5.3.5.4.5.4z"/><path class="st3" d="M34.7 15.7s.1.1 0 0c.2 0 .3 0 .4-.1.1.1.2.1.2.2-.3.2-.5.4-.8.6-.1 0-.1.1-.1.2-.3 0-.6.3-.8.5v.1c-.1 0-.2 0-.2.1-.1 0-.2 0-.2.1-.1-.1-.2 0-.2.1-.1 0-.2 0-.2.1-.1 0-.2 0-.2.1 0 0-.1 0-.1.1-.1-.1-.2 0-.2.1h-.1v.1c-.8.5-1.6.9-2.4 1.4h-.1v-.1c.2-.2.4-.4.5-.6.2-.1.3-.2.5-.3.9-.6 1.8-1.1 2.7-1.7.1-.1.3-.2.4-.3v-.1h.2v-.1c.1.1.1.1.2-.1h.1c.1 0 .1-.1.2-.1 0 0 .1 0 .1-.1h.1v-.2z"/><path class="st12" d="M17.8 25.8c.2 0 .4-.1.6-.1.5 0 1 0 1.5-.3.1-.1.2 0 .3 0-.3.1-.6.3-.9.4-.3.1-.6.1-.9.2v.1h.2c.3 0 .7 0 1-.1.4-.1.6-.3.7-.6.2.1.3.2.4.4-.3.2-.6.4-.8.5-.2.2-.5.3-.8.4-.3.1-.7.2-1 .3h-.5c0-.1 0-.2.1-.3 0-.1.1-.2.2-.3 0-.2.1-.4-.1-.6z"/><path class="st7" d="M65.5 30.3c-.7.6-1.5.7-2.4.8-1.9.1-3.9-.1-5.8-.4-.2 0-.4-.1-.6-.1h.4c.1 0 .3 0 .4.1 1.1.1 2.2.2 3.4.2.7 0 1.3 0 2-.1.8 0 1.5-.2 2.2-.4.3-.1.4-.1.4-.1z"/><path class="st3" d="M22.7 22.1c-.3.1-.5.3-.8.4h-.1c1.8-1.2 3.5-2.4 5.1-3.7 1-.8 2.1-1.6 3.2-2.4.1-.1.3-.1.4-.2-.2.2-.3.4-.5.6-.3.3-.5.5-.8.7-.2.1-.4.2-.6.4-1.5 1.1-3 2.2-4.5 3.2-.4.3-.9.6-1.4 1z"/><path class="st10" d="M13.3 24.5c-.1.5-.3 1-.5 1.4-.4.6-.6 1.3-.7 2.1-.4 0-.7.1-1.1.1l.3-.6c.2-.6.6-1.1 1-1.6.3-.3.5-.7.8-1.1 0-.1 0-.1.1-.2 0 0 .1 0 .1-.1-.1.1 0 .1 0 0z"/><path class="st11" d="M62 36.3c-.2-.1-.4-.3-.6-.4-1-.7-2-1.3-3.2-1.8-.9-.4-1.8-.8-2.8-1.3l-3.3-1.5c-.1 0-.2-.1-.3-.2.4.2.8.3 1.2.5 1.5.6 3 1.3 4.5 1.9 1.3.6 2.6 1.2 3.7 2.1.4.2.6.4.8.7z"/><path class="st5" d="M56.8 19.1L55 20c-1.3.7-2.6 1.4-3.9 2-1.3.6-2.5 1.3-4 1.5h-.2c.2-.1.4-.2.6-.2.6-.2 1.2-.4 1.7-.6h-.1c2.2-1.1 4.4-2.2 6.7-3.3.1 0 .1 0 .2-.1h.3c.2-.1.4-.1.5-.2z"/><path class="st8" d="M66.3 17.9c-2.1 1.7-4.4 3-7 4-1.3.5-2.5.9-3.8 1.4-.3.1-.6.2-.8.2v.1c-.3.2-.5.1-.8 0 .8-.3 1.6-.5 2.4-.8 2.6-.9 5.1-1.9 7.4-3.4.8-.5 1.5-1.1 2.3-1.6.2.1.3.1.3.1z"/><path class="st15" d="M17.8 25.8c.2.2.1.4 0 .6 0 .1-.1.2-.2.3 0 .1 0 .2-.1.3h.5c.3-.1.7-.1 1-.3.3-.1.5-.3.8-.4.3-.2.6-.4.8-.5 0 .1.1.1.1.2.1.3.1.4-.2.5l-.6.3c-.3.1-.5.3-.8.4-.6.1-1.3.2-1.9.2H17c0-.2.1-.4.1-.6 0-.1.1-.2.1-.2.5-.2.6-.5.6-.8z"/><path class="st3" d="M29.1 17.7c-.1.3-.3.5-.5.6l-.3.3c-.3.4-.6.6-1 .9-1.1.7-2.1 1.3-3.2 2-.1.1-.3.1-.4.2 0 0-.1 0-.1-.1l.2-.2c.6-.4 1.2-.8 1.7-1.2l3.3-2.4c.2 0 .3 0 .3-.1z"/><path class="st6" d="M34.7 15.7s-.1 0 0 0l-.1.1v.1h-.1v.2h-.1c-.1 0-.1 0-.2.1l-.1.1-.6.3c-.9.6-1.8 1.1-2.7 1.7l-.1-.1c.3-.4.6-.7.9-1.1.1 0 .1-.1.2-.1l3-1.8c.1.1.2.1.3.2-.3.1-.3.2-.4.3z"/><path class="st9" d="M37.9 25.1c.5-.1.9-.1 1.4-.2 0 .1 0 .1-.1.2h-.1c-.3 0-.6 0-.9.1v.1c.2 0 .5.1.7.1v.1c-.2.3-.5.6-.7 1-.2.3-.4.5-.7.7-.2.1-.3.2-.4.3-.1.1-.2.2-.4.3v-.2c.2-.3.4-.5.5-.8.2-.3.3-.7.4-1 .1-.3.2-.5.3-.7z"/><path class="st13" d="M27.4 31.5c.3-.1.5-.2.8-.2.1 0 .2.1.2.1.5.4 1.1.7 1.6 1.1.2.1.4.2.7.3-.2.3-.3.5-.5.8-.1 0-.1-.1-.2-.1-.1-.1-.2-.3-.3-.4-.5-.4-1-.7-1.5-1-.3-.4-.6-.5-.8-.6z"/><path class="st16" d="M38.3 16.9c-.7.3-.7.3-1.2-.2-.6-.6-1.4-1.1-2.1-1.5-.3-.2-.6-.4-1-.6v-.5l.9.6c.9.5 1.7 1 2.4 1.7.3.2.6.5 1 .5z"/><path class="st17" d="M18.4 28.9c.3.2.6.2.9 0 .7-.3 1.4-.4 2.1-.3.2 0 .4-.1.5-.3.2-.4.1-.8-.2-1 .2 0 .4.1.7.1-.2.5-.3 1-.4 1.6h-.6c-.5-.1-.9-.1-1.4.2-.1 0-.2.1-.4.1-.4.1-.8.3-1.2.4.1-.2.1-.3 0-.5v-.3z"/><path class="st16" d="M33.5 14c.2.3.2.5-.1.7-.5.4-.9.9-1.3 1.3-.6.6-1.2 1.1-1.6 1.8-.1.2-.3.4-.5.5-.2-.1-.3-.2-.5-.3v-.1c.1 0 .2-.1.3-.1l.8-.8c.6-.7 1.3-1.3 1.9-2 .4-.3.7-.6 1-1z"/><path class="st17" d="M38 34.6c-.1 0-.2.1-.3.1-.1-.1-.1-.2-.1-.3-.6-1.4-1.1-2.8-1.7-4.2-.1-.2-.1-.3.2-.5l.6 1.2s0 .1.1.1c0 .1 0 .1.1.2 0 0 0 .1.1.1 0 0 0 .1.1.1v.3c.2.5.4 1 .6 1.4 0 .6.2 1 .3 1.5z"/><path class="st18" d="M25.5 23l-.3-.3c.4-.4.7-.8 1-1.2 0 .1.1.1.1.2v.1l-.1.1c-.3.2-.4.5-.6.7h.1c.2-.2.4-.5.6-.7l.1-.1c.3-.3.6-.6.9-1 .1-.2.2-.3.4-.5.1-.1.2-.3.4-.4.5-.5 1-1.1 1.4-1.6-.1.2-.1.4-.2.6-.1.2-.2.3-.4.4-.9.9-1.7 1.9-2.5 2.9-.3.5-.5.8-.9.8z"/><path class="st13" d="M32.9 26.3c-.2.3-.5.4-.8.5-.2 0-.3-.1-.5-.2-.7-.6-.6-1.9.1-2.4.4-.3.9-.3 1.2-.1.2.2.3.5.3.8l-.1-.1c-.1-.2-.3-.3-.6-.3-.2-.2-.4-.2-.6-.1-.2.1-.2.3-.2.5v.1s0 .1-.1.1c-.2 0-.3 0-.4.2 0 .2 0 .3.2.3 0 .2.1.3.1.5.1.4.5.6.9.4.3-.1.4-.1.5-.2z"/><path class="st16" d="M25.5 23c.4 0 .6-.3.8-.6.8-1 1.6-2 2.5-2.9l.4-.4c.1-.2.1-.4.2-.6.5.2.5.3.2.6-1 1-2 2-2.8 3.1-.2.2-.3.5-.5.7-.1.2-.3.4-.5.4l-.3-.3z"/><path class="st13" d="M40.2 35.7c-.4-.4-.4-.5-.2-.9.5-.9.9-1.8 1.4-2.7.1 0 .2 0 .3.1l-.9 2.1c-.1.5-.3 1-.6 1.4z"/><path class="st18" d="M37.4 21.7l-.3-.3c0-.2.1-.4.1-.5.1-.4.2-.7.3-1.1.2-.9.3-1.8.8-2.5.1 0 .1 0 .2-.1 0 .2-.1.4-.1.6-.2.7-.3 1.5-.5 2.2-.2.5-.4 1.1-.5 1.7z"/><path class="st16" d="M38.3 17.2c-.5.8-.6 1.7-.8 2.5-.1.4-.2.7-.3 1.1 0 .2-.1.4-.1.5-.1-.1-.3-.2-.4-.4v-.3c.1-.2.2-.5.3-.7.2-.7.4-1.5.6-2.2.1-.4.2-.4.7-.5z"/><path class="st9" d="M32.5 24.4c.2 0 .4.1.6.3l.1.1c.1.5.1 1-.3 1.5-.1 0-.2.1-.2.1-.4.2-.8.1-.9-.4-.1-.2-.1-.3-.1-.5 0 0 .1 0 .1-.1.1.2.2.4.4.4s.4-.1.5-.3c.1-.3 0-.6-.2-.8-.1-.1 0-.2 0-.3z"/><path class="st19" d="M12.8 28s0-.1 0 0c.7 0 1.3-.2 1.9-.4.1 0 .2-.1.2-.1 0 .3-.1.5-.1.8-.3.2-.5.5-.9.5-.2 0-.3.1-.5.2.1-.5-.2-.8-.6-1z"/><path class="st14" d="M36.6 12.5c-1.1 0-2.1.1-3.1.5-1.4.5-2.6 1.2-3.8 2-.4.2-.7.5-1.1.8-.1.1-.3.1-.4.2.6-.5 1.3-1 1.9-1.4 1-.6 2-1.2 3-1.7 1-.4 1.9-.6 3-.5.2 0 .3.1.5.1z"/><path class="st11" d="M41.8 28.9c.2 0 .2.1.3.2-.1 0-.1 0-.2-.1-.3 1 0 1.8.6 2.5.1-.3 0-.5-.2-.7-.2-.2-.3-.5-.3-.8v-.8c.1.2.2.4.2.6.1.4.1.8.2 1.2v.7c0 .1-.1.2-.2.2l-.1-.1c-.3-.1-.4-.4-.5-.7-.1-.4-.1-.7-.2-1.1-.1-.4-.1-.8.2-1.1h.2c-.1 0-.1 0 0 0zm4.9-4.2c.2 0 .4-.1.7-.1.8-.1 1.5.1 2.2.3 1.2.3 2.5.4 3.7.3.6 0 1.3-.1 1.9-.1.5 0 .9-.1 1.4-.1-.4.1-.9.2-1.3.2-1.1.1-2.2.1-3.3.2-.9 0-1.8-.1-2.7-.4-.9-.2-1.7-.4-2.6-.3z"/><path class="st5" d="M30.6 16.2c-.1.1-.3.1-.4.2-1.1.8-2.2 1.6-3.2 2.4-1.7 1.3-3.4 2.6-5.1 3.7-.1.1-.2.1-.3.2h-.2c.8-.6 1.6-1.1 2.4-1.7 1.5-1.1 3-2.3 4.5-3.4.7-.5 1.4-1 2.2-1.5.1-.1.2-.1.3-.1-.1 0-.2.1-.2.2z"/><path class="st16" d="M25.3 23.2c.1.1.2.2.4.3-.3.2-.6.3-.9.5-.9.4-1.8.8-2.7 1.3-.3.1-.6.4-.9.5-.1-.1-.2-.2-.2-.4.2-.1.5-.1.7-.2.3-.2.7-.3 1-.5.7-.4 1.5-.7 2.2-1.1l.4-.4z"/><path class="st9" d="M61.8 20.1l-.6.3c-3.1 1.5-6.2 2.7-9.5 3.6-.1 0-.2.1-.2.1H51c2.7-.7 5.2-1.7 7.8-2.7 1-.4 1.9-.8 2.9-1.3h.1z"/><path class="st19" d="M7.8 28.1c-.1.5-.4.8-.8.9-.4 0-.8-.1-1-.6-.2-.6-.2-1.5.4-1.9.4-.3 1-.2 1.2.2-.1 0-.3-.1-.4-.1-.2-.1-.4-.1-.6.1-.1.1-.2.3-.1.5v.1l-.1.1c-.2 0-.3.1-.3.2s.1.2.2.2c0 .1.1.2.1.3-.1.3.1.6.4.8.2.1.6 0 .7-.3.2-.3.2-.4.3-.5z"/><path class="st10" d="M7.1 26.6c.1 0 .3.1.4.1 0 0 0 .1.1.1v.1c.1.3.1.7.2 1v.2c-.1.1-.1.2-.2.3-.2.3-.5.4-.7.3-.3-.1-.5-.5-.4-.8.1.2.3.2.6.2.2-.1.3-.3.3-.5s0-.4-.2-.6c0-.1 0-.3-.1-.4z"/><path class="st17" d="M41.6 28.9c-.3.3-.3.7-.2 1.1.1.3.2.7.2 1.1.1.3.1.6.5.7.1 0 .1.1.1.1-.3 0-.5 0-.8-.1-.2 0-.3-.1-.3-.3v-.4c0-.5-.1-.9-.3-1.2-.2-.3-.2-.6.1-.8.3-.1.5-.1.7-.2z"/><path class="st13" d="M38 28.1c.4.1.7.2 1.1.3h.4c-.1.2-.2.4-.4.6h-2c-.1 0-.1-.1-.2-.1.4-.3.7-.5 1.1-.8 0 .1 0 .1 0 0z"/><path class="st8" d="M29.1 17.7c-.1 0-.2 0-.3.1l-3.3 2.4c-.6.4-1.2.8-1.7 1.2-.1 0-.1.1-.2.2-.2.1-.3.2-.5.3-.1.1-.3.2-.5.1.5-.3 1-.7 1.5-1 1.5-1.1 3-2.2 4.5-3.2.2-.1.4-.2.6-.4.2.2.1.3-.1.3z"/><path class="st13" d="M36.4 36.1v-.2c0-.1 0-.1.1-.2 1 .1 2.1 0 3.1-.2l.3.6h-.1c-.4-.1-.8-.1-1.1 0-.8-.1-1.5-.1-2.3 0z"/><path class="st3" d="M35.5 15.9c.1 0 .2.1.3.1l-.1.1c-1.4 1-2.8 1.9-4.3 2.7-.1 0-.1 0-.2.1 0-.1 0-.1.2-.2 1.2-.8 2.4-1.5 3.6-2.3.1-.1.3-.2.4-.3V16h.1c-.1-.1 0-.1 0-.1z"/><path class="st18" d="M33.5 14c-.3.4-.6.7-.9 1.1-.6.7-1.3 1.4-1.9 2l-.8.8c0 .1-.1.1-.2.1l.2-.2c.8-.9 1.6-1.8 2.4-2.8.1-.1.2-.3.3-.4.1-.1.2-.1.3-.2.2-.2.5-.4.7-.6-.1.1-.1.2-.1.2z"/><path class="st20" d="M50.2 27.4c.5 0 1-.1 1.5-.1.9-.1 1.9-.2 2.8-.2h1.3c1 0 2 0 3.1.1.7 0 1.3.2 1.9.3h-.7c-.4 0-.9-.1-1.3-.1-1.3 0-2.5-.1-3.8 0-1.5 0-3 .2-4.5.3-.1-.3-.2-.3-.3-.3z"/><path class="st17" d="M35 25l.1-.1c.3.3.4.5.1.9-.2.2-.3.5-.5.7-.1.1-.1.2-.2.2-.2-.2-.3-.4-.4-.5-.2-.1-.4 0-.7 0-.1-.2.1-.4.1-.7.1-.1.2-.2.2-.3 0-.3 0-.7.1-1h.3c0 .6-.4 1.1-.2 1.8.1 0 .2 0 .3-.1h.1c.4.2.8 0 .9-.4-.1-.1-.2-.3-.2-.5z"/><path class="st11" d="M34.8 26.8l.9-1.2c.1-.2.4-.3.6-.3.5-.1.9-.2 1.4-.2-.1.1-.1.2-.2.2-.2 0-.4 0-.7.1-.6.1-1.2.3-1.5.9 0 .1-.1.1-.1.2l.1.1c.3-.2.7-.3 1-.5-.1.1-.1.2-.2.2-.3.3-.5.6-.8.9-.2-.2-.4-.3-.5-.4z"/><path class="st17" d="M41.9 28.2c0 .1-.1.2-.1.4-.5.1-1 .2-1.3.7-.4-.1-.7-.2-1-.3.1-.2.2-.3.2-.5h.8v.2l.6-.3c.3-.1.6-.2.8-.2z"/><path class="st4" d="M56.1 30.2c.1 0 .2-.1.3-.1.6.1 1.2.2 1.8.2.3 0 .6.1.9.1.4 0 .8 0 1.2.1.5 0 1.1.1 1.6 0 .7 0 1.5-.1 2.2-.1h.3c-.7.1-1.4.2-2.1.2h-2.1l-3-.3c-.4 0-.8-.1-1.1-.1z"/><path class="st18" d="M25.3 23.2c-.1.1-.2.3-.4.4-.7.4-1.5.7-2.2 1.1-.3.2-.7.3-1 .5-.2.1-.4.1-.7.2-.1 0-.1-.1-.2-.1.5-.2 1-.5 1.5-.7.1-.1.3-.1.4-.2h.2c.3-.1.6-.3.8-.4.5-.3 1-.6 1.6-.8-.1 0 0 0 0 0zm-3.2 1.6s0-.1 0 0c-.2 0-.4.1-.6.2v.1c.3-.2.5-.2.6-.3zm.5-.3c-.1 0-.2.1-.3.1v.1c.1-.1.2-.1.3-.2z"/><path class="st11" d="M33.2 28.2c0-.1.1-.2.1-.4.1 0 .2.1.3.1 0 .1-.1.2-.1.3-.1.5-.3 1-.4 1.5-.1.3-.2.5-.3.8 0 .1-.2.2-.3.3-.1-.1-.1-.2-.2-.3l.6-1.5c.1-.3.2-.6.3-.8z"/><path class="st18" d="M38.3 16.9c-.4 0-.7-.3-.9-.5-.7-.7-1.6-1.2-2.4-1.7l-.9-.6s0-.1-.1-.1l-.1-.1c0-.1 0-.1-.1-.2.2.1.4.3.6.4.5.4 1.1.8 1.7 1.1.2.1.4.2.5.3.1 0 .2.1.2.1.1.1.2.2.4.2.1.1.3.2.4.3.2.2.4.4.7.6.1.1 0 .2 0 .2z"/><path class="st16" d="M35.5 22.9c-.3-.3-.4-.5-.1-.8.3-.3.7-.6 1-.9.1.2.3.3.4.5-.2.1-.3.3-.5.4-.2.3-.5.5-.8.8z"/><path class="st20" d="M49.7 27.2c-.1 0-.2.1-.3.1h-3.3c.4 0 .8.1 1.3.1.8 0 1.7 0 2.5.1h.2c-.1 0-.1.1-.2.1-.8 0-1.6 0-2.4-.1-.6 0-1.2-.1-1.7-.1-1.1 0-2.1-.1-3.2-.1h-.2v-.1h.3c1 0 1.9 0 2.9.1h3.8c.1-.1.2-.1.3-.1z"/><path class="st4" d="M54.7 29.5c.7 0 1.4.1 2.1.1.4 0 .7 0 1.1.1.8.1 1.5.1 2.3.2.4 0 .7 0 1.1.1.8 0 1.5 0 2.3.1h.2-3.1c-1.7-.1-3.4-.2-5-.4h-.4c-.3-.1-.5-.2-.6-.2z"/><path class="st18" d="M35.5 22.9c.3-.3.6-.5.9-.8.2-.1.3-.3.5-.4.1.1.2.1.3.2-.3.5-.7.9-1.2 1.2-.1 0-.1.1-.2.2-.1-.1-.2-.3-.3-.4z"/><path class="st15" d="M34.3 25.2c-.1.1-.2.3-.3.4h-.1c0-.1.1-.3.1-.4.2-.6.3-1.1.3-1.7 0-.3.2-.4.3-.5l.3-.3.3.6c-.4.2-.6.5-.8.9-.1.3-.2.6-.2.8.1 0 .1.1.1.2z"/><path class="st12" d="M12 30.5l-.2.2c-.2-.4-.5-.6-.5-1 0-.2.1-.4.1-.5v.3c0 .2 0 .4.2.5.2-.5.4-.9.6-1.4-.1 0-.2-.1-.3-.1.2-.3.5-.3.9-.2.1.3-.1.6-.3.8-.1.2-.3.3-.4.5-.2.2-.2.4-.1.7v.2z"/><path class="st11" d="M35.1 36.4v.1c-.3-.1-.5-.1-.8-.3-.5-.2-1-.5-1.4-.7-.1-.1-.2-.1-.3-.2-.7-.4-1.5-.8-2.2-1.2v-.2c1.4.7 2.8 1.4 4.2 2.2.1.2.3.2.5.3z"/><path class="st8" d="M66.1 17.9c-.8.4-1.7.9-2.5 1.3-.1.1-.3.1-.5.2 0 0-.1 0-.1-.1.8-.4 1.6-.8 2.3-1.2.1 0 .2-.1.3-.1.2-.1.3-.2.5-.2-.2.1-.4.2-.6.2-.5.2-1 .4-1.5.5 0 0-.1 0-.1-.1.7-.3 1.5-.6 2.2-.8.1 0 .2 0 .2-.1.1.1.2.1.3.1l-.2.2c-.1 0-.2 0-.3.1z"/><path class="st15" d="M14.8 28.2c0-.3.1-.5.1-.8v-.1c.4-.1.9-.3 1.3-.4h.2c0 .2-.1.4-.1.5-.1 0-.2.1-.3.1-.4.1-.7.2-1 .5 0 .1-.1.2-.2.2z"/><path class="st8" d="M35.3 15.9v.1c-.1.1-.2.2-.4.3-1.2.8-2.4 1.5-3.6 2.3-.2.1-.2.1-.2.2-.1-.1-.2 0-.3.1l-1.2.6c-.1-.1-.1-.2 0-.3v.1h.1c.8-.5 1.6-.9 2.4-1.4l.1-.1c.1 0 .1-.1.2-.1 0 0 .1 0 .1-.1.1 0 .1-.1.2-.1s.1-.1.2-.1.1-.1.2-.1.1-.1.2-.1.1-.1.2-.1c.3-.2.5-.4.8-.5.4-.3.7-.5 1-.7z"/><path class="st16" d="M11.7 30.8c.1 0 .2.1.3.1.6.7 1.2 1.4 1.8 2 0 0 .1.1.1.2-.2.2-.3.2-.5 0-.3-.4-.6-.9-.9-1.3-.2-.3-.5-.5-.7-.8-.1 0-.1-.1-.1-.2 0 .1 0 0 0 0z"/><path class="st12" d="M34.3 25.2c0-.1-.1-.2 0-.2.1-.3.1-.6.2-.8.1-.4.4-.7.8-.9.2.1.3.3.5.5-.1.1-.1.2-.2.3v-.3c-.1 0-.2 0-.3.1-.3.3-.5.6-.8 1 .1 0 .2 0 .2.1-.1 0-.2.1-.4.2z"/><path class="st10" d="M26.3 18.3s0-.1.1-.1c1.8-1.6 3.7-2.9 5.8-4h.1l-.2.2c-1.7.9-3.2 2-4.7 3.2-.4.2-.8.5-1.1.7z"/><path class="st15" d="M26.4 21.8c0-.1-.1-.1-.1-.2v-.1c.2 0 .3-.2.4-.4l.1-.1s0-.1.1-.1l.1-.1.1-.1.1-.1.1-.1s0-.1.1-.1l.1-.1.1-.1s0-.1.1-.1l.1-.1.1-.1s0-.1.1-.1c.4-.5.8-1 1.3-1.4.1-.1.3-.2.5-.2L28.3 20c-.1.1-.1.2-.1.3-.1 0-.1.1-.2.1 0 0-.1 0-.1.1l-.1.1s0 .1-.1.1l-.1.1-.1.1-.1.1-.1.1-.1.1s0 .1-.1.1l-.1.1-.1.1c0 .1-.1.1-.1.2l-.1.1-.1.1c-.2-.2-.2-.2-.2-.1z"/><path class="st14" d="M13.3 24.5c-.1 0-.2.1-.2.1s-.1 0-.1.1l-.9.6c-.1.1-.2.1-.4.2 0-.1-.1-.1-.1-.1l.1-.1h.1c.2-.2.5-.4.7-.7v-.1l.1-.1h.1l.1-.1.1-.1h.1l.1-.1s.1 0 .1-.1c0 0 .1 0 .1-.1.4 0 .8.1 1.1-.1h.1c0 .1-.1.2-.1.2-.3.3-.7.4-1.1.5z"/><path class="st15" d="M12 30.5c0-.1 0-.2-.1-.2-.1-.3-.1-.5.1-.7.1-.2.3-.3.4-.5.2-.2.3-.5.3-.8.5.2.6.5.2.9-.1.1-.2.2-.3.2-.1 0-.2.1-.2.1-.3.2-.4.4-.2.8 0 .1-.1.1-.2.2z"/><path class="st13" d="M26.3 30.9c.1-.2.2-.5.3-.7.4.3.8.5 1.2.7-.3.2-.5.3-.8.5-.3-.2-.5-.4-.7-.5z"/><path class="st17" d="M35.4 30.1c.2-.1.2.1.2.2.1.7.3 1.4.4 2.1.1.6.3 1.2.4 1.8v.6c0 .1-.1.2-.2.2 0 0-.1-.1-.2-.1.2 0 .3-.2.2-.3-.1-.6-.2-1.2-.3-1.9-.1-.9-.3-1.8-.5-2.6z"/><path class="st2" d="M40.2 36.4v.1c-.1.1-.2.2-.4.2-1.2.1-2.4.1-3.6.1h-.1c0-.1 0-.1.1-.2 1.1 0 2.2-.1 3.2-.1.3 0 .6-.1.8-.1z"/><path class="st10" d="M14.4 24.2c0-.1.1-.2.1-.2v-.1c.4.1.8.3 1.1.6-.4.3-.9.4-1.4.4.1-.2.2-.5.2-.7zm2.2 2.8c.1-.2.1-.3.2-.5.1-.3.2-.5.2-.8 0-.2.1-.4.1-.6.1.2.3.4.4.6.1.2.1.4-.1.6-.2.1-.4.4-.4.7h-.4z"/><path class="st16" d="M12.2 30.7c.1 0 .1-.1.2-.1s.2.1.3.2c.4.4.8.7 1.2 1.1.7.6 1.3 1.2 2 1.8.1.1.2.1.3.2-.1.1-.2.1-.2.1-.4-.4-.8-.7-1.2-1.1-.2-.2-.5-.4-.7-.6l-1.2-1.2s-.1-.1-.2-.1c-.2 0-.4-.2-.5-.3z"/><path class="st9" d="M35.1 36.4c-.2-.1-.4-.1-.5-.2-1.4-.7-2.8-1.4-4.2-2.2 0-.1.1-.2.1-.2 1.1.8 2.4 1.4 3.6 2 .3.2.6.3 1 .4v.2z"/><path class="st17" d="M37.9 28.2c-.3.2-.6.5-.9.7h-.2c.1-.8-.1-1.1-.9-1.1 0-.1 0-.1.1-.2.1 0 .2.1.3.1.6.2 1.1.3 1.6.5z"/><path class="st11" d="M35.4 30.1c.2.9.4 1.8.5 2.6.1.6.2 1.2.3 1.9 0 .2 0 .3-.2.3v-.4c-.1-.6-.1-1.2-.2-1.8l-.3-1.5c-.1-.3-.1-.6-.2-.9 0-.1-.1-.2.1-.2z"/><path class="st3" d="M32.2 16.3c.5-.5 1-1.1 1.6-1.4.1 0 .1 0 .2-.1.1.1.2.1.4.2l-.2.2c-.7.4-1.3.8-2 1.1 0 .1 0 0 0 0z"/><path class="st16" d="M8.8 29.5c.1 0 .2.1.2.1 0 .8.1 1.7-.2 2.5-.1.2-.3.4-.4.6h-.2v-.1c.2-.1.3-.3.4-.5.2-.8.1-1.7.2-2.6zm2.3 3.2c-.1-.3-.2-.7-.4-1-.1-.4-.3-.7-.4-1.1v-.3c.4.7.5 1.4.8 2.1.3.7.5 1.4.8 2.1-.3.2-.3.2-.4 0 .1 0 .1 0 .2.1v-.1c-.2-.5-.3-1-.5-1.5 0-.3-.1-.3-.1-.3z"/><path class="st11" d="M22.3 28.9v-.2c1.2.7 2.4 1.4 3.5 2.3v.1c-.1-.1-.2-.1-.3-.2l-.9-.6c-.8-.4-1.6-.9-2.3-1.4z"/><path class="st3" d="M40.4 26.5l.3-.6c-.4-.1-.9-.2-1.3-.3.1-.1.2-.2.2-.3.3 0 .5.1.8.1.2 0 .3.1.4.2-.1.3-.3.7-.4 1 .1-.1.1-.1 0-.1z"/><path class="st9" d="M27 31.8l.1-.1 1.8 1.2c.4.2.8.5 1.2.7 0 .1-.1.2-.1.3l-3-2.1z"/><path class="st13" d="M30.3 34.2c.7.4 1.5.8 2.2 1.2.1.1.2.1.3.2h-.1l.3.3c-.1 0-.3-.1-.4-.1-.8-.4-1.6-.8-2.5-1.2.1-.2.2-.3.2-.4z"/><path class="st20" d="M10.9 26.2l-.6.9c-.3.1-.7.2-1 .4v-.6c.1 0 .2-.1.3-.1.4.1.7-.1 1-.4.1-.1.2-.1.3-.2z"/><path class="st11" d="M40.5 36.2l-.1-.1c.2-.3.3-.6.5-.9.3-.7.6-1.4.8-2.1.1-.3.2-.6.4-.9h.2c-.1.3-.2.5-.3.8l-.6 1.5c0 .1 0 .1-.1.2 0 0 0 .1-.1.1 0 .1-.1.1-.1.2s-.1.2-.1.3c-.2.3-.3.6-.5.9z"/><path class="st9" d="M27.4 31.5c.3.1.5.3.8.4.5.3 1 .7 1.5 1 .1.1.2.3.3.4-.9-.5-1.8-1.1-2.6-1.8-.1 0-.1 0 0 0z"/><path class="st3" d="M27.4 19.8c-.5.8-1.3 1.1-2.1 1.4h-.1c-.1 0-.1 0-.2-.1.8-.5 1.6-.9 2.4-1.3 0-.1 0-.1 0 0z"/><path class="st15" d="M8.8 26.8c-.3.3-.5.5-.6.9v.7s-.1.1-.2.1c.1-.7.2-1.4-.3-2H8c.3.1.6.1.8.3z"/><path class="st9" d="M42.1 32.2c-.1.3-.2.6-.4.9-.3.7-.5 1.4-.8 2.1-.1.3-.3.6-.5.9 0-.1-.1-.1-.1-.2.1-.2.3-.4.4-.6.4-.9.7-1.9 1.1-2.8v-.2c.1-.1.2-.1.3-.1z"/><path class="st12" d="M35.1 36.2c-.3-.1-.7-.3-1-.4-1.3-.6-2.5-1.2-3.6-2 0 0 0-.1.1-.1s.1.1.2.1c.1.1.2.1.2.2 1 .7 2 1.2 3.1 1.7.3.1.6.2.9.4h.1s.1 0 .1.1c-.1-.1-.1 0-.1 0z"/><path class="st13" d="M34.1 23.5v.4c-.3 0-.6.1-.9.1l-.3-.3c.2-.4.7-.5 1.2-.2z"/><path class="st17" d="M36 28.1c.2 0 .4 0 .5.3.1.2.1.3-.1.5s-.3.4-.5.6c-.1.1-.2.2-.4.3-.2.1-.3 0-.3-.2.1.1.3.1.4-.1.2-.2.3-.5.5-.7.1-.3.1-.5-.1-.7z"/><path class="st13" d="M36 27.6c0 .1 0 .1-.1.2-.4 0-.6.2-.8.5l-.3-.3c.1-.3.3-.5.4-.8.2.1.5.2.7.3.1 0 .1.1.1.1z"/><path class="st15" d="M31 16.2c0-.1 0-.1.1-.2.6-.7 1.1-1.3 1.7-2 .1-.1.2-.2.4-.3.1-.1.2-.1.3 0l-.9.9c-.1.1-.2.1-.3.2-.4.5-.8 1-1.3 1.4.1 0 0 0 0 0z"/><path class="st12" d="M41.8 32.2v.2c-.4.9-.7 1.9-1.1 2.8-.1.2-.3.4-.4.6l-.1-.1c.4-.4.5-.9.7-1.4l.9-2.1z"/><path class="st8" d="M37.5 13.5c0 .1.3 0 .2.2-.1 0-.1.1-.2.1-.3.3-.6.7-.9 1-.1 0-.2 0-.2-.1.1 0 .2-.1.2-.1.2-.2.4-.5.6-.7.1-.1.1-.2.2-.2-.1.1-.2.1-.2.2-.3.2-.6.5-.9.7v-.1c.3-.3.6-.5.9-.8-.2.1-.4.2-.7.3h-.2v-.1c.1-.1.3-.2.4-.3.1-.1.2-.1.4-.2l.1-.1c.1.2.2.2.3.2z"/><path class="st15" d="M22.7 24.3c-.1.1-.3.1-.4.2-.5.2-1 .5-1.5.7v-.1c.1-.1.2-.1.4-.2l3-1.5s.1 0 .1-.1c0 .1 0 .1-.1.2l-.1.1s-.1 0-.1.1c0 0-.1 0-.1.1 0 0-.1 0-.1.1 0 0-.1 0-.1.1 0 0-.1 0-.1.1-.1 0-.2.1-.2.1s-.1 0-.1.1c0 0-.1 0-.1.1 0 0-.1 0-.1.1l-.1.1c-.2-.3-.2-.3-.3-.3z"/><path class="st9" d="M25.8 31.1c-1.1-.9-2.3-1.6-3.5-2.3v-.1c.8.4 1.5.9 2.3 1.3.4.3.9.6 1.3.8 0 .1 0 .2-.1.3z"/><path class="st13" d="M22.3 28.9c.8.5 1.5.9 2.3 1.4 0 .1.1.2.1.3-.3-.2-.5-.3-.8-.5-.5-.3-1-.6-1.4-.9-.2 0-.3-.1-.2-.3z"/><path class="st15" d="M36 14.9c.8.5 1.5.9 2.3 1.4l.3.3c.1.1.1.2-.1.2-.3-.2-.5-.4-.8-.5-.1-.1-.3-.2-.4-.3-.1-.1-.2-.2-.4-.2-.1 0-.2-.1-.2-.1-.1-.2-.3-.3-.5-.3-.1-.2-.2-.3-.2-.4v-.1z"/><path class="st11" d="M27 31.8l3 2.1v.1c-.2-.1-.5-.3-.7-.4-.4-.3-.9-.6-1.3-.9-.1 0-.1-.1-.2-.1l-.1-.1-.9-.6c.1-.1.2-.1.2-.1z"/><path class="st3" d="M36.9 13.2c-.7.2-1.4.4-2.2.6-.1-.1-.1-.1-.3-.2.9-.4 1.7-.5 2.5-.4z"/><path class="st11" d="M35 25c0 .2.2.3.1.6-.2.4-.5.6-.9.4h-.1c.3-.3.5-.6.8-.9-.1 0 0 0 .1-.1z"/><path class="st13" d="M26.9 31.8l.9.6.1.1c.1 0 .1.1.2.1.1.1.1.2.2.3.3.3.6.6.9.8l-.9-.6c-.5-.4-1-.7-1.5-1.1 0-.1 0-.1.1-.2z"/><path class="st12" d="M25.9 30.8c-.4-.3-.8-.6-1.3-.8-.8-.5-1.5-.9-2.3-1.3v-.1c.1 0 .1 0 .2.1s.2.1.3.2c1 .6 2 1.2 3 1.9h.1c0-.1 0 0 0 0z"/><path class="st9" d="M36.3 36.5c0-.1 0-.1.1-.2 1 0 2.1-.1 3.1-.1.2 0 .4-.1.5-.1 0 .1.1.1.1.2-.6 0-1.1.1-1.7.1-.7 0-1.4 0-2.1.1z"/><path class="st10" d="M37.4 21.7c.2-.6.3-1.2.5-1.7.2-.7.3-1.5.5-2.2 0-.2.1-.4.1-.6v-.1s.1 0 .1-.1c-.1.3-.2.7-.3 1l-.3 1.2c0 .2-.1.5-.1.7 0 .1 0 .2-.1.3 0 .1 0 .3-.1.4 0 .1 0 .1-.1.2 0 .1 0 .1-.1.2 0 .1 0 .1-.1.2.2.2.1.4 0 .5.1 0 0 0 0 0z"/><path class="st11" d="M36.3 36.5c.7 0 1.5-.1 2.2-.1.6 0 1.1-.1 1.7-.1l.1.1c-.3 0-.5.1-.8.1-1.1.1-2.2.1-3.2.1-.1 0 0-.1 0-.1z"/><path class="st18" d="M8.8 29.5c-.1.9 0 1.8-.3 2.7-.1.2-.1.4-.4.5.2-.7.4-1.4.5-2.1 0-.1.1-.3-.1-.3 0-.2.1-.5.1-.7.1-.1.2-.1.2-.1z"/><path class="st11" d="M36 28.1c.2.2.2.5 0 .7-.1.2-.3.5-.5.7-.1.1-.2.2-.4.1 0-.3 0-.5.1-.8v.4h.1c.1-.2.3-.4.4-.6.1-.2.1-.3-.2-.3.2-.3.4-.2.5-.2z"/><path class="st8" d="M30.6 18.2c.9-.6 1.8-1.1 2.7-1.7 0 0 .1 0 .1.1-.9.6-1.8 1.1-2.7 1.7-.2.1-.3.2-.5.3v.1l-.1-.1c.1 0 .1-.1.2-.1.1-.2.2-.2.3-.3z"/><path class="st2" d="M29.1 33.8c-.3-.3-.6-.6-.9-.8-.1-.1-.1-.2-.2-.3.4.3.9.6 1.3.9.2.2.5.3.7.4 0 .1 0 .2-.1.4-.3-.2-.5-.3-.7-.5l-.1-.1c.1 0 .1 0 0 0z"/><path class="st14" d="M11.9 28.5c.1 0 .2.1.3.1-.2.5-.4.9-.6 1.4-.2-.1-.2-.3-.2-.5v-.3s0-.1.1-.1c.1-.1.2-.3.2-.4l.2-.2c-.1 0-.1 0 0 0-.1 0-.1 0 0 0z"/><path class="st5" d="M60.2 30.6h2.1c.7 0 1.4-.1 2.1-.2.3-.1.7-.2 1-.3h.2c0 .1-.1.2-.1.3h-.3c-.7.2-1.5.4-2.2.4-.1 0-.2 0-.3-.1h-2.2c-.1 0-.2 0-.3-.1z"/><path class="st3" d="M36.7 13.8c-.1.1-.3.2-.4.3v.1h.2c.2-.1.4-.2.7-.3-.3.3-.6.5-.9.8-.1.1-.3.1-.4 0l.3-.3h.1s0-.1.1-.1h-.2c-.1.1-.3.1-.5.2l-.2-.2c.4-.1.8-.3 1.1-.4 0-.1 0-.1.1-.1z"/><path class="st2" d="M33.1 35.9l-.3-.3h.1c.5.2.9.5 1.4.7.2.1.5.2.8.3-.1.2-.2.3-.5.2-.4-.2-.7-.4-1.1-.6-.1 0-.2-.1-.2-.1s-.1 0-.1-.1l-.1-.1z"/><path class="st3" d="M35.2 14.2c-.1-.1-.2-.1-.3-.2.1 0 .2-.1.2-.1.6-.1 1.1-.3 1.7-.4h.3c-.1 0-.1 0-.2.1l-1.5.6c-.1-.1-.2-.1-.2 0z"/><path class="st10" d="M31.1 16.2c.4-.4.8-.9 1.2-1.3.1-.1.2-.2.3-.2-.1.1-.2.3-.3.4-.8.9-1.6 1.8-2.4 2.8l-.2.2v.1h-.1c.2-.3.5-.6.7-.9.2-.4.5-.7.8-1.1z"/><path class="st11" d="M33.5 26.7c0-.2.1-.3.3-.3.2 0 .3.1.3.3 0 .3-.1.6-.3.8-.1.1-.2.1-.3.1-.1 0-.1-.1-.1-.2 0-.2.1-.5.1-.7v.4h.1c.1-.1.2-.3.1-.5 0 .1-.1.1-.2.1zm7.1-.2c.1-.3.3-.7.4-1 0-.1.1-.1.1-.2.2.4.3.7.3 1.2h-.8z"/><path class="st14" d="M20.4 25.4c-.1.3-.3.5-.7.6-.3 0-.7.1-1 .1h-.2V26c.3-.1.6-.1.9-.2.3-.1.6-.2.9-.4 0-.1 0 0 .1 0-.1 0-.1 0 0 0z"/><path class="st8" d="M27.3 19.7c-.8.5-1.5.9-2.3 1.4-.2.1-.3.2-.5.3-.1 0-.2 0-.4.1 1.1-.7 2.1-1.3 3.2-2l.1.1s0 .1-.1.1z"/><path class="st17" d="M32.6 29.1c-.2.4-.4.9-.6 1.4-.2 0-.4 0-.5.1 0 0 0-.1-.1-.1.4-.5.8-1 1.2-1.4 0-.1 0 0 0 0z"/><path class="st12" d="M8.5 30.2c.2.1.1.2.1.3-.1.7-.2 1.4-.5 2.1-.2-.1-.1-.2-.1-.4s.1-.4.1-.5c0-.1 0-.2.1-.2 0-.1 0-.2.1-.2 0-.1 0-.2.1-.3 0-.1 0-.2.1-.3 0-.1 0-.2.1-.2-.1-.1-.1-.2-.1-.3z"/><path class="st17" d="M36.1 36.3c-.2.6-.5 1.3-.7 1.9h-.1v-.1c.3-.9.5-1.8.8-2.6 0-.1.1-.1.2-.1v.2c-.1.1-.2.4-.2.7z"/><path class="st19" d="M11 28.2c.4 0 .7-.1 1.1-.1-.3.2-.5.5-.7.8-.3 0-.3-.4-.5-.5-.1-.1 0-.1.1-.2-.1 0-.1 0 0 0z"/><path class="st12" d="M37.5 25.3c.1-.1.1-.2.2-.2h.2c-.1.2-.2.4-.2.6-.1.3-.2.7-.4 1-.1.3-.3.5-.5.8.3-.6.5-1.2.6-1.9 0-.1.1-.2.1-.3zM40 36.1c-.2 0-.4.1-.5.1-1 .1-2.1.1-3.1.1v-.1c1 0 1.9-.1 2.9-.1.2 0 .4-.1.5-.1.1 0 .1 0 .2.1-.1-.1 0-.1 0 0z"/><path class="st17" d="M20.2 27.1c0 .3-.2.4-.4.5-.6.2-1.2.3-1.8.2.2 0 .4-.1.7-.1.5-.1 1-.2 1.5-.5v-.1z"/><path class="st10" d="M34.6 15.3l-3 1.8c-.1 0-.1.1-.2.1.2-.1.4-.3.5-.4 0 0 0-.1.1-.1h.2c.7-.4 1.3-.8 2-1.2.2-.2.3-.2.4-.2z"/><path class="st17" d="M35.3 27.2c-.1.3-.3.5-.4.8-.2-.2-.3-.9-.2-1.1l.1-.1c.1.1.3.2.5.4z"/><path class="st14" d="M34.7 24.9c-.1 0-.1 0-.2-.1.3-.4.5-.7.8-1 0-.1.1-.1.3-.1v.4c-.1.1-.2.3-.3.4-.3.1-.5.1-.6.4z"/><path class="st12" d="M9.3 26.9v.2c-.1.1-.3.1-.4.2-.1.1-.1.2 0 .3.1 0 .2 0 .3-.1 0 .2-.1.3-.1.5-.2-.1-.4-.1-.7-.2.1-.4.3-.8.9-.9zm30.5 1.5h-.2c.2-.5.4-.9.6-1.4l-.2-.2c.1 0 .2-.1.3-.1h.2v.1c0 .1 0 .1-.1.2-.2.5-.4 1-.6 1.4z"/><path class="st19" d="M8.6 26c.1.1.1.2.2.2-.5 0-1 0-1.5-.1.1 0 .1-.1.1-.1s.1 0 .1-.1c.4-.1.7 0 1.1.1-.1 0 0 0 0 0z"/><path class="st15" d="M14 32.4c.2.2.5.4.7.6.4.3.8.7 1.2 1.1-.1.2-.2.1-.3 0l-.8-.8c-.2-.3-.5-.5-.7-.8-.1 0-.1 0-.1-.1z"/><path class="st9" d="M41.3 34.5l.6-1.5c.1-.3.2-.5.3-.8h.2c-.3.7-.6 1.5-.9 2.2l-.1-.1v.2c0-.1 0 0-.1 0z"/><path class="st12" d="M27.3 31.6l2.7 1.8c.1 0 .1.1.2.1v.1c-.4-.2-.8-.4-1.2-.7l-1.8-1.2c0-.1 0-.1.1-.1z"/><path class="st9" d="M39.8 36c-.2 0-.4.1-.5.1-1 0-1.9.1-2.9.1v-.1c.8 0 1.5-.1 2.3-.1.4-.1.7-.1 1.1 0z"/><path class="st3" d="M36.6 14.9c.3-.3.6-.7.9-1 .1-.1.1-.1.2-.1-.1.5-.4.9-.8 1.4l-.3-.3z"/><path class="st20" d="M35.5 31.2c.1.5.3 1 .3 1.5.1.6.2 1.2.2 1.8v.2c-.1-.5-.2-1-.3-1.6 0-.6-.1-1.3-.2-1.9z"/><path class="st18" d="M31.1 16.2c-.3.3-.6.7-.9 1-.2.3-.5.6-.7.9-.1 0-.1 0-.2-.1.6-.6 1.1-1.2 1.6-1.8h.2c-.1 0 0 0 0 0z"/><path class="st16" d="M16.7 37.3l-.6-2.4c0-.1-.1-.3-.2-.4 0-.1 0-.1.1-.2.5 1 .7 2 .7 3z"/><path class="st2" d="M17.7 21l-.6.9c-.4.6-.9 1.2-1.3 1.9l-.2.2c0-.1 0-.1.1-.2.6-.9 1.3-1.9 1.9-2.8h.1c-.1 0 0 0 0 0z"/><path class="st11" d="M38 34.6c-.2-.5-.3-.9-.5-1.4-.2-.5-.4-1-.6-1.4v-.3c.2.4.3.7.5 1.1.2.5.4 1 .6 1.4.1.2.3.4 0 .6z"/><path class="st15" d="M37.8 20.7c0-.1 0-.3.1-.4 0-.1 0-.2.1-.3 0-.2.1-.5.1-.7h.1c-.1.5-.1 1.1-.2 1.6 0 .2-.1.5-.2.7-.2 0-.1-.2-.1-.3 0-.1 0-.1.1-.2 0-.1 0-.1.1-.2-.1-.1-.1-.1-.1-.2zm-26.9 7.5c0 .1 0 .2-.1.2-.3-.2-.6-.2-.9.2-.1-.1-.3-.1-.4-.2.1-.1.1-.2.2-.3.4 0 .8 0 1.2.1z"/><path class="st10" d="M27.6 20.5c0-.1.1-.2.1-.3l1.5-1.8h.2c-.5.5-1 1.1-1.4 1.6-.1.2-.3.3-.4.5z"/><path class="st1" d="M36 15l.2.2c-.6-.3-1.2-.7-1.7-1.1-.2-.2-.4-.3-.6-.4v-.1s-.1 0-.2-.1c.3-.1.4 0 .6.1.2.2.4.3.6.5h.1s.1 0 .1.1l.1.1c.1.3.4.5.8.7z"/><path class="st16" d="M13.9 33.6c-.5.6-1 1.2-1.5 1.7 0 0-.1 0-.1-.1.1-.1.2-.3.3-.4.3-.4.5-.7.8-1.1l.3-.3.2.2z"/><path class="st12" d="M10.2 29.9c-.1-.4-.1-.8 0-1.2 0 .2-.1.5.1.7 0 0 .1 0 .1-.1s.1-.3.1-.4c0-.1-.1-.2-.1-.2h.3c0 .4 0 .8-.2 1.1-.2 0-.3.1-.3.1z"/><path class="st2" d="M41.3 34.5s.1 0 .1-.1c-.2.6-.4 1.1-.7 1.7-.1.1-.2.2-.3.1.2-.3.4-.6.5-1 0-.1.1-.2.1-.3 0-.1.1-.1.1-.2 0 0 0-.1.1-.1s.1-.1.1-.1z"/><path class="st9" d="M41.1 25.3c0 .1-.1.1-.1.2-.1-.2-.2-.2-.4-.2-.3 0-.5-.1-.8-.1 0-.1.1-.2.1-.2.3 0 .6.1 1 .1.1 0 .2 0 .2.2z"/><path class="st2" d="M24.7 30.6c0-.1-.1-.2-.1-.3l.9.6c.1.1.2.1.3.2v.2c-.3 0-.5-.2-.6-.3l-.1-.1c-.1 0-.1-.1-.2-.1l-.1-.1s-.1 0-.1-.1z"/><path class="st11" d="M33.7 24.2c0 .3 0 .7-.1 1 0 .1-.1.2-.2.3 0-.4-.1-.8-.1-1.3.2.1.3.1.4 0z"/><path class="st7" d="M65.9 18.7s0-.1.1-.1c.1.2.1.1.2 0l.1-.1v-.1l.2-.2c.1-.1.1-.2.2-.3l.1-.1s0-.1.1-.1h.1c-.1.2-.1.4-.2.5-.2.3-.5.5-.8.8l-.1-.1c0-.1.1-.1.1-.2 0 .1-.1.1-.1 0z"/><path class="st15" d="M10.2 29.9c.1-.1.2-.1.2-.2.2-.4.3-.7.2-1.1.3.2.3.2.2.5-.1.3-.2.5-.4.8-.1.1-.1.1-.2 0z"/><path class="st12" d="M16.5 21.9h.1c-.4.6-.8 1.3-1.3 1.9h-.1c.5-.7.9-1.3 1.3-1.9z"/><path class="st20" d="M33.2 28.2c-.1.3-.1.5-.2.8l-.6 1.5c0-.1-.1-.1-.1-.2l.9-2.1z"/><path class="st11" d="M41.9 28.2c-.3.1-.6.1-.9.2.1-.1.2-.1.3-.2.2-.2.5-.3.6-.6h.1l.2-.2c0 .2 0 .5-.3.8.1-.1.1-.1 0 0z"/><path class="st3" d="M18.9 23.7s.1 0 .1.1c-.6.4-1.2.8-1.7 1.1 0 0 0-.1-.1-.1.6-.4 1.2-.8 1.7-1.1z"/><path class="st8" d="M34.3 15.3c-.7.4-1.3.8-2 1.2h-.2l.2-.2c.6-.3 1.2-.7 2-1-.1 0-.1 0 0 0z"/><path class="st18" d="M38.2 19.3h-.1l.3-1.2c.1-.4.2-.7.3-1 0 .1.1.2.1.3-.3.6-.4 1.2-.6 1.9z"/><path class="st10" d="M35.8 23.3l.2-.2c.5-.3.9-.8 1.2-1.2l.1.1c-.1.2-.2.4-.3.5-.2.1-.3.3-.5.4l-.1.1c-.2.1-.4.2-.6.4v-.1z"/><path class="st15" d="M8.5 27.9c.2 0 .4.1.6.1v.3c-.2 0-.3 0-.5.1-.1-.2-.2-.3-.1-.5z"/><path class="st1" d="M23.3 24c.1 0 .2-.1.2-.1s.1 0 .1-.1c0 0 .1 0 .1-.1 0 0 .1 0 .1-.1 0 0 .1 0 .1-.1 0 0 .1 0 .1-.1l.1-.1c.3-.1.6-.3 1-.4l.1.1c-.5.2-1 .5-1.5.7-.3.1-.6.3-.8.4h-.2s.1 0 .1-.1l.1-.1s.1 0 .1-.1c0 0 .1 0 .1-.1.1.4.1.3.2.3z"/><path class="st12" d="M8.9 29.2h-.3c-.1-.5 0-.8.4-.6.1.2 0 .4-.1.6z"/><path class="st15" d="M11.1 32.7l.1.1c.2.5.3 1 .5 1.5v.1c-.1 0-.1 0-.2-.1-.1-.5-.3-1.1-.4-1.6z"/><path class="st2" d="M24.2 14.9c-.4.4-.7.8-1.1 1.2-.1.1-.1.2-.2.2l-.2.2v-.1c.5-.5.9-1.1 1.4-1.6l.1.1z"/><path class="st9" d="M42.1 27.4l-.2.2c0-.1-.1-.3-.1-.3-.1-.1-.3-.2-.5-.3 0-.1.1-.1.1-.2.5 0 .7.2.7.6z"/><path class="st3" d="M37.3 14c-.2.2-.4.5-.6.7-.1.1-.2.1-.2.1 0-.1-.1-.1-.1-.2.2-.2.5-.4.9-.6-.1 0-.1 0 0 0z"/><path class="st19" d="M16.6 27h.4c0 .4-.1.5-.6.6 0-.3.1-.4.2-.6-.1 0-.1 0 0 0z"/><path class="st18" d="M19 23.2c-.7.5-1.3.9-2 1.4v-.1c.7-.4 1.3-.9 2-1.3z"/><path class="st16" d="M16.9 35.6c.3.5.6 1.1.8 1.6h-.1c-.2-.6-.6-1-.8-1.6 0 .1 0 .1.1 0z"/><path class="st18" d="M14 32.4v.1l-1.4-1.4c.1 0 .2 0 .2.1.5.4.8.8 1.2 1.2z"/><path class="st8" d="M35.3 14.1l1.5-.6.1.1c-.1.1-.2.1-.4.2-.4.1-.8.3-1.1.4l-.1-.1z"/><path class="st18" d="M25.1 23.1c-.3.1-.6.3-1 .4 0-.1 0-.1.1-.2l.6-.3c.1 0 .3-.1.3.1z"/><path class="st12" d="M16.5 23c.3-.5.7-.9 1-1.4h.1c-.4.4-.7.9-1.1 1.4z"/><path class="st16" d="M10.6 35.5c.3-.3.7-.6 1-.8 0 0 0 .1.1.1-.1.1-.2.2-.4.3-.2.2-.5.3-.7.4z"/><path class="st1" d="M18.4 29.7c.4-.1.8-.3 1.2-.4.1 0 .2-.1.4-.1-.4.4-.9.5-1.6.5.1.1.1 0 0 0z"/><path class="st16" d="M11.1 30c.1.2.3.5.4.7h-.1c-.2-.1-.4-.3-.5-.5 0-.1.1-.2.2-.2 0-.1 0-.1 0 0z"/><path class="st2" d="M18.7 24.1c.1.1.1.1 0 0-.4.3-.9.6-1.3.9 0 0 0-.1-.1-.1.5-.2 1-.5 1.4-.8z"/><path class="st11" d="M41.5 26.7c0 .1-.1.1-.1.2-.3 0-.6-.1-.9-.1v-.1h1z"/><path class="st15" d="M39.6 28.4c.1 0 .1 0 .2.1-.1.2-.2.3-.2.5h-.3c0-.2.1-.4.3-.6-.1 0 0 0 0 0z"/><path class="st2" d="M29.7 19.5l1.2-.6s.1 0 .1.1c-.4.2-.8.4-1.3.5 0 .1 0 0 0 0z"/><path class="st10" d="M32.5 14.7l.9-.9s0 .1.1.1c-.2.2-.5.4-.7.6-.1 0-.2.1-.3.2z"/><path class="st14" d="M10.3 28.6c0 .1.1.2.1.2 0 .1-.1.3-.1.4l-.1.1c-.2-.2-.1-.4-.1-.7.1.1.1 0 .2 0z"/><path class="st16" d="M7.5 33.7c.2-.3.4-.5.6-.8 0 .3-.2.6-.6.8z"/><path class="st13" d="M35.4 36.1c0-.2.1-.3.1-.5h.3c-.1.2-.1.4-.2.5h-.2z"/><path class="st18" d="M36 15c-.3-.2-.7-.4-1-.7.3.2.7.3 1 .5v.2z"/><path class="st10" d="M8.5 26c-.3-.1-.7-.2-1-.1.2-.2.4-.3.6-.2.2.1.3.2.4.3z"/><path class="st19" d="M9.1 28.3V28c.2 0 .3 0 .5.1-.1.1-.1.2-.2.3-.1 0-.2-.1-.3-.1z"/><path class="st20" d="M45.1 23.4v.1c-.4.2-.8.3-1.2.5h-.1c.5-.2.9-.4 1.3-.6z"/><path class="st17" d="M35.5 33.4c-.3-.3 0-.7-.1-1.1h.1v1.1c.1 0 0 0 0 0z"/><path class="st14" d="M35.3 15.9l-.9.6c0-.1 0-.1.1-.2.3-.2.5-.4.8-.6h.1c0 .1 0 .1-.1.2.1 0 0 0 0 0z"/><path class="st20" d="M51.2 28.6h-1.3c-.2 0-.4-.1-.6-.1.6 0 1.2 0 1.9.1z"/><path class="st15" d="M8.9 29.2c.1-.2.2-.4.2-.6.1 0 .2.1.2.1 0 .3-.1.5-.4.5z"/><path class="st9" d="M26.9 31.4c-.1 0-.1.1-.2.1l-.6-.3c0-.1.1-.1.1-.2.2.2.4.3.7.4z"/><path class="st17" d="M34.2 33.8c.4-.1.7-.2 1.1-.3v.1c-.3.1-.7.2-1.1.2z"/><path class="st12" d="M12.6 24.5v.1c-.2.2-.4.5-.7.7h-.1l.8-.8zm-3.8 2.3c-.2-.2-.5-.3-.7-.3h-.3c.4-.2.8 0 1.2.2l-.2.1z"/><path class="st15" d="M26.9 31.4c-.2-.1-.4-.3-.6-.4v-.2c.2.1.5.3.7.4-.1.1-.1.2-.1.2z"/><path class="st12" d="M14.6 23.8v.1h-.1c-.4.2-.8.1-1.1.1.3 0 .8-.1 1.2-.2z"/><path class="st11" d="M31.1 30.8c.4 0 .8-.1 1.2-.1v.1c-.4.1-.8 0-1.2 0zm8.7-5.9c0 .1-.1.2-.1.2-.2 0-.3-.1-.5-.1 0-.1 0-.1.1-.2.2.1.3.1.5.1z"/><path class="st18" d="M10.7 29.9c.1-.3.3-.5.4-.8 0 0 .1 0 .1.1-.1.2-.2.5-.5.7.1 0 .1 0 0 0z"/><path class="st11" d="M36.1 36.3c0-.3.1-.6.1-.8v-.2l.1.1c0 .2-.1.5-.2.9z"/><path class="st20" d="M57.1 30.5h-.3c-.3-.1-.6-.1-1-.2 0 0 .1 0 .1-.1.4.2.8.3 1.2.3z"/><path class="st9" d="M26.6 31.6s-.1.1-.1.2c-.1-.1-.2-.2-.4-.2-.1-.1-.1-.1 0-.2.2 0 .3.1.5.2z"/><path class="st20" d="M53.4 29.6c-.1 0-.2 0-.3.1-.3-.1-.5-.1-.8-.2v-.1c.4.1.7.1 1.1.2z"/><path class="st1" d="M54.8 23.6s0-.1 0 0c.3-.1.5-.2.8-.3 0 0 .1 0 .1.1-.3.1-.6.1-.9.2zm-17.1-7.4c.3.2.5.4.8.5 0 0-.1 0-.1.1-.2-.2-.4-.4-.7-.6z"/><path class="st11" d="M26.6 31.6c-.2-.1-.3-.2-.5-.3v-.1c.2.1.4.2.5.4.1 0 0 0 0 0z"/><path class="st18" d="M35.9 23.4c.2-.1.4-.2.6-.4-.2.2-.4.3-.6.4.1.1 0 0 0 0zm-23.7 7.3l.5.5c-.2-.2-.4-.3-.5-.5-.1.1 0 0 0 0z"/><path class="st11" d="M31.1 26.2c.1.1.1.2.2.3v.1c-.3 0-.3 0-.2-.4z"/><path class="st15" d="M6 28.8c.1.1.3.2.4.3-.3.1-.5 0-.4-.3z"/><path class="st17" d="M38 34.9c0 .1-.1.3-.1.4h-.1c0-.2 0-.3.2-.4z"/><path class="st18" d="M37 22.5c.1-.2.2-.4.3-.5 0 .3-.2.4-.3.5z"/><path class="st2" d="M35.4 36.1h.2c0 .1-.1.2-.1.3h-.2c.1-.1.1-.2.1-.3z"/><path class="st20" d="M42.9 25s.1.1 0 0c-.1.1-.3.2-.5.3v-.1c.1 0 .3-.1.5-.2z"/><path class="st1" d="M48.2 28.1c-.1 0-.2 0-.3.1-.2 0-.4-.1-.6-.1V28c.3 0 .6.1.9.1z"/><path class="st2" d="M23.2 22c.2-.1.3-.2.5-.3 0 0 .1 0 .1.1-.2 0-.4.1-.6.2z"/><path class="st18" d="M36.5 23c.2-.1.3-.3.5-.4-.1.1-.2.3-.5.4z"/><path class="st2" d="M24.5 21.4c.2-.1.3-.2.5-.3.1 0 .1 0 .2.1-.2.1-.4.1-.7.2z"/><path class="st18" d="M37.7 21.3c0 .1-.1.3.1.3-.1.1-.2.2-.3.1 0-.1.1-.3.2-.4z"/><path class="st10" d="M22.5 21.3c.2-.1.3-.2.5-.4-.2.2-.3.3-.5.4z"/><path class="st1" d="M65.8 19c0 .1 0 .1 0 0-.1.2-.3.3-.5.5l.5-.5c-.1 0 0 0 0 0z"/><path class="st8" d="M65.8 19s-.1 0 0 0c-.1 0-.2 0-.3.1.1-.1.2-.2.3-.4.1 0 .1.1.1.1 0 .2-.1.2-.1.2z"/><path class="st12" d="M34.7 24.9c.1-.2.3-.3.5-.3-.1.1-.3.2-.5.3z"/><path class="st20" d="M64 29.3c.1 0 .1 0 0 0 .2 0 .4 0 .6.1h-.1c-.2 0-.3 0-.5-.1z"/><path class="st17" d="M37.3 37.1c-.1.1-.1.3-.2.4H37c.1-.1.2-.2.3-.4z"/><path class="st1" d="M43.8 24s.1 0 0 0c-.2.1-.4.2-.7.3.3-.1.5-.2.7-.3z"/><path class="st13" d="M35.6 36.5v.2c-.2 0-.2-.1-.1-.3-.1.1 0 .1.1.1z"/><path class="st1" d="M66.7 17.9c-.1 0-.1.1 0 0-.2.1-.2.1-.3.1h-.1s0-.1.1-.1c0 0 .1 0 .1-.1.1 0 .1 0 .2.1z"/><path class="st18" d="M26.7 21.1c-.1.2-.1.4-.4.4.1-.1.2-.3.4-.4z"/><path class="st10" d="M21.6 21.9c.1-.1.3-.2.4-.3-.1.1-.2.2-.4.3z"/><path class="st20" d="M66.4 17.9s-.1 0 0 0c-.1 0-.1 0 0 0h-.3c.1 0 .2-.1.3-.1-.1 0-.1 0 0 .1-.1 0-.1 0 0 0z"/><path class="st10" d="M21.2 22.2c.1-.1.3-.2.4-.3-.1.1-.2.2-.4.3z"/><path class="st5" d="M56 30.3c-.1.1-.1.1 0 0h-.6v-.1c.2.1.4.1.6.1z"/><path class="st1" d="M46.3 24.1c.1 0 .2-.1.4-.1 0 0 .1 0 .1.1-.2 0-.4.1-.5 0-.1.1-.1 0-.1 0h.1z"/><path class="st8" d="M29.6 19.5s.1 0 .1.1c-.1.1-.3.1-.4.2v-.1c.1-.1.2-.1.3-.2z"/><path class="st1" d="M65.5 16.3c.1 0 .1 0 .2-.1.1.1.2.1.3.2v.1c-.2-.1-.4-.1-.5-.2z"/><path class="st18" d="M16.5 23c0 .1-.2.3-.3.4.1-.2.2-.3.3-.4z"/><path class="st1" d="M43.2 24.3c-.1.1-.3.2-.4.2v-.1c.1 0 .2 0 .4-.1z"/><path class="st10" d="M24.2 20c.1-.1.2-.2.3-.2-.1 0-.2.1-.3.2z"/><path class="st1" d="M64.5 29.5h.1c.1 0 .2.1.3.1v.1c-.2-.2-.3-.2-.4-.2z"/><path class="st18" d="M8 32.3c.1.1-.1.3.1.4v.1c-.2-.1-.2-.2-.1-.5zm13.6-9.6c.1-.1.2-.1.3-.2h.1c-.2 0-.3.1-.4.2z"/><path class="st1" d="M36.3 31.5h-.1c0-.1-.1-.2-.1-.3h.1c0 .1 0 .2.1.3z"/><path class="st2" d="M23.7 15.7l-.3.3.3-.3z"/><path class="st10" d="M23.7 20.4c.1-.1.2-.2.3-.2-.1 0-.2.1-.3.2zm.9-.7c.1-.1.2-.2.3-.2-.1 0-.2.1-.3.2z"/><path class="st4" d="M54.2 29.5c.2 0 .4 0 .6.1-.3-.1-.5-.1-.6-.1z"/><path class="st2" d="M19 23.2c0-.1.1-.2.2-.3l.1.1c-.1.1-.2.1-.3.2z"/><path class="st18" d="M30.6 18.2c-.1.1-.2.1-.3.2.1-.1.2-.2.3-.2z"/><path class="st14" d="M28 16.1c0 .2-.2.2-.3.2.1 0 .2-.1.3-.2z"/><path class="st11" d="M35.6 36.5h-.2v-.1h.2v.1z"/><path class="st10" d="M23.5 20.6c.1-.1.2-.1.2-.2l-.2.2zm-.5.3c.1-.1.2-.1.2-.2 0 .1-.1.2-.2.2z"/><path class="st1" d="M65.2 29.5c.1-.1.1-.1 0 0 .1 0 .2 0 .3.1v.1c-.1-.2-.2-.2-.3-.2z"/><path class="st10" d="M22.3 21.5c.1-.1.2-.1.2-.2 0 .1-.1.1-.2.2zm1.7-1.3c.1-.1.2-.1.2-.2 0 .1-.1.1-.2.2zm-1.9 1.4c.1-.1.2-.1.2-.2l-.2.2zm1.1-.8c.1-.1.2-.1.2-.2l-.2.2z"/><path class="st11" d="M31.4 26.7c.1 0 .1.1.2.1v.1c-.1 0-.2-.1-.2-.2 0 .1 0 .1 0 0z"/><path class="st3" d="M31 19s-.1 0-.1-.1c.1 0 .2-.2.3-.1l-.1.1c0 .1 0 .1-.1.1z"/><path class="st2" d="M32.2 16.4l-.2.2h-.1c.1-.1.2-.2.3-.2 0-.1 0 0 0 0zm-12.7 6.4c-.1 0-.1.1-.2.1v-.1c.1.1.1 0 .2 0z"/><path class="st20" d="M66 17.1h-.4c.2-.1.3 0 .4 0z"/><path class="st17" d="M35.1 38.6v-.3h.1c0 .1 0 .2-.1.3zm-.1.4v-.3h.1c-.1.2-.1.3-.1.3z"/><path class="st20" d="M57.7 30.6c-.1 0-.3 0-.4-.1.1 0 .2.1.4.1z"/><path class="st6" d="M20.5 18.3c0-.1.1-.1.1-.2l.1.1c-.1.1-.2.1-.2.1z"/><path class="st15" d="M27.3 19.7l.1-.1h.1c0 .1 0 .1-.2.1.1 0 .1 0 0 0z"/><path class="st14" d="M28.2 16c0 .2-.1.2-.2.2 0-.1.1-.2.2-.2z"/><path class="st10" d="M26 18.6l.2-.2c-.1.1-.2.1-.2.2z"/><path class="st12" d="M55.1 29.6h.4-.4z"/><path class="st4" d="M55.7 30.1c.1-.1.2 0 .2 0h-.2z"/><path class="st16" d="M17.8 37.7s0-.1-.1-.1c.1 0 .1 0 .1.1z"/><path class="st8" d="M46.2 24.1c0 .1 0 .1 0 0 0 .1-.1.1-.2.1.1 0 .1 0 .2-.1z"/><path class="st5" d="M57.2 18.9c0 .1-.1.1-.2.1.1 0 .2 0 .2-.1z"/><path class="st6" d="M20.3 18.6c-.1-.1 0-.2.1-.2 0 0 0 .1-.1.2z"/><path class="st11" d="M35.3 28.6c0-.1.1-.2.1-.3.1.2 0 .2-.1.3.1 0 .1 0 0 0z"/><path class="st6" d="M21.1 17.9c0-.1 0-.2.2-.2l-.2.2z"/><path class="st18" d="M8.3 31c0 .1 0 .2-.1.3.1-.1.1-.2.1-.3z"/><path class="st8" d="M35.4 15.9v-.1c0 .1.1.1.1.2 0-.1-.1-.1-.1-.1z"/><path class="st18" d="M8.4 30.7c0 .1 0 .2-.1.3.1-.1.1-.2.1-.3z"/><path class="st16" d="M10.6 35.6c-.1 0-.1.1-.2.1.1-.1.1-.1.2-.1z"/><path class="st18" d="M8.3 31.3c0 .1 0 .2-.1.2 0 0 .1-.1.1-.2z"/><path class="st10" d="M25.3 19.1l.1-.1s0 .1-.1.1zm.1-.1c.1 0 .1-.1.2-.1 0 0-.1.1-.2.1z"/><path class="st18" d="M8.2 31.5c0 .1 0 .2-.1.2.1 0 .1-.1.1-.2z"/><path class="st16" d="M12.2 35.6l-.1.1s0-.1.1-.1z"/><path class="st10" d="M25 19.4l.1-.1c-.1 0-.1.1-.1.1zm.7-.6l.1-.1-.1.1zm.1-.1c.1 0 .1-.1.2-.1-.1 0-.2.1-.2.1z"/><path class="st18" d="M8.5 30.5c0 .1 0 .2-.1.2 0-.1 0-.2.1-.2z"/><path class="st8" d="M32 16.6h.1s0 .1-.1.1v-.1z"/><path class="st5" d="M46.9 23.4c.1 0 .1 0 .2-.1-.1.1-.1.1-.2.1zm-.2.1c.1 0 .1 0 .2-.1-.1 0-.1.1-.2.1zm.4-.1c.1 0 .1 0 .2-.1-.1 0-.2 0-.2.1zm-.1.1c-.1 0-.1 0-.2.1 0 0 .1 0 .2-.1z"/><path class="st18" d="M8.5 30.2c0 .1 0 .1-.1.2.1 0 .1-.1.1-.2z"/><path class="st8" d="M45.7 24.2c.1 0 .1 0 .2-.1-.1.1-.1.1-.2.1z"/><path class="st5" d="M45.3 24c.1 0 .1 0 .2-.1-.1 0-.1 0-.2.1z"/><path class="st11" d="M36.8 31.3c0-.1 0-.1-.1-.2.1.1.1.1.1.2z"/><path class="st8" d="M45.9 24.1c.1 0 .1 0 .2-.1-.1.1-.1.1-.2.1z"/><path class="st2" d="M41.5 34.4v-.2.2z"/><path class="st11" d="M35.3 28.8c0-.1 0-.1.1-.2 0 .1-.1.2-.1.2z"/><path class="st8" d="M45.5 24.3c.1 0 .1 0 .2-.1 0 0-.1 0-.2.1z"/><path class="st5" d="M48 23.1c.1 0 .1 0 .2-.1-.1 0-.1.1-.2.1zm-.2 0c.1 0 .1 0 .2-.1 0 .1-.1.1-.2.1z"/><path class="st11" d="M51.9 31s-.1 0-.1-.1c0 .1 0 .1.1.1zm-15.2.1s0-.1-.1-.1c.1 0 .1.1.1.1zm15.3 0s-.1 0-.1-.1c0 0 .1 0 .1.1z"/><path class="st12" d="M13.3 24.1s-.1 0-.1.1c0-.1.1-.1.1-.1z"/><path class="st11" d="M36.9 31.4s0-.1-.1-.1c0 0 0 .1.1.1zm0 .1s0-.1-.1-.1c.1 0 .1.1.1.1z"/><path class="st18" d="M26.8 20.9s0 .1-.1.1c0 0 .1 0 .1-.1z"/><path class="st9" d="M61.9 20s-.1 0-.1.1c0-.1 0-.1.1-.1z"/><path class="st16" d="M10.2 35.8s.1 0 .1-.1c0 0 0 .1-.1.1z"/><path class="st13" d="M33.1 35.8s.1 0 .1.1c-.1 0-.1 0-.1-.1z"/><path class="st11" d="M62.2 36.5s0-.1-.1-.1c.1 0 .1.1.1.1z"/><path class="st16" d="M17.9 37.9zm0 0s0 .1.1.1c0 0-.1 0-.1-.1zm.1.1c0 .1 0 .1 0 0 0 .1 0 .1 0 0zm.1.3z"/><path class="st18" d="M27.3 20.3s0 .1-.1.1c.1 0 .1-.1.1-.1z"/><path class="st10" d="M21.1 22.3s.1 0 .1-.1c0 .1 0 .1-.1.1zm-.1.1c.1-.1.1-.1 0 0 .1-.1.1-.1 0 0z"/><path class="st17" d="M35 39c0 .1-.1.1 0 0-.1.1-.1.1 0 0zm-.1.3z"/><path class="st18" d="M27.1 20.6s0 .1-.1.1l.1-.1z"/><path class="st19" d="M7.6 26.8s0-.1-.1-.1c.1 0 .1.1.1.1z"/><path class="st8" d="M66.6 17.5c.1 0 .1 0 0 0z"/><path class="st5" d="M22.7 16.4c0 .1 0 .1 0 0zm34.8 2.4s-.1 0-.1.1l.1-.1z"/><path class="st18" d="M20.7 25.1s.1.1 0 0c0 .1 0 .1 0 0z"/><path class="st19" d="M7.8 28.1V28v.1z"/><path class="st5" d="M57.4 18.9s-.1 0-.1.1c0-.1 0-.1.1-.1zm-.4.2s-.1 0-.1.1c0-.1 0-.1.1-.1z"/><path class="st11" d="M35.5 28.3c.1-.1.1-.1.1 0h-.1c0 .1 0 0 0 0z"/><path class="st18" d="M34.9 14.3s-.1 0-.1-.1c0 .1.1.1.1.1z"/><path class="st12" d="M10.3 28.6l-.1.1s0-.1.1-.1z"/><path class="st8" d="M35.2 14.2h.1c0-.1-.1-.1-.1 0z"/><path class="st10" d="M25.1 19.3s.1 0 .1-.1l-.1.1z"/><path class="st12" d="M11.5 29s0 .1-.1.1c.1 0 .1 0 .1-.1zm1.3-4.7c0 .1-.1.1 0 0-.1.1 0 .1 0 0z"/><path class="st10" d="M26.1 18.4s.1 0 .1-.1c0 .1 0 .1-.1.1z"/><path class="st8" d="M37 13.5h.1v.1c0-.1 0-.1-.1-.1z"/><path class="st14" d="M21 13.2s0 .1-.1.1c.1 0 .1 0 .1-.1z"/><path class="st12" d="M13.1 24.2l-.1.1c0-.1 0-.1.1-.1z"/><path class="st14" d="M21.1 13.1s0 .1-.1.1c.1 0 .1 0 .1-.1z"/><path class="st18" d="M27.6 20s0 .1-.1.1c0 0 0-.1.1-.1z"/><path class="st13" d="M24.8 30.7l.1.1s-.1 0-.1-.1z"/><path class="st11" d="M51.6 30.9s-.1 0-.1-.1l.1.1zm.2 0s-.1 0-.1-.1c0 .1 0 .1.1.1z"/><path class="st18" d="M26.7 21c0 .1 0 .1 0 0 0 .1 0 .1 0 0zm.1-.1zm.1-.1s0 .1 0 0c0 .1 0 0 0 0zm.1 0c-.1 0-.1 0 0 0-.1 0-.1 0 0 0z"/><path class="st12" d="M16.6 21.8c-.1 0-.1 0 0 0z"/><path class="st18" d="M27 20.7zm9.4 2.3c.1 0 .1 0 0 0 .1 0 .1 0 0 0z"/><path class="st8" d="M31.1 19zm6.4-5.5z"/><path class="st12" d="M11.8 28.5c0 .1 0 .1 0 0 0 .1 0 .1 0 0z"/><path class="st15" d="M31 16.2s-.1 0 0 0c-.1 0 0 0 0 0z"/><path class="st10" d="M25.6 18.9c0-.1 0-.1 0 0 0-.1 0-.1 0 0z"/><path class="st12" d="M11.7 25.4zm8.7 0c-.1 0-.1 0 0 0-.1 0-.1 0 0 0z"/><path class="st5" d="M21.6 17.4c.1 0 .1-.1 0 0 .1-.1.1 0 0 0z"/><path class="st18" d="M34.8 14.3c0-.1-.1-.1 0 0-.1-.1 0-.1 0 0z"/><path class="st11" d="M42.1 29.1c0 .1 0 .1 0 0 0 .1 0 0 0 0z"/><path class="st13" d="M29.2 33.8c0 .1 0 .1 0 0 0 .1 0 .1 0 0z"/><path class="st16" d="M7.2 34zm0 0c-.1 0-.1.1 0 0-.1.1-.1 0 0 0z"/><path class="st10" d="M25.3 19.2c0-.1 0-.1 0 0 0-.1 0-.1 0 0z"/><path class="st8" d="M66.4 17.9c-.1 0-.1 0 0 0 0-.1 0-.1 0 0 0-.1 0 0 0 0z"/><path class="st10" d="M8.6 26s-.1 0 0 0c-.1 0 0 0 0 0z"/><path class="st20" d="M11.1 26s-.1.1 0 0c-.1.1 0 0 0 0z"/><path class="st10" d="M24.9 19.5c0-.1 0-.1 0 0 0-.1 0-.1 0 0z"/><path class="st16" d="M10.4 35.7zm1.6.1s0-.1 0 0c0-.1 0 0 0 0zm-1.8 0zm1.8 0z"/><path class="st12" d="M35.6 24.2c0-.1 0-.1 0 0 0-.1 0-.1 0 0z"/><path class="st18" d="M35 14.4c-.1 0-.1-.1 0 0-.1-.1-.1 0 0 0z"/><path class="st16" d="M11.8 36.1s0-.1 0 0c0-.1 0-.1 0 0 0-.1 0 0 0 0zm-.1 0s.1 0 0 0c.1 0 0 0 0 0zm0 0c0 .1 0 .1 0 0 0 .1 0 .1 0 0z"/><path class="st13" d="M25.1 30.9c0 .1 0 .1 0 0 0 .1 0 .1 0 0z"/><path class="st16" d="M11.7 36.2c-.1 0-.1 0 0 0-.1 0 0 0 0 0z"/><path class="st11" d="M62.1 36.3zm.1.1c-.1 0-.1-.1 0 0-.1-.1-.1 0 0 0z"/><path class="st18" d="M27.3 20.4c-.1 0-.1 0 0 0-.1 0-.1 0 0 0z"/><path class="st11" d="M62.3 36.6c0-.1-.1-.1 0 0-.1-.1 0-.1 0 0z"/><path class="st17" d="M41.8 28.9c-.1 0-.1 0 0 0-.1 0-.1 0 0 0z"/><path class="st12" d="M12.9 24.3s-.1 0 0 0c-.1 0 0 0 0 0z"/><path class="st17" d="M41.9 28.2c.1-.1.1-.1 0 0 .1-.1.1-.1 0 0z"/><path class="st10" d="M24.5 19.8c.1-.1.1-.1 0 0 .1-.1.1-.1 0 0z"/><path class="st12" d="M11.9 28.5c-.1 0-.1 0 0 0-.1 0-.1 0 0 0z"/><path class="st3" d="M22.8 16.2V16c1.5-2.5 3.1-5 4.7-7.5.8-1.3 1.8-2.5 2.8-3.7.1-.1.2-.2.3-.4l.1.1c-.4.6-.7 1.1-1.1 1.7l-.1.1-.1.1s0 .1-.1.1l-.1.1s0 .1-.1.1l-.1.1V7c-.2.1-.3.2-.3.5-.2 0-.2.1-.2.3-.2.1-.3.2-.3.5-.1 0-.2.1-.1.2-.1 0-.1.1-.2.1l-2.1 3.3c0 .1 0 .2-.1.2s-.2.1-.1.2l-.1.1s0 .1-.1.1l-.1.1c0 .1-.1.2-.1.2l-.1.1s0 .1-.1.1c-.5.7-.9 1.4-1.4 2-.1.4-.5.8-.8 1.2z"/><path class="st6" d="M24.2 14.9s0-.1-.1-.1c.1-.2.3-.4.4-.6l.1-.1s0-.1.1-.1l.1-.1.1-.1s0-.1.1-.1l.1-.1s0-.1.1-.1l.1-.1c0-.1.1-.1.1-.2l.1-.1s0-.1.1-.1l.1-.1c0-.1.1-.1.1-.2s.1-.1.1-.2.1-.1.1-.2.1-.1.1-.2c.1-.1.2-.3.2-.4.2-.3.4-.6.5-.8 0-.1.1-.1.1-.2s.1-.1.1-.2.1-.1.1-.2.1-.1.1-.2.1-.1.1-.2.1-.1.1-.2.1-.1.1-.2.1-.1.1-.2c.1-.2.2-.3.3-.5 0-.1.1-.1.1-.2 0 0 .1 0 .1-.1L29 7v-.2c.2-.3.4-.7.6-1 .1-.1.1-.2.2-.3l.1-.1s0-.1.1-.1c0 0 0-.1.1-.1l.1-.1.1-.1c.3-.5.7-1 1-1.5 0 0 .1 0 .1.1-.3.7-.6 1.3-1 2 0 .1-.1.2-.2.3 0 0 0 .1-.1.1 0 0 0 .1-.1.1 0 0 0 .1-.1.1l-.1.1s0 .1-.1.1c0 0 0 .1-.1.1-.1.1-.2.2-.2.3 0 0 0 .1-.1.1-.2 0-.2.1-.2.3.1.7 0 .8-.1.9l-.3.6c-.2 0-.2.1-.2.3-.2.1-.3.3-.3.5-.1 0-.2.1-.1.2-.1 0-.2.1-.1.2-.1 0-.1.1-.2.1-.5.8-1.1 1.5-1.6 2.3-.1.1-.1.2-.1.3 0 0 0 .1-.1.1l-.1.1s0 .1-.1.1l-.1.1c0 .1-.1.1-.1.2l-.1.1c-.4.5-.9 1-1.3 1.5.2-.1.1 0 0 .1z"/><path class="st8" d="M31.1 4c-.3.5-.7 1-1 1.5l-.1.1-.1.1s0 .1-.1.1c0 0 0 .1-.1.1l-.1.1c-.1.1-.1.2-.2.3-.2.3-.4.7-.6 1-.2.4-.5.7-.7 1.1l-.3.6c0 .1-.1.1-.1.2-.1.2-.2.3-.3.5 0 .1-.1.1-.1.2s-.1.1-.1.2-.1.1-.1.2-.1.1-.1.2-.1.1-.1.2-.1.1-.1.2-.1.1-.1.2-.1.1-.1.2c-.2.3-.4.6-.5.8-.1.1-.2.3-.2.4 0 .1-.1.1-.1.2s-.1.1-.1.2-.1.1-.1.2-.1.1-.1.2l-.1.1s0 .1-.1.1l-.1.1c0 .1-.1.1-.1.2l-.1.1s0 .1-.1.1l-.1.1s0 .1-.1.1l-.1.1-.1.1s0 .1-.1.1l-.1.1c-.1.2-.3.4-.4.6-.5.5-.9 1.1-1.4 1.6 0 0 0 .1-.1.1.1-.1.1-.2.2-.4v-.1c.3-.4.7-.7 1-1.1.5-.7 1-1.3 1.4-2 0 0 0-.1.1-.1l.1-.1c0-.1.1-.2.1-.2l.1-.1s0-.1.1-.1l.1-.1c0-.1.1-.1.1-.2 0 0 .1 0 .1-.1.7-1.1 1.5-2.3 2.2-3.4 0-.1.1-.1.1-.2s.1-.1.1-.2c.1-.2.2-.3.3-.5.1-.1.1-.2.2-.3.1-.4.2-.5.3-.7.1-.1.1-.2.2-.3l.1-.1s0-.1.1-.1l.1-.1s0-.1.1-.1l.1-.1.1-.1c.4-.6.7-1.1 1.1-1.7.1-.2.3-.4.4-.6h.1c-.2.1-.3.2-.3.2z"/><path class="st14" d="M26 7.1c-.1.1-.2.2-.3.4-.4.6-.8 1.3-1.2 1.9-.1.1-.1.2-.2.2.1-.2.1-.4.2-.5.6-.9 1.1-1.7 1.7-2.5.8-1.1 1.7-2.1 2.8-2.8.3-.2.6-.3.9-.5h.2c-.3.2-.6.3-.8.5-.4.3-.7.6-1.1.8-.1.1-.3.2-.4.3-.3.3-.6.7-1 1-.2.4-.5.8-.8 1.2zm-.4 4.1c0-.1 0-.2.1-.3.7-1.4 1.6-2.7 2.5-4 .2-.3.5-.6.7-.9.1-.1.2-.1.3-.2l-2.1 3c-.5.7-.9 1.5-1.3 2.2-.1.1-.2.1-.2.2zm-1.1.3c0-.1 0-.2.1-.3.5-1.1 1.1-2.2 1.8-3.1.3-.4.6-.7.8-1 0-.1.1-.1.2-.1-.1.2-.3.4-.4.6-.9 1.2-1.6 2.4-2.3 3.7-.1.1-.1.2-.2.2z"/><path class="st14" d="M26.4 7.4v-.2l1.2-1.5c.3-.4.7-.7 1-1 .1-.1.1-.1.2-.1-.6.7-1.2 1.4-1.8 2-.2.3-.4.6-.6.8zm-.2 5c0-.1.1-.2.1-.3.5-.8 1-1.5 1.6-2.3 0 0 .1-.1.2-.1 0 .1 0 .1-.1.2-.5.8-1 1.5-1.6 2.3 0 .1-.1.2-.2.2zm2.6-3.7l.3-.6.3-.3c-.3.3-.4.6-.6.9z"/><path class="st2" d="M22.8 16.2c-.1.1-.1.2-.2.4-.1 0-.2.1-.3.1.1-.2.3-.4.5-.5-.1 0 0 0 0 0zm8.3-12.4c-.1.2-.3.4-.4.6l-.1-.1.5-.5z"/><path class="st14" d="M24.9 9.8c0-.3.1-.5.4-.7-.1.2-.3.4-.4.7z"/><path class="st2" d="M31.1 4c0-.1 0-.1.1-.2h-.1c0-.2.2-.1.3-.1-.1.2-.2.3-.3.3.1.1 0 0 0 0z"/><path class="st14" d="M28.3 9.4c0-.2.1-.4.3-.5-.1.2-.2.4-.3.5zM27.4 7c0-.2.1-.3.3-.3l-.3.3zm.3-.4c0-.2 0-.3.2-.3 0 .1-.1.2-.2.3zm.6-.7c0-.2.1-.2.2-.2 0 .1-.1.2-.2.2zm-3 3.2c0-.2 0-.3.2-.3-.1.1-.1.2-.2.3zm.1 2.4c0-.2 0-.3.2-.3-.1.1-.1.2-.2.3zm3.9-3.7c0-.1 0-.3.2-.3-.1.1-.1.2-.2.3zM28.6 9c0-.1 0-.3.2-.3-.1.1-.1.2-.2.3z"/><path class="st2" d="M31 3.4c0-.1.1-.2.2-.2v.1s-.1.1-.2.1z"/><path class="st14" d="M29.5 7.4c0-.1 0-.3.2-.3 0 .1-.1.2-.2.3zm-4.8 2.7c.1-.1.1-.2.2-.3 0 .1-.1.2-.2.3z"/><path class="st10" d="M28.8 4.3c-.1.1-.2.1-.3.2.1-.1.2-.1.3-.2z"/><path class="st6" d="M31 3.6c.1 0 .1-.1.2-.1-.1.1-.1.1-.2.1 0 .1 0 0 0 0z"/><path class="st14" d="M26.1 7.8c0-.1 0-.2.1-.2 0 .1 0 .1-.1.2zm.1-.2c0-.1 0-.2.1-.2 0 .1 0 .1-.1.2z"/><path class="st10" d="M28.4 4.6c-.1 0-.1.1-.2.1v-.1h.2z"/><path class="st14" d="M25.6 8.5c0-.1 0-.2.1-.2 0 .1 0 .1-.1.2zm2.6 1.1c0-.1 0-.2.1-.2 0 .1-.1.1-.1.2zm-.1.2c0-.1 0-.2.1-.2-.1.1-.1.1-.1.2zM25.8 13c0-.1.1-.1.1-.2 0 0 0 .1-.1.2zm4.3-9.7c.1 0 .1 0 .2-.1-.1 0-.1.1-.2.1zm-5.4 6.9c0-.1.1-.1.1-.2-.1.1-.1.2-.1.2zm4.4-5.8l.1-.1-.1.1zm-.3.2l.1-.1s0 .1-.1.1zM26 12.7s0-.1.1-.1c0 0 0 .1-.1.1zm.2-.1s0-.1.1-.1c-.1 0-.1 0-.1.1zm3.1-6.9s0-.1.1-.1c-.1 0-.1.1-.1.1zm-4 6s0-.1.1-.1l-.1.1zm-.9 0s0-.1.1-.1l-.1.1zm3.7-5.5l.1-.1s-.1 0-.1.1zm1.9.3s0-.1.1-.1c-.1 0-.1.1-.1.1zm-.1.1s0-.1.1-.1c0 .1 0 .1-.1.1zm0 .2s0-.1.1-.1c-.1 0-.1 0-.1.1zm-5.5 4s0-.1.1-.1l-.1.1zm5.3-3.7s0-.1.1-.1c0 0-.1 0-.1.1zm-.2.4s0-.1.1-.1c-.1 0-.1 0-.1.1zm-3.5.4s0-.1.1-.1l-.1.1zm-.1.2s0-.1.1-.1c0 0-.1 0-.1.1zm-1.5 2.6s0-.1.1-.1c0 0 0 .1-.1.1zm1.2-2.1s0-.1.1-.1c-.1 0-.1.1-.1.1zm-.1.1s0-.1.1-.1c-.1 0-.1.1-.1.1zm-.9 1.7s0-.1.1-.1c0 0-.1 0-.1.1zm-.1.2s0-.1.1-.1c-.1 0-.1.1-.1.1zm.1-.1s0-.1.1-.1c-.1 0-.1 0-.1.1zm5.2-3.6s0-.1.1-.1l-.1.1zm-4 1.3s0-.1.1-.1l-.1.1zm3.4-3.9zm-.2.2c0-.1 0-.1 0 0 0-.1 0-.1 0 0zm-.1 0c.1 0 .1 0 0 0 .1 0 .1 0 0 0z"/><path class="st10" d="M28.5 4.5zm0 .1c-.1 0-.1 0 0 0-.1 0-.1 0 0 0z"/><path class="st14" d="M28.9 5.3s.1-.1 0 0c.1-.1 0 0 0 0zm0 0zm-.1.1s.1 0 0 0c.1 0 0 0 0 0zm0 .1c0-.1 0-.1 0 0 0-.1 0-.1 0 0zm-.1 0zm-.1.1c.1 0 .1-.1 0 0 .1-.1.1 0 0 0zm.7 0c.1 0 .1-.1 0 0 .1-.1.1 0 0 0zm-.7 0zm-.1.1s.1 0 0 0c.1 0 0 0 0 0zm-.3.3c.1 0 .1 0 0 0 .1 0 .1 0 0 0zm0 .1c0-.1 0-.1 0 0 0-.1 0-.1 0 0zm-.2.2s0-.1 0 0c0-.1 0 0 0 0zm1.8.5s.1 0 0 0c.1 0 0 0 0 0zM26 7.9zm-.1.2zm-.2.2c.1 0 .1 0 0 0 .1 0 .1 0 0 0z"/><path class="st3" d="M22.8 16.2s-.1 0 0 0c-.1-.1 0-.1 0 0z"/><path class="st14" d="M26 12.8s0-.1 0 0c0-.1 0 0 0 0zm.1-.2zm-.8-1s.1 0 0 0c.1 0 0 0 0 0zm.5 1.4z"/><path class="st20" d="M65.5 17.9c.2-.1.4-.2.6-.2-.2.1-.3.2-.5.2h-.1z"/><path class="st1" d="M66.3 17.4c-.1 0-.2 0-.2.1v-.1h.2z"/><path class="st14" d="M24 10.2c0 .1-.1.1-.1.2 0-.1.1-.2.1-.2zm.2-.5s0 .1-.1.1c.1 0 .1 0 .1-.1zm0 .1s0 .1-.1.1l.1-.1zm-.1.2s0 .1-.1.1l.1-.1zm-.1.1s0 .1-.1.1c.1 0 .1-.1.1-.1zm-.1.3s0 .1-.1.1l.1-.1zm.4-.7c-.1 0-.1 0 0 0-.1 0-.1 0 0 0z"/><path class="st10" d="M28.1 4.9c-.3.3-.5.6-.8.8l.8-.8c-.1 0-.1 0 0 0zm-4.9 7.2c.2-.4.4-.8.5-1.1-.1.3-.3.7-.5 1.1zm1.9-3.5l.6-.9-.6.9zm1.7-2.3c-.2.2-.3.4-.5.6.1-.2.3-.4.5-.6-.1 0 0 0 0 0zm.3-.4c-.1.1-.2.3-.3.4 0-.1.1-.2.1-.3 0-.1.1-.1.2-.1zM26 7.3v-.2c.1-.1.2-.2.3-.2-.1.1-.2.3-.3.4zm-1.5 2.3c.1-.1.2-.3.2-.4-.1.1-.1.3-.2.4zm-1.6 3.2c.1-.2.2-.4.2-.5 0 .2-.1.4-.2.5zm1.4-2.9c.1-.1.1-.2.2-.4-.1.2-.1.3-.2.4zm.4-.7c.1-.1.1-.2.2-.3-.1.1-.1.2-.2.3zm-2.2 4.3c.1-.1.1-.2.2-.3 0 .1-.1.2-.2.3zm3.3-6c.1-.1.1-.2.2-.2l-.2.2zm-1.7 2.7c.1-.1.1-.2.2-.3 0 .1-.1.2-.2.3zm-1.9 4c0-.1.1-.2.1-.3 0 .1 0 .2-.1.3zM25 8.8c0-.1.1-.2.1-.2-.1.1-.1.1-.1.2zm.7-1.1c0-.1.1-.1.1-.2 0 .1-.1.1-.1.2zm-3 5.5s0-.1.1-.1l-.1.1zm.1-.1s0-.1.1-.1c-.1 0-.1 0-.1.1zm0-.1s0-.1.1-.1l-.1.1zm.3-.7s0-.1.1-.1c0 0 0 .1-.1.1zm.1-.1s0-.1.1-.1c-.1 0-.1.1-.1.1zm.6-1.3s0-.1.1-.1l-.1.1zm0-.1s0-.1.1-.1c0 .1 0 .1-.1.1zm.3-.4s0-.1.1-.1c-.1 0-.1 0-.1.1zm-.1.2s0-.1.1-.1c-.1 0-.1.1-.1.1zm0-.1s0-.1.1-.1c0 0-.1 0-.1.1zm-1.8 3.8s0-.1.1-.1c-.1 0-.1.1-.1.1zm1.7-3.6s0-.1.1-.1c-.1 0-.1.1-.1.1zm-1.5 3.2s0-.1.1-.1c-.1 0-.1.1-.1.1zm0-.1s0-.1.1-.1c0 0-.1 0-.1.1zm.1-.1s0-.1.1-.1c-.1 0-.1 0-.1.1zm5.7-8.9zm0 0s-.1.1 0 0c-.1.1-.1.1 0 0-.1 0-.1 0 0 0zm-.1.1c-.1 0-.1 0 0 0-.1 0 0 0 0 0zm-.9.9c0-.1 0 0 0 0zm0 0c0 .1-.1.1 0 0-.1.1-.1.1 0 0-.1 0-.1 0 0 0zm-2.3 3.1s0-.1 0 0c0-.1 0 0 0 0z"/><path class="st1" d="M65.4 17.3c.2 0 .5 0 .7-.1v.1c-.2 0-.3 0-.5.1 0 0-.1-.1-.2-.1z"/><path class="st0" d="M66.4 18.2l-.2.2c-.1-.1.1-.1.2-.2z"/><path class="st8" d="M66.4 18.2l-.1-.1v-.2h.2c0 .2 0 .3-.1.3z"/><path class="st0" d="M66.2 18.6c-.1.1-.1.2-.2 0 .1 0 .1-.2.2 0zm0-.1s0 .1 0 0z"/><path class="st8" d="M66.2 18.5c0-.1 0-.1 0 0z"/><path class="st0" d="M66.4 18c0 .1 0 .1 0 0 0 .1 0 .1 0 0z"/><path class="st11" d="M37.4 25.6c-.2.6-.3 1.3-.6 1.9v.2c.1-.1.2-.2.4-.3.1-.1.3-.2.4-.3.3-.2.5-.4.7-.7.2-.3.5-.7.7-1 .2 0 .3 0 .5.1-.5.5-.8 1.1-1 1.7-.1.3-.3.6-.4.9H38c-.5-.2-1-.3-1.6-.5-.1 0-.2-.1-.3-.1v-.1c.1-.1.1-.3.2-.4.3-.4.4-.8.5-1.2.1 0 .4-.1.6-.2z"/><path class="st14" d="M15.7 25.1c.1 0 .3-.1.4-.1.3-.1.5 0 .7.3 0 .2-.1.3-.3.4-.3.1-.7.2-1 .3 0-.3.1-.6.2-.9-.1 0-.1 0 0 0z"/><path class="st20" d="M15.6 25.1c-.1.3-.1.5-.2.8h-1c-.1 0-.3-.1-.3-.2 0-.2.1-.3.2-.3.2 0 .4-.1.6-.1.4-.1.5-.1.7-.2zm6.1 2.7c.1.2 0 .3-.2.4-.1.1-.3.2-.5.2-.6 0-1.2.2-1.8.3-.1 0-.3.1-.4.1-.1 0-.2-.1-.3-.1.1-.1.1-.2.2-.2.4-.1.7-.2 1.1-.3.4-.1.8-.1 1.2-.2.3 0 .5-.1.7-.2z"/><path class="st10" d="M9.6 28.1c-.2 0-.3 0-.5-.1 0-.2.1-.3.1-.5v-.1c.3-.1.7-.2 1-.4-.1.4-.3.8-.6 1.1z"/><path class="st9" d="M34.9 36c-.3-.1-.6-.2-.9-.4-1.1-.5-2.1-1-3.1-1.7-.1-.1-.2-.1-.2-.2.2-.1.3 0 .5 0l1.8.9c.5.3 1.1.6 1.6.9.1.2.3.2.3.5zm.1 0c-.1 0-.1 0 0 0-.1 0-.1 0 0 0zm-9.1-5.4c-1-.6-2-1.2-3-1.9-.1-.1-.2-.1-.3-.2.5-.1.9.1 1.2.3.6.4 1.2.7 1.7 1.1.2.3.4.5.4.7z"/><path class="st14" d="M34.4 16.5c-.3.2-.5.4-.8.5v-.1c.3-.1.5-.4.8-.4z"/><path class="st0" d="M33.5 16.6s-.1 0-.1-.1l.6-.3v.1c-.3.2-.4.2-.5.3z"/><path class="st14" d="M32.6 17.7c-.1 0-.1.1-.2.1 0-.1.1-.1.2-.1zm.5-.3c-.1 0-.1.1-.2.1 0-.1.1-.1.2-.1z"/><path class="st0" d="M34.1 16.1c.1 0 .1 0 .2-.1-.1.2-.1.2-.2.1z"/><path class="st14" d="M32.9 17.5c-.1 0-.1.1-.2.1 0-.1.1-.1.2-.1zm.4-.2c-.1 0-.1.1-.2.1 0-.1 0-.1.2-.1zm.1-.1c-.1 0-.1.1-.2.1.1-.1.1-.2.2-.1zm.2-.1c-.1 0-.1.1-.2.1 0-.1.1-.2.2-.1zm-1.2.7l-.1.1v-.1h.1z"/><path class="st0" d="M34.3 16v-.2h.1c.1.2 0 .2-.1.2zm-.4.2l.1-.1v.1h-.1z"/><path class="st14" d="M32.7 17.7s-.1 0-.1.1l.1-.1z"/><path class="st0" d="M30.3 18.6zm4.3-2.9s.1 0 0 0h.1c0 .1 0 .1-.1 0 0 .1 0 .1 0 0 0 .1 0 .1 0 0zm-.1.1c.1 0 .1 0 0 0 .1-.1.1-.1.1 0h-.1zm0 .1c.1-.1.1 0 0 0 .1 0 0 0 0 0z"/><path class="st12" d="M13 24.7c.1 0 .1 0 0 0 .1 0 .1 0 0 0z"/><path class="st3" d="M39 25.4c-.2 0-.5-.1-.7-.1v-.1c.3 0 .6-.1.9-.1-.1.1-.2.2-.2.3z"/><path class="st20" d="M39 25.4c.1-.1.1-.2.2-.3h.1c.2 0 .3.1.5.1-.1.1-.2.2-.2.3-.3 0-.5 0-.6-.1z"/><path class="st1" d="M26.6 21.5c0-.1.1-.1.1-.2l.1-.1.1-.1s0-.1.1-.1l.1-.1.1-.1.1-.1.1-.1h.1v.1c-.3.3-.6.6-.9 1v-.1s0-.1.1-.1c-.2.1-.2.1-.1 0-.1.1-.1.1 0 0zm-.3.5c-.2.2-.4.5-.6.7h-.1c.3-.3.4-.6.7-.7 0-.1 0-.1 0 0z"/><path class="st10" d="M27.3 20.9c-.1 0-.1 0 0 0v-.1s0-.1.1-.1l.1-.1s.1 0 .1-.1c.1 0 .1-.1.2-.1-.3.2-.4.4-.5.5z"/><path class="st1" d="M26.3 21.9c.1 0 .1 0 0 0 .1 0 .1 0 0 0z"/><path class="st0" d="M32.4 24.8c.2.2.3.5.2.8-.1.2-.3.3-.5.3s-.4-.2-.4-.4V25s0-.1.1-.1c.2.1.4 0 .6-.1z"/><path class="st2" d="M32.4 24.8c-.2.1-.4.3-.6.2v-.1c-.1-.3 0-.4.2-.5.2-.1.4-.1.6.1-.1 0-.2.1-.2.3zm-.7.2v.5s-.1 0-.1.1c-.2 0-.3-.1-.2-.3 0-.2.1-.3.3-.3z"/><path class="st20" d="M42 29.1c.1 0 .1.1 0 0v.9c-.1.3 0 .6.2.9.1.2.2.4.2.7-.6-.8-.8-1.6-.6-2.5h.2z"/><path class="st0" d="M7.1 27c.2.2.2.4.2.6 0 .2-.1.4-.3.5-.2.1-.4 0-.6-.2 0-.1-.1-.2-.1-.3.1-.1.2-.3.1-.4l.1-.1c.2.1.4.2.6-.1z"/><path class="st20" d="M7.1 27c-.3-.2-.4 0-.6.1-.1-.2 0-.3.1-.5.2-.2.4-.2.6-.1 0 .2 0 .4-.1.5zm-.7.3c.1.2 0 .3-.1.4-.1 0-.2-.1-.2-.2s.1-.2.3-.2z"/><path class="st1" d="M6.5 27.1c.2 0 .4-.2.6-.1-.2.3-.4.2-.6.1z"/><path class="st0" d="M35.4 15.9s-.1 0 0 0c-.1 0 0 0 0 0z"/><path class="st20" d="M37.4 25.6c-.2.1-.4.2-.7.3-.1 0-.3.1-.4.1-.3.2-.7.3-1 .5l-.1-.1c0-.1 0-.1.1-.2.4-.6.9-.8 1.5-.9.2 0 .4 0 .7-.1 0 .2-.1.3-.1.4z"/><path class="st9" d="M36.3 26c.1 0 .3-.1.4-.1-.1.4-.2.8-.5 1.2-.1.1-.1.3-.2.4-.2-.1-.5-.2-.7-.3.3-.3.5-.6.8-.9.1-.1.2-.2.2-.3z"/><path class="st11" d="M39.8 28.4c.2-.5.4-.9.6-1.4.3.1.5.2.8.3-.2.4-.4.7-.6 1.1h-.8z"/><path class="st9" d="M40.6 28.4c.2-.4.4-.7.6-1.1h.1c.1.1.2.1.3.2.1.1.3.2.4.1-.1.3-.3.4-.6.6-.1.1-.2.1-.3.2l-.6.3c0-.1 0-.2.1-.3z"/><path class="st1" d="M22.1 24.8c-.2.1-.4.2-.5.2v-.1c.1 0 .3-.1.5-.1 0-.1 0 0 0 0zm.5-.3c-.1.1-.2.1-.3.2v-.1c.1-.1.2-.1.3-.1zm13.6-9.2c.2 0 .4.1.5.3-.1-.1-.3-.2-.5-.3zm1.1.6c.1.1.3.2.4.3-.1-.1-.2-.2-.4-.3zm-.3-.2c.1.1.2.2.4.2-.2-.1-.3-.1-.4-.2zm-.3-.1c.1 0 .2.1.2.1 0-.1-.1-.1-.2-.1z"/><path class="st18" d="M26.8 21.3l-.1.1c0-.1.1-.1.1-.1zm.1-.2s0 .1-.1.1c.1 0 .1 0 .1-.1zm-.5.6s0 .1-.1.1l.1-.1zm.9-1s0 .1-.1.1c0 0 .1 0 .1-.1zm-.2.2c0 .1 0 .1 0 0 0 .1 0 .1 0 0zm-.1.1zm0 .1s-.1 0 0 0c-.1 0 0 0 0 0zm-.1.1c-.1.1-.1.1 0 0-.1.1-.1.1 0 0zm.3-.4s0 .1 0 0c0 .1 0 .1 0 0 0 .1 0 0 0 0zm-.6.7c-.1.1-.1.1 0 0-.1.1-.1.1 0 0zm-.1.1zm.7-.7c-.1 0-.1 0 0 0-.1 0-.1 0 0 0zm.2-.3zm-.1.1z"/><path class="st14" d="M9.3 27.4c0 .1 0 .1 0 0-.1.1-.2.1-.4.1-.2-.1-.2-.2 0-.3.1-.1.3-.1.4-.2v.4z"/><path class="st9" d="M41.2 34.8c0 .1-.1.1-.1.2.1-.1.1-.2.1-.2zm.1-.3c0 .1 0 .1-.1.2.1-.1.1-.2.1-.2z"/><path class="st9" d="M41.3 34.7s0 .1-.1.1c0-.1.1-.1.1-.1z"/><path class="st2" d="M36.6 13.8c.1-.1.2-.1.4-.2h.1c-.1.1-.2.1-.4.2h-.1zm.7.2c-.1 0-.1 0 0 0 0-.1.1-.2.2-.3-.1.2-.2.2-.2.3z"/><path class="st0" d="M37 13.6h-.1l-.1-.1c.1 0 .1 0 .2-.1h.1c0 .1 0 .2-.1.2zm-.5.5z"/><path class="st18" d="M23.1 24.1s-.1 0-.1.1l.1-.1zm.2-.1s-.1 0-.1.1c0 0 0-.1.1-.1zm.3-.2s-.1 0-.1.1c0 0 .1 0 .1-.1z"/><path class="st18" d="M23.7 23.8s-.1 0-.1.1c0-.1.1-.1.1-.1zm.1-.1s-.1 0-.1.1c.1 0 .1-.1.1-.1zm.2 0s-.1 0-.1.1c0-.1 0-.1.1-.1zm.1-.1s-.1 0-.1.1c0-.1 0-.1.1-.1zm-1.1.5s-.1 0-.1.1c0 0 .1 0 .1-.1zm-.2.2s-.1 0-.1.1l.1-.1zm.1-.1zm1.2-.7c0 .1 0 .1 0 0 0 .1 0 .1 0 0z"/><path class="st2" d="M28 32.7c-.1 0-.1-.1-.2-.1.1 0 .2 0 .2.1zm-.1-.2c-.1 0-.1 0 0 0-.1 0-.1 0 0 0z"/><path class="st18" d="M38.1 19.3c0 .2-.1.5-.1.7 0-.2 0-.5.1-.7zm-.1.7c0 .1 0 .2-.1.3 0-.1.1-.2.1-.3zm-.3 1.1c0 .1 0 .1-.1.2.1-.1.1-.1.1-.2zm.1-.4c0 .1 0 .1-.1.2.1-.1.1-.1.1-.2zm0 .2c0 .1 0 .1-.1.2 0 0 .1-.1.1-.2z"/><path class="st20" d="M35.5 28.4c0-.1.1-.1 0 0 .4-.1.4 0 .3.2-.1.2-.3.4-.4.6h-.1v-.4c0-.1 0-.1.1-.2 0-.1.1-.1.1-.2z"/><path class="st8" d="M36.2 14.1s.1 0 0 0c.1 0 0 .1 0 0 0 .1 0 .1 0 0zm0 .1c0-.1 0-.1 0 0z"/><path class="st20" d="M33.5 26.7c.1 0 .1-.1.2-.1.2.2.1.4-.1.5h-.1c.1-.1.1-.2 0-.4zm7.7.6c-.3-.1-.6-.2-.8-.3 0-.1 0-.1.1-.2.3 0 .6.1.9.1-.1.2-.1.3-.2.4z"/><path class="st0" d="M66.6 18s0-.1 0 0c0-.1 0 0 0 0z"/><path class="st3" d="M41.2 27.3c0-.1.1-.2.1-.3.2.1.3.1.5.3.1.1.1.2.1.3h-.1c-.2.1-.3 0-.4-.1 0-.1-.1-.1-.2-.2z"/><path class="st14" d="M28.1 8.4c0 .1 0 .1-.1.2-.7 1.1-1.5 2.3-2.2 3.4l-.1.1c0-.1 0-.2.1-.2l2.1-3.3c.1-.1.2-.1.2-.2zM29 7c-.1.2-.2.3-.3.5 0-.2.1-.4.3-.5zm-.5.8c-.1.2-.2.3-.3.5 0-.3.1-.4.3-.5zm.2-.3c-.1.1-.1.2-.2.3 0-.2 0-.3.2-.3zm.5-.8c-.1.1-.1.2-.2.3 0-.1 0-.3.2-.3zm-3.4 5.4c0 .1-.1.1-.1.2-.1-.1-.1-.2.1-.2z"/><path class="st14" d="M28.2 8.3c0 .1-.1.1-.1.2 0-.2 0-.2.1-.2zm-2.7 4.3c0 .1-.1.2-.1.2 0-.1 0-.2.1-.2zm-.2.2s0 .1-.1.1c0 0 .1 0 .1-.1zm.3-.4s0 .1-.1.1c0 0 0-.1.1-.1zm0-.1l-.1.1.1-.1zm3.9-6.1l-.1.1.1-.1zm-.1.1s0 .1-.1.1c.1 0 .1 0 .1-.1zm-.1.2s0 .1-.1.1c.1 0 .1 0 .1-.1zm.2-.2c-.1 0-.1 0 0 0-.1 0-.1 0 0 0zm-.1.2c-.1 0-.1 0 0 0-.1 0-.1 0 0 0zm-.2.1c0 .1 0 .1 0 0 0 .1 0 .1 0 0zm-3.9 6.2zm.2-.3z"/><path class="st10" d="M28 9.1l.3-.6c.2-.4.5-.7.7-1.1v.2l-.9 1.5c0-.1-.1-.1-.1 0zm1-1.8c.2-.3.4-.7.6-1-.2.4-.4.7-.6 1zM26.1 12c.2-.3.4-.6.5-.8-.2.2-.3.5-.5.8zm1.5-2.3c.1-.2.2-.3.3-.5-.1.2-.2.3-.3.5zm-1.8 2.7c.1-.1.2-.3.2-.4 0 .1-.1.2-.2.4zm3.8-6.1c.1-.1.1-.2.2-.3 0 .1-.1.2-.2.3zm-4 6.4c0-.1.1-.1.1-.2 0 .1-.1.2-.1.2zm-.1.2c0-.1.1-.1.1-.2 0 .1-.1.1-.1.2zm1.1-1.8c0-.1.1-.1.1-.2 0 .1 0 .2-.1.2zm-1.2 2c0-.1.1-.1.1-.2 0 .1-.1.1-.1.2zm2.5-3.9c0-.1.1-.1.1-.2-.1.1-.1.2-.1.2zm-.5.7c0-.1.1-.1.1-.2 0 .1 0 .1-.1.2zm-.1.2c0-.1.1-.1.1-.2 0 0 0 .1-.1.2zm-.1.1c0-.1.1-.1.1-.2 0 .1 0 .2-.1.2zm-.2.4c0-.1.1-.1.1-.2 0 .1-.1.1-.1.2zm-1.3 1.9c0-.1.1-.1.1-.2 0 .1 0 .2-.1.2zm1.2-1.7c0-.1.1-.1.1-.2-.1.1-.1.1-.1.2zm.2-.4c0-.1.1-.1.1-.2 0 .1-.1.2-.1.2zm-.4.5c0-.1.1-.1.1-.2 0 .1 0 .2-.1.2zm-1.6 2.6c0-.1.1-.1.1-.2 0 .1-.1.1-.1.2zm-.5.7l.1-.1c-.1 0-.1 0-.1.1zM30 5.7l.1-.1-.1.1zm-.1.2s0-.1.1-.1l-.1.1zm0 .1s0-.1.1-.1c-.1 0-.1 0-.1.1zm-5.2 8.1s0-.1.1-.1c-.1 0-.1 0-.1.1zm.1-.3s0-.1.1-.1c0 .1 0 .1-.1.1zm.2-.1s0-.1.1-.1c-.1 0-.1 0-.1.1zm.3-.4s0-.1.1-.1c-.1 0-.1 0-.1.1zM30 5.7zm-.2.3s.1 0 0 0c.1 0 0 0 0 0zm-5.1 8c0-.1.1-.1 0 0 .1-.1 0-.1 0 0zm.3-.4c0-.1.1-.1 0 0 .1-.1 0-.1 0 0zm-.2.3z"/><path class="st2" d="M24.2 14.8v-.1.1z"/><path class="st10" d="M25.2 13.3zm.1-.2s.1 0 0 0c.1 0 0 0 0 0zm-.4.6z"/><path class="st5" d="M27.1 5.8c-.1.1-.2.1-.2.2.3-.3.6-.7 1-1 .1-.1.3-.2.4-.3v.1l-.1.1-.1.1-.1.1c-.2.1-.5.4-.9.7.1 0 .1 0 0 0zm-.8 1.1c-.1 0-.2.1-.3.2.3-.4.6-.7.9-1.1 0 .1-.1.2-.1.3-.2.2-.4.4-.5.6z"/></svg>