<svg xmlns="http://www.w3.org/2000/svg" viewBox="0 0 24 18"><path d="M21 2.7H.8c-.3 0-.5.2-.5.4v14.4c0 .3.2.5.5.5h20.3c.2 0 .4-.2.4-.5V3.1c0-.2-.2-.4-.5-.4.1 0 .1 0 0 0zm-.5 14.4H1.2v-1.6l6.3-6.3 6 5.6c.2.2.5.2.6 0l3.3-3.3 3.1 2.7v2.9zm0-4.2l-2.8-2.5c-.2-.2-.4-.1-.6 0l-3.3 3.3-6-5.6c-.1-.1-.4-.1-.6.1l-6 6V3.6h19.3v9.3z"/><path d="M23.3 0H3c-.2 0-.4.2-.5.4v1.8h.9V.9h19.4v13.5h-.9v.9h1.4c.2 0 .4-.2.4-.5V.4c0-.2-.1-.4-.4-.4z"/><path d="M14.3 5.8c-1.2 0-2.3 1-2.3 2.3s1 2.3 2.3 2.3 2.3-1 2.3-2.3c-.1-1.3-1.1-2.3-2.3-2.3zm0 3.6c-.7 0-1.4-.6-1.4-1.4 0-.7.6-1.3 1.4-1.3.7 0 1.4.6 1.4 1.3-.1.8-.7 1.4-1.4 1.4z"/></svg>