<svg xmlns="http://www.w3.org/2000/svg" width="18" height="18"><defs><linearGradient id="a" x1=".325" x2=".695" y1="1" gradientUnits="objectBoundingBox"><stop offset="0" stop-color="#fbda76"/><stop offset=".227" stop-color="#f57e24"/><stop offset=".443" stop-color="#d62976"/><stop offset=".66" stop-color="#962ebf"/><stop offset=".867" stop-color="#962ebf"/><stop offset="1" stop-color="#4f5bd5"/></linearGradient></defs><path fill="url(#a)" d="M0 0h18v18H0z"/><path fill="#fff" stroke="#fff" stroke-width=".3" d="M9.113 14.727h-.114c-.9 0-1.728-.021-2.534-.07a3.388 3.388 0 01-1.953-.739 3.134 3.134 0 01-1.053-1.7 7.535 7.535 0 01-.173-1.8c-.006-.418-.013-.913-.013-1.417s.007-1 .013-1.42a7.535 7.535 0 01.173-1.8 3.134 3.134 0 011.053-1.7 3.388 3.388 0 011.953-.739c.808-.049 1.637-.071 2.536-.071s1.728.021 2.534.07a3.388 3.388 0 011.953.74 3.134 3.134 0 011.053 1.7 7.535 7.535 0 01.173 1.8c.006.418.012.914.013 1.418 0 .5-.007 1-.013 1.418a7.531 7.531 0 01-.173 1.8 3.134 3.134 0 01-1.053 1.7 3.388 3.388 0 01-1.953.739 38.69 38.69 0 01-2.422.071zm-.114-.9c.883 0 1.694-.02 2.482-.068a2.465 2.465 0 001.442-.535 2.259 2.259 0 00.75-1.228 6.855 6.855 0 00.145-1.59c.006-.415.012-.907.013-1.406s-.007-.991-.013-1.406a6.856 6.856 0 00-.145-1.59 2.259 2.259 0 00-.75-1.233 2.466 2.466 0 00-1.442-.535c-.788-.048-1.599-.071-2.48-.065s-1.694.017-2.482.065a2.466 2.466 0 00-1.446.535 2.259 2.259 0 00-.752 1.228 6.856 6.856 0 00-.145 1.59c-.003.42-.003.912-.008 1.412s.007.99.013 1.405a6.855 6.855 0 00.145 1.59 2.259 2.259 0 00.747 1.228 2.466 2.466 0 001.442.539c.792.049 1.603.071 2.484.069zm-.026-2.031a2.8 2.8 0 112.8-2.8 2.8 2.8 0 01-2.8 2.8zm0-4.7a1.9 1.9 0 101.9 1.9 1.9 1.9 0 00-1.9-1.898zm3.11-1.79a.671.671 0 10.671.671.671.671 0 00-.666-.669zm0 0"/></svg>