<svg xmlns="http://www.w3.org/2000/svg" width="26" height="26"><path d="M25.485 21.684H.514A.514.514 0 010 21.17V4.814A.514.514 0 01.514 4.3h24.971a.514.514 0 01.514.514V21.17a.514.514 0 01-.514.514zM1.028 20.655h23.946V5.328H1.028z"/><path d="M12.999 16.018a.514.514 0 01-.335-.124L.179 5.205a.515.515 0 01.669-.782l12.151 10.4 12.151-10.4a.515.515 0 11.669.782L13.334 15.899a.514.514 0 01-.335.119z"/><path d="M.655 21.683a.514.514 0 01-.364-.878l8.755-8.756a.514.514 0 01.727.727l-8.754 8.756a.512.512 0 01-.364.151zm24.69.001a.513.513 0 01-.364-.151l-8.745-8.745a.514.514 0 11.727-.727l8.745 8.745a.514.514 0 01-.364.878z"/></svg>