<svg xmlns="http://www.w3.org/2000/svg" viewBox="0 0 60 60"><path fill="#928A77" d="M30 0l30 30-30 30L0 30 30 0z"/><path fill="#fff" d="M44.7 26.9h-.4c-1.5 0-3 0-4.4-.2 3.6-.6 5-1.8 5.5-2.2.4-.3.6-.8.6-1.3 0-.9-.7-1.6-1.6-1.6H44c-2 .3-4.1.5-6.1.5h-.5c-.8.1-3.6.4-5.5.5.2 0 .3-.1.5-.1h.1v-.1c.2-.5.2-1.1-.1-1.6l.3-.6c.1-.1 0-.3-.1-.3s-.2 0-.3.1l-.3.8.1.1c.2.4.2.8.1 1.2-.2.1-.4.1-.6.1.1-.2.2-.4.2-.6 0-.4-.3-.8-.6-1 0-.5-.4-.8-.9-.9h-.6c-.5 0-.8.4-.9.9-.4.2-.6.6-.6 1 0 .2.1.4.2.6-.2 0-.4 0-.6-.1-.1-.4-.1-.9.1-1.2l.1-.1-.5-.8c-.1-.1-.2-.2-.3-.1-.1.1-.1.2-.1.3l.3.6c-.2.5-.2 1.1-.1 1.6v.1h.1c.1.1.3.1.4.1-1.9-.2-4.5-.5-5.4-.5h-.5c-2.1 0-4.1-.2-6.1-.5h-.1c-.7-.2-1.6.4-1.7 1.2v.3c0 .5.2 1 .6 1.3.4.4 1.9 1.7 5.5 2.2-1.5.2-3 .2-4.4.2h-.1c-.9 0-1.6.7-1.6 1.5v.3c.1.5.4 1 .9 1.2.6.4 2.4 1.4 6.1 1.4h1.8c2.5-.3 4.8-1.7 6.2-3.8v-.1c0-.4 0-.8.1-1.2l.3.6v11.8c0 .6.1 1.1.3 1.6 0 .1.1.1.2.1s.1-.1.1-.2-.1-.2-.1-.3c0 .1.1.1.2.1 0 .1-.1.2-.1.3 0 .1 0 .2.1.2s.2 0 .2-.1c.2-.5.3-1.1.3-1.6v-12c.1-.3.3-.5.3-.8.1.5.2 1 .2 1.5v.1c1.4 2.1 3.7 3.5 6.2 3.8h1.8c3.6 0 5.5-1 6.1-1.4.5-.3.8-.7.9-1.2.1-.8-.5-1.6-1.4-1.7zm-22.8-4.3h.5c.9.1 4.3.5 6.2.6v.3c-.8-.1-5.7-.5-6.7-.6v-.3zm-7 1.5l-.1-.1c-.2-.2-.4-.5-.4-.8 0-.6.5-1.1 1.1-1.1h.2c1.9.3 3.9.5 5.9.6v.3h-1c-.3 0-.7 0-1 .1l-2.4-.2c-.2-.1-.4-.1-.6-.2-.1 0-.2 0-.2.1s0 .2.1.2c1.4.4 2.8.6 4.2.4h.6c-.2.2-.4.5-.6.9 0 .1 0 .2.1.2s.2 0 .2-.1c.2-.4.4-.7.8-1 .8.1 6.1.6 6.8.6v.3c-.9-.1-4.9-.4-5.2-.4-.1 0-.2.1-.2.2s.1.2.1.2c.3 0 3.8.3 5 .4-1.9 1.3-4.2 1.9-6.4 1.9h-.4c-4.4-.6-6.1-2.1-6.6-2.5zm3.6 4h.4c2.1 0 4.1-.3 6.1-.9.2.1.6.4.6.7s-.5.7-1.3 1c-.8.2-1.5.7-2.1 1.3-.1.1-.1.2 0 .2.1.1.2.1.2 0 .5-.5 1.2-.9 1.9-1.2 1-.4 1.5-.8 1.5-1.3 0-.4-.2-.7-.5-.9 1.1-.4 2.2-.9 3.2-1.5-.1.6-.2 1.1-.2 1.7-1.4 1.9-3.5 3.2-5.8 3.5h-.4c-5.2.3-7.2-1.4-7.2-1.4-.3-.2-.4-.5-.5-.8-.1-.6.3-1.2.9-1.2h1.1c1.8 0 3.5-.2 5.2-.4h.6c2.3 0 4.5-.7 6.4-2.1v.1c-.8.6-4.3 2.9-10.3 2.7-.1 0-.2.1-.2.2.2.3.3.3.4.3zm10.4-6.2v-.2c0-.1.1-.2.1-.2-.1.2-.1.3-.1.4zm.2.9s.1 0 0 0h.2c0 .3-.1.7-.3 1 .1-.5.1-.8.1-1zm.7 16.7c0-.2-.1-.4-.1-.6h.1v.6zm.1-11.8l.2.1v.1h-.4v-.1l.2-.1zm-.1-.3v-.6l.2-.1.2.1v.6h-.4zm.4.9v.7h-.4v-.7h.4zm0 1v.2l-.2-.1h-.2v-.2h.4zm-.3.5l.2.1v.6l-.1-.1h-.2v-.6h.1zm0 .9l.2.1v.2h-.4v-.1l.2-.2zm.3.6v.2l-.2-.1h-.2v-.2l.4.1zm-.3.4l.2.1v.7l-.1-.1h-.2v-.7h.1zm0 1.1l.2.1v.1h-.4v-.1l.2-.1zm.3.5v.2l-.2-.1h-.2v-.2l.4.1zm-.3.5l.2.1v.1h-.4v-.1l.2-.1zm.3.5v.7h-.4v-.7h.4zm0 1v.2l-.2-.1h-.2v-.1h.4zm-.3.4l.2.1v.2h-.4v-.1l.2-.2zm.3.6v.2l-.2-.1h-.2v-.2l.4.1zm-.3.4l.2.1v.6h-.3v-.6l.1-.1zm0 1l.2.1v.1h-.4v-.1l.2-.1zm.1.7c-.1 0-.2-.1-.2-.2h.4c-.1.2-.1.2-.2.2zm.1 1v-.5h.1c0 .2 0 .4-.1.5zm.1-13s0 .1 0 0h-.3l-.2.1-.3-.6h1.1c-.1.1-.2.3-.3.5zm.4-1h-1.3v-.2c0-.1 0-.1.1-.2l.7-.3.7.4c-.2.1-.2.2-.2.3zm.2-.8l-.7-.4h-.2l-.7.4-.1-.1v-.1c.3-.5.5-1.1.6-1.6h.6c0 .6.2 1.2.5 1.8 0-.1 0-.1 0 0zm0-.8c-.1-.3-.2-.7-.2-1.1h.2c.1.4.1.8 0 1.1zm-.1-1.7h-1.5V22c0-.3.1-.6.3-.8h1c.3.1.5.3.5.5.1.2-.1.4-.3.4zm.6 1.2c1.9-.1 5.4-.5 6.3-.6h.5v.2H38c-.6.1-5.5.5-6.6.6-.1-.1-.1-.1-.1-.2zm0 .6c1.1-.1 6.1-.5 6.7-.6h.2c.4.2.6.6.8 1 0 .1.1.1.2.1s.1-.1.1-.2c-.1-.3-.3-.6-.6-.8h.4c1.4.2 2.8.1 4.2-.4.1 0 .1-.1.1-.2s-.1-.1-.2-.1c-.2.1-.4.2-.6.2l-2.4.1c-.4 0-.7 0-1-.1h-.7v-.3c2 0 3.9-.2 5.9-.6.6-.1 1.2.2 1.3.8v.2c0 .3-.1.6-.4.8l-.1.1c-.4.4-2.2 1.9-6.6 2.3h-.4c-2.3 0-4.6-.7-6.5-1.9 1.3-.1 4.6-.4 4.9-.4.1 0 .2-.1.1-.2 0-.1-.1-.1-.2-.1-.3 0-4.2.3-5.2.4v-.1zm14.3 4.7c-.1.3-.2.6-.5.8 0 0-2 1.7-7.2 1.4h-.4c-2.4-.3-4.5-1.5-5.8-3.5 0-.6-.1-1.1-.2-1.7 1 .6 2.1 1.1 3.2 1.5-.3.2-.5.5-.5.9 0 .5.5.9 1.5 1.3.7.2 1.4.6 1.9 1.2.1.1.2.1.2 0 .1-.1.1-.2 0-.2-.6-.6-1.3-1-2-1.2-.8-.3-1.3-.7-1.3-1s.4-.6.6-.7c2 .6 4 .9 6.1.9h.4c.1 0 .2-.1.2-.2s-.1-.1-.2-.2c-6 .1-9.5-2.2-10.3-2.7 0-.1-.1-.1-.1-.2v-.1c1.9 1.4 4.2 2.2 6.5 2.2h.6c1.7.2 3.5.4 5.2.4h1.1c.7 0 1.1.5 1 1.1zm-1.3-6.1c0-.1.1-.1.2-.1 0 0 .6.3.7.8 0 .4-.2.7-.7 1.1-.1.1-.2 0-.2 0-.1-.1 0-.2 0-.2.4-.3.6-.6.5-.8 0-.3-.5-.5-.5-.5v-.3zm-.5 1.9c0-.1.1-.2.2-.2s.2.1.2.2-.1.2-.2.2-.2 0-.2-.2zm1.5 3.8c.1.3 0 .7-.4 1.1l-.1.1h-.1c-.1-.1-.1-.2 0-.2.2-.2.4-.5.3-.7-.1-.3-.6-.4-.8-.4-.1 0-.2-.1-.1-.2 0-.1.1-.2.2-.1.1-.2.8-.1 1 .4zm-.7 1.3c0 .1-.1.1-.1.1l-.1-.1.1-.1c0-.1.1 0 .1.1z"/></svg>