<svg xmlns="http://www.w3.org/2000/svg" viewBox="0 0 24 18"><path d="M23.3 14.9c-.3 0-.5.2-.5.5v1.8h-2.7V14c0-.3-.2-.5-.5-.5s-.5.2-.5.5v3.1h-2.7V14c0-.3-.2-.5-.5-.5s-.5.2-.5.5v3.1h-2.7V14c0-.3-.2-.5-.5-.5s-.5.2-.5.5v3.1H9.1V14c0-.3-.2-.5-.5-.5s-.4.3-.4.5v3.1c-.7 0-1.4-.2-2.1-.3V14c0-.3-.2-.5-.5-.5s-.4.3-.4.5v2.5c-.6-.2-1.2-.5-1.8-.8l-.1-.1v-2.8c0-.3-.2-.5-.5-.5s-.5.2-.5.5v2.1c-.7-.6-1.2-1.5-1.2-2.5V6.8l.2.2.1.1.1.1.1.1.1.1.1.1.2.2.1.1.1.1.2.1h.1l.1.1h.1l.1.1.1.1c1.9 1.1 4 1.6 6.1 1.6h13.7v1.8c0 .3.2.5.5.5s.5-.2.5-.5V9.4c0-.3-.2-.5-.5-.5h-9.6V4.3c-.1-1.3-.9-2.5-2.1-3.1C10.2.4 8.6 0 7 0 5.3 0 3.7.4 2.3 1.2 1.1 1.8.4 3 .3 4.3v8.1c.1 1.7 1.1 3.2 2.7 4 1.7 1 3.7 1.5 5.7 1.6h14.6c.3 0 .5-.2.5-.5v-2.2c-.1-.2-.3-.4-.5-.4zM2.8 2C4.1 1.3 5.5.9 7 .9s2.9.3 4.2 1.1c.9.4 1.5 1.3 1.6 2.3 0 1.1-1.7 2.1-3.7 2.1h-.4V3.1l-.2-.2-.1-.1c-.4-.1-.9-.2-1.4-.2-1.4 0-2.5.8-2.5 1.7 0 .9.5 1.8 1.4 2.2 1 .6 2.1.8 3.2.8s2.2-.3 3.2-.8c.2-.1.4-.2.5-.4V9H9.1c-2 0-3.9-.5-5.7-1.4-1.2-.6-2-1.7-2.2-3v-.2c.1-1.1.7-2 1.6-2.4zm5 4.3c-1.4-.3-2.4-1.1-2.4-2 0-.4.7-.8 1.6-.8.3 0 .5 0 .8.1v2.7z"/><path d="M23.3 13c-.3 0-.5.2-.5.5s.2.5.5.5.5-.2.5-.5c-.1-.3-.3-.5-.5-.5z"/></svg>