<svg xmlns="http://www.w3.org/2000/svg" viewBox="0 0 26 26"><path d="M25.6 2.6c-.3-.4-.8-.6-1.4-.6-.3 0-.6.1-.9.2l-22 8.4C.1 11 0 11.7 0 12.1s.2 1 1.4 1.4L6 14.8l2.5 7.1c.2.9 1 1.5 2 1.6.6 0 1.2-.3 1.6-.7l2.8-2.6 4.1 3.3c.4.3.9.5 1.4.5 1 0 1.8-.8 1.9-1.8l3.6-17.8c.2-.6.1-1.3-.3-1.8zM7.5 14.5l8.8-4.5-5.5 5.8c-.1.1-.2.2-.2.3l-1.1 4.3-2-5.9zm3.5 7.1l-.1.1 1-4 1.8 1.4-2.7 2.5zM24.4 4.1l-3.6 17.8c0 .2-.1.6-.4.6-.2 0-.4-.1-.5-.2l-4.6-3.7-2.8-2.2L20.4 8c.3-.3.3-.8 0-1.1-.2-.2-.6-.3-.9-.1l-13 6.7L1.9 12l22-8.4c.1-.1.3-.1.4-.1h.2c0 .2 0 .4-.1.6z"/></svg>