<svg xmlns="http://www.w3.org/2000/svg" viewBox="0 0 26 26"><path d="M13.6 8.4c0 .2.1.3.3.3.9-.1 1.6.6 1.7 1.5v.2c0 .2.2.3.3.3.2 0 .3-.2.3-.3.1-1.2-.8-2.3-2.1-2.3h-.2c-.2 0-.3.2-.3.3z"/><path d="M17.2 11c0 .2.1.3.3.3.2 0 .3-.1.3-.3.1-1.2-.4-2.4-1.1-3.2-.9-.9-2.1-1.4-3.3-1.5-.2 0-.3.1-.4.3 0 .2.1.3.3.4 1.1 0 2.1.5 2.9 1.2.7.8 1.1 1.8 1 2.8zm-.7 2.8c-.4-.3-1-.2-1.4.2l-.5.6c-.2.2-.4.3-.7.3-2.1-.6-3.7-2.2-4.3-4.3 0-.3.1-.5.3-.7l.6-.5c.4-.3.5-.9.2-1.4-.5-.8-1-1.6-1.7-2.3-.2-.3-.7-.4-1.1-.2-.5.3-.9.6-1.3 1-.4.5-.6 1.1-.4 1.7 1 2.9 2.7 5.4 5 7.3 1.6 1.2 3.3 2.2 5.2 2.9.6.2 1.2 0 1.6-.4.4-.4.7-.8 1-1.2.2-.4.2-.9-.2-1.2-.7-.7-1.5-1.3-2.3-1.8z"/><path d="M12.8 4.7c-.2 0-.3.1-.3.3s.1.3.3.3c1.6 0 3.2.6 4.4 1.7 1.2 1.3 1.8 3 1.8 4.7 0 .2.1.3.3.3.2 0 .3-.1.3-.3.1-1.9-.6-3.8-2-5.2-1.2-1.2-3-1.9-4.8-1.8z"/><path d="M13.5 0S6.6-.4 3.3 2.7C1.4 4.6.8 7.3.7 10.7s-.2 9.7 5.9 11.4v2.6s0 1.1.7 1.3c.8.3 1.3-.5 2.1-1.4.4-.5 1.1-1.2 1.5-1.7 2.6.2 5.2 0 7.7-.6.8-.3 5.6-.9 6.4-7.2.8-6.5-.4-10.6-2.5-12.5-.6-.7-3.2-2.6-9-2.6zm9.7 14.6c-.7 5.3-4.5 5.6-5.2 5.8-2.2.5-4.4.7-6.7.6 0 0-2.6 3.2-3.5 4-.1.1-.2.2-.4.2-.1 0-.2-.2-.2-.4v-4.4C2 19 2.3 13.6 2.4 10.8S3.1 5.6 4.7 4c2.8-2.6 8.7-2.2 8.7-2.2 4.9 0 7.3 1.5 7.8 2 1.8 1.6 2.7 5.3 2 10.8z"/></svg>