<svg xmlns="http://www.w3.org/2000/svg" viewBox="0 0 26 26"><path d="M14.4 19.6c4.4 1 5.9-2.7 5.1-4.1-.3-.6-3.1-1.6-3.2-1.7-1.2-.4-1.6.4-2.5 1.4-1.6-.6-2.9-1.8-3.7-3.2.1-.1.1-.2.2-.2.7-.5.9-1.4.6-2.2-.3-.6-.6-1.2-.8-1.8-.3-1.2-.7-1.6-2.2-1.6-1.6 0-2.8 2.1-2.8 3.8.1 3.9 5.3 8.6 9.3 9.6zM7.9 7.9h.6c.3.8.6 1.6 1 2.3-.1.4-1.5 1.3-.9 2.4 1.1 1.9 2.7 3.3 4.7 4.1 1.3.6 1.7-.5 2.5-1.4.4.2 1.7.7 2.2 1-.1 1.1-1.1 2.2-3.3 1.6-3.8-.9-8-5.1-8-7.9.1-1 .8-2.1 1.2-2.1z"/><path d="M.1 25c-.1.4.1.9.6 1h.2c.2 0-.1 0 6.3-1.6 1.8.9 3.8 1.4 5.9 1.4 11.4 0 17-13.9 9.1-22C11.5-6.6-5.3 6.3 1.8 19.1L.1 25zM21 4.8c.2.3 5.5 5.2 2.6 12.4-1.7 4.4-6.1 7.2-10.8 6.9-3.9-.2-4.9-1.6-5.6-1.4L2.1 24l1.3-4.9c.1-.2 0-.4-.1-.6C-3.1 7.4 11.5-4.1 21 4.8z"/></svg>