<svg xmlns="http://www.w3.org/2000/svg" viewBox="0 0 20 20"><path d="M1 14.1c.2.1.3.1.5.2l-.3.4c-.1.1-.1.2-.1.3l-.4 2.6c0 .3.2.6.5.7.1 0 .3 0 .4-.1L3.8 17c.5.8 1.5 1.2 2.4.7.1-.1.2-.1.3-.2.7.6 1.8.6 2.5-.1.3-.3.4-.7.4-1.2V16c1.1.5 2.3.8 3.5.8 1.2 0 2.5-.3 3.6-.8v1.4c0 .3.3.6.6.6.1 0 .2 0 .3-.1l2.3-1.2c.2-.1.3-.3.3-.5V9c0-.3-.3-.6-.6-.6h-4l-4.1-2 1.6-2.2c.2-.3.1-.6-.1-.8L10.7 2c-.3-.2-.6-.1-.8.1l-2.1 3c-.4-.2-.9-.3-1.4-.1L4.2 6c-.3.1-.6.3-.8.6l-3.2 5c-.4.9-.1 2 .8 2.5-.1 0 0 0 0 0zm1 2.4l.2-1.3.5-.7c.3.2.6.5.9.7l-.5.6-1.1.7zm3.3.1c-.3 0-.6-.3-.6-.6v-.3l.2-.3h1v.6c0 .4-.3.6-.6.6zm2.3 0c-.3 0-.6-.2-.6-.6v-.6h1.2v.6c0 .4-.3.6-.6.6zm11.2-.9l-1.2.6V9.6h1.2v6.1zM15 9.5c.1 0 .2.1.3.1h1.3v4.9c-1.1.6-2.3.9-3.6 1-1.4 0-2.7-.4-3.8-1.1-.1 0-.2-.1-.3-.1H4.7c-.6 0-1.1-.4-1.2-1V13c.1-.6.6-1.1 1.2-1.1h3.6c1.2 0 2.4-.5 3.2-1.3.2-.2.2-.6 0-.8s-.6-.2-.8 0c-.6.6-1.5 1-2.4 1h-.1l2.4-3.4L15 9.5zM9.2 5.2l1 .7-3.4 4.9H5.3l3.9-5.6zm1.3-1.9l1 .7-.7 1-1-.7.7-1zm-9.3 9l3.2-5 .3-.3 2.2-1h.3l-3.4 4.9c-.7.3-1.3 1-1.4 1.8-.2.3-.6.4-.9.3-.3-.1-.4-.4-.3-.7z"/></svg>