<svg xmlns="http://www.w3.org/2000/svg" width="205" height="25" viewBox="0 0 205 25">
  <g>
    <path d="M773.053 567.71h2.773l6.214-18.687 6.916 18.688h2.563l8-23.273h2.809V543.4h-8v1.042h3.651l-6.53 19.313-7.372-20.355h-4.108l1.3 3.508-5.582 16.916-7.513-19.382h3.16V543.4h-10.885v1.042h3.546z" transform="translate(4 -21.377) translate(-764.449 -522.018)"/>
    <path d="M1062.9 567.71h6.565v-1.042h-2.844l3.23-7.711h10.708l3.475 7.711h-3.546v1.042h10.533v-1.042h-2.949l-10.357-23.268h-4.389l.983 1.876-9.268 21.4h-2.141zm7.583-10.247l4.564-10.768 4.845 10.768z" transform="translate(4 -21.377) translate(-1024.981 -522.018)"/>
    <path d="M1302.025 567.71h7.583v-1.042h-3.019v-21.779h.141l17.238 22.821h4.7l-18.358-24.31h-8.286v1.042h2.914v22.23h-2.914z" transform="translate(4 -21.377) translate(-1230.964 -522.018)"/>
    <path d="M1410.773 567.71h3.3l.105-23.273h2.738V543.4h-7.408v1.042h2.914l-.035 19.139-15.271-20.181h-4.916z" transform="translate(4 -21.377) translate(-1308.642 -522.018)"/>
    <path d="M1609.288 567.71h6.565v-1.042h-2.844l3.23-7.711h10.708l3.475 7.711h-3.546v1.042h10.532v-1.042h-2.949L1624.1 543.4h-4.389l.983 1.876-9.268 21.4h-2.142zm7.583-10.247l4.564-10.768 4.845 10.768z" transform="translate(4 -21.377) translate(-1495.641 -522.018)"/>
    <path d="M1935.8 567.71h6.565v-1.042h-2.844l3.23-7.711h10.708l3.476 7.711h-3.546v1.042h10.532v-1.042h-2.949l-10.356-23.268h-4.389l.983 1.876-9.269 21.4h-2.141zm7.583-10.247l4.564-10.768 4.845 10.768z" transform="translate(4 -21.377) translate(-1776.9 -522.018)"/>
    <path fill-rule="evenodd" d="M2202.006 686.247a2.753 2.753 0 1 1-2.8 2.753 2.775 2.775 0 0 1 2.8-2.753z" transform="translate(4 -21.377) translate(-2003.802 -645.375)"/>
  </g>
</svg>
