<svg xmlns="http://www.w3.org/2000/svg" width="205.001" height="25.001" viewBox="0 0 205.001 25.001">
  <g>
    <path d="M0 0H41.596V1.507H0z" transform="translate(133.675 14.358)"/>
    <path d="M210.66 285.394h2.795l6.262-18.943 6.969 18.943h2.582l8.066-23.591h2.83v-1.056H232.1v1.053h3.679l-6.579 19.58-7.429-20.633h-4.139l1.309 3.556-5.625 17.148-7.57-19.647h3.184v-1.056h-10.97v1.052h3.573z" transform="translate(-197.96 -260.747)"/>
    <path d="M434.946 285.394h6.615v-1.056H438.7l3.255-7.817h10.79l3.5 7.817h-3.573v1.056h10.613v-1.056h-2.975l-10.436-23.591h-4.422l.99 1.9-9.339 21.69h-2.158zm7.641-10.387l4.6-10.915 4.882 10.915z" transform="translate(-392.707 -260.747)"/>
    <path d="M622.312 285.394h7.641v-1.056h-3.042v-22.077h.142l17.369 23.133h4.74l-18.5-24.647h-8.349v1.053h2.936v22.535h-2.936z" transform="translate(-546.678 -260.747)"/>
    <path d="M711.684 285.394h3.326l.106-23.591h2.759v-1.056h-7.465v1.053h2.936l-.035 19.4-15.388-20.457h-4.953z" transform="translate(-604.742 -260.747)"/>
    <path d="M863.069 285.394h6.615v-1.056h-2.865l3.255-7.817h10.79l3.5 7.817h-3.573v1.056H891.4v-1.056h-2.971L878 260.747h-4.422l.99 1.9-9.339 21.69h-2.158zm7.641-10.387l4.6-10.915 4.882 10.915z" transform="translate(-744.524 -260.747)"/>
    <path d="M1118.909 285.394h6.615v-1.056h-2.865l3.255-7.817h10.786l3.5 7.817h-3.573v1.056h10.613v-1.056h-2.972l-10.436-23.591h-4.422l.99 1.9-9.339 21.69h-2.158zm7.641-10.387l4.6-10.915 4.882 10.915z" transform="translate(-954.765 -260.747)"/>
    <path d="M1.893 0A1.878 1.878 0 1 1 1.9 3.757 1.878 1.878 0 1 1 1.893 0z" transform="rotate(-9.218 231.85 -1233.887)"/>
  </g>
</svg>
