<svg xmlns="http://www.w3.org/2000/svg" width="26" height="26" viewBox="0 0 26 26">
  <g>
    <path d="M52.873 6.878a.091.091 0 0 0-.026-.052.569.569 0 0 0-.078-.13l-.026-.026L45.839.156a.545.545 0 0 0-.156-.1c-.026 0-.026 0-.052-.026a.33.33 0 0 0-.157-.03H33.907a3 3 0 0 0-3 3v20a3 3 0 0 0 3 3h15.97a3 3 0 0 0 3-3V7.034c.023-.052-.004-.104-.004-.156zm-6.852-4.95l4.846 4.559h-4.846zm5.705 21.1A1.818 1.818 0 0 1 49.9 24.88h-16a1.857 1.857 0 0 1-1.85-1.85V3.022a1.857 1.857 0 0 1 1.85-1.85h10.949V7.06a.578.578 0 0 0 .573.573h6.3z" transform="translate(-28.411) translate(-.469)"/>
    <path d="M89.547 88.8h-5.263a.573.573 0 1 0 0 1.146h5.263a.573.573 0 0 0 0-1.146z" transform="translate(-28.411) translate(-49.83 -83.016)"/>
    <path d="M97.336 158.4H84.284a.573.573 0 1 0 0 1.146h13.052a.573.573 0 0 0 0-1.146z" transform="translate(-28.411) translate(-49.83 -148.082)"/>
    <path d="M97.336 216.8H84.284a.573.573 0 0 0 0 1.146h13.052a.573.573 0 0 0 0-1.146z" transform="translate(-28.411) translate(-49.83 -202.68)"/>
    <path d="M97.336 274.8H84.284a.573.573 0 1 0 0 1.146h13.052a.573.573 0 1 0 0-1.146z" transform="translate(-28.411) translate(-49.83 -256.901)"/>
  </g>
</svg>
