<svg width="35" height="22" xmlns="http://www.w3.org/2000/svg" viewBox="0 0 35 22">
	<path d="M33.5,7.6c-0.1,0-0.2,0-0.3,0h-0.1c-1.6,0-3.2,0-4.8-0.2c3.9-0.6,5.5-1.9,5.9-2.4c0.4-0.4,0.7-0.9,0.7-1.4c0-1-0.8-1.7-1.7-1.7c-0.1,0-0.2,0-0.3,0v0l-0.1,0h0c-2.2,0.4-4.4,0.6-6.6,0.6v0l-0.3,0v0l-0.2,0h0c-0.9,0.1-3.9,0.4-6,0.6c0.2,0,0.3-0.1,0.5-0.2l0.1,0l0-0.1c0.2-0.6,0.2-1.2-0.1-1.8l0.3-0.6c0.1-0.1,0-0.3-0.1-0.3s-0.3,0-0.3,0.1l0,0L19.7,1l0.1,0.1c0.2,0.4,0.2,0.9,0.1,1.3c-0.2,0.1-0.4,0.1-0.7,0.1c0.1-0.2,0.2-0.4,0.2-0.6c0-0.4-0.3-0.8-0.7-1.1c0-0.5-0.4-0.9-0.9-0.9h-0.6c-0.5,0.1-0.9,0.4-0.9,0.9c-0.4,0.2-0.6,0.6-0.7,1.1c0,0.2,0.1,0.4,0.2,0.6c-0.2,0-0.5-0.1-0.7-0.1c-0.1-0.4-0.1-0.9,0.1-1.3L15.3,1l-0.4-0.9C14.8,0,14.6,0,14.5,0.1s-0.2,0.2-0.1,0.3L14.7,1c-0.2,0.6-0.3,1.2-0.1,1.8l0,0.1l0.1,0C14.9,3,15,3,15.2,3.1c-2.1-0.2-4.9-0.5-5.8-0.6h0l-0.2,0v0l-0.3,0v0c-2.2,0-4.4-0.2-6.6-0.6h0l-0.1,0v0c-0.9-0.2-1.8,0.4-2,1.3c0,0.1,0,0.2,0,0.4c0,0.5,0.3,1,0.7,1.4c0.5,0.5,2.1,1.8,5.9,2.4C5.1,7.5,3.5,7.6,1.9,7.6H1.8C0.9,7.5,0.1,8.3,0,9.2c0,0.1,0,0.2,0,0.3c0.1,0.6,0.5,1.1,1,1.4v0c0.7,0.5,2.6,1.5,6.6,1.5c0.5,0,0.9,0,1.4,0h0.1c0.1,0,0.2,0,0.3,0v0c0,0,0.1,0,0.1,0h0c4.9-0.8,6.7-4,6.7-4.1c0,0,0-0.1,0-0.1c0-0.5,0-0.9,0.1-1.3c0.1,0.2,0.2,0.4,0.3,0.6v12.5c0,0.1,0,0.1,0,0.2c0,0.6,0.1,1.2,0.3,1.8c0,0.1,0.1,0.1,0.2,0.1c0.1,0,0.1-0.1,0.1-0.2c0,0,0,0,0,0c0-0.1-0.1-0.2-0.1-0.3c0.1,0.1,0.2,0.1,0.2,0.1c0,0,0,0,0.1-0.1c0,0.1-0.1,0.2-0.1,0.3c-0.1,0.1,0,0.2,0.1,0.2c0.1,0.1,0.2,0,0.2-0.1c0,0,0,0,0,0c0.2-0.6,0.3-1.1,0.3-1.7c0-0.1,0-0.1,0-0.2V7.3c0.2-0.3,0.3-0.6,0.4-0.9c0.1,0.6,0.2,1.1,0.2,1.7c0,0,0,0.1,0,0.1c0.1,0.1,1.9,3.3,6.7,4.1h0c0,0,0.1,0,0.1,0v0c0.1,0,0.2,0,0.3,0h0.1c0.5,0,1,0,1.4,0c3.9,0,5.9-1,6.6-1.5v0c0.5-0.3,0.9-0.8,1-1.4C35.1,8.6,34.4,7.7,33.5,7.6z M8.8,3c0.1,0,0.4,0,0.5,0c0.9,0.1,4.6,0.5,6.7,0.7V4c-0.8-0.1-6.2-0.5-7.2-0.7L8.8,3z M1.2,4.6C1.1,4.5,1.1,4.5,1.2,4.6C1.1,4.5,1,4.4,1,4.4C0.8,4.2,0.6,3.9,0.6,3.5c0-0.7,0.5-1.2,1.2-1.2c0.1,0,0.2,0,0.2,0C4.1,2.7,6.3,2.9,8.4,3v0.3c-0.3,0-0.6,0-1.1,0c-0.3,0-0.7,0-1.1,0.1L3.7,3.1C3.4,3.1,3.2,3,3,2.9c-0.1,0-0.2,0-0.2,0.1c0,0.1,0,0.2,0.1,0.2c1.5,0.5,3,0.6,4.6,0.4c0.2,0,0.5,0,0.7,0C7.8,3.9,7.6,4.2,7.4,4.5c0,0.1,0,0.2,0.1,0.2c0.1,0,0.2,0,0.2-0.1c0.2-0.4,0.5-0.8,0.8-1c0.8,0.1,6.7,0.6,7.4,0.7c0,0.1,0,0.2,0,0.3c-1-0.1-5.4-0.4-5.6-0.4c-0.1,0-0.2,0.1-0.2,0.2c0,0.1,0.1,0.2,0.2,0.2c0,0,0,0,0,0c0.3,0,4.1,0.3,5.4,0.4c-2.1,1.4-4.5,2.1-7,2.1c-0.1,0-0.3,0-0.4-0.1v0C3.6,6.6,1.6,5,1.2,4.6L1.2,4.6z M5,9h0.5c2.2,0,4.5-0.3,6.6-1c0.2,0.1,0.7,0.4,0.6,0.8s-0.5,0.7-1.4,1.1c-0.8,0.3-1.6,0.7-2.2,1.4c-0.1,0.1-0.1,0.2,0,0.3c0.1,0.1,0.2,0.1,0.3,0c0.6-0.6,1.3-1,2.1-1.3c1.1-0.4,1.6-0.9,1.7-1.4c0-0.4-0.2-0.7-0.6-0.9c1.2-0.4,2.4-1,3.4-1.7c-0.1,0.6-0.2,1.2-0.2,1.8c-1.5,2.1-3.8,3.5-6.3,3.8c-0.1,0-0.3,0-0.4,0v0c-5.7,0.3-7.8-1.5-7.8-1.5c-0.3-0.2-0.5-0.5-0.5-0.8C0.5,8.8,1,8.2,1.6,8.1c0.1,0,0.2,0,0.2,0c0.3,0,0.6,0,1,0c1.9,0,3.8-0.2,5.7-0.4c0.1,0,0.3,0,0.4,0h0.3c2.5,0,4.9-0.8,6.9-2.2c0,0,0,0,0,0s0,0,0,0l0,0.1c-0.9,0.6-4.7,3.1-11.1,3c-0.1,0-0.2,0.1-0.2,0.2C4.8,8.9,4.9,8.9,5,9L5,9z M16.3,2.2c0-0.1-0.1-0.1-0.1-0.2c0-0.1,0.1-0.2,0.1-0.3C16.3,1.9,16.3,2.1,16.3,2.2z M16.5,3.1L16.5,3.1C16.6,3.1,16.6,3.1,16.5,3.1l0.3,0c0,0.4-0.1,0.7-0.3,1.1C16.5,3.7,16.5,3.4,16.5,3.1z M17.3,21.2c0-0.2-0.1-0.4-0.1-0.6c0,0,0.1,0,0.1,0V21.2z M17.4,8.5l0.2,0.1v0.1h-0.4V8.6L17.4,8.5z M17.2,8.2V7.5l0.2-0.1l0.2,0.1v0.7l-0.2-0.1c0,0-0.1,0-0.1,0L17.2,8.2z M17.7,9.1v0.7h-0.4V9.1H17.7z M17.7,10.2v0.2l-0.2-0.1c0,0-0.1,0-0.1,0l-0.1,0.1v-0.2L17.7,10.2z M17.4,10.7l0.2,0.1v0.7l-0.2-0.1c0,0-0.1,0-0.1,0l-0.1,0.1v-0.7L17.4,10.7z M17.4,11.8l0.2,0.1V12h-0.4v-0.1L17.4,11.8z M17.7,12.4v0.2l-0.2-0.1c0,0-0.1,0-0.1,0l-0.1,0.1v-0.2L17.7,12.4L17.7,12.4z M17.4,12.9l0.2,0.1v0.7l-0.2-0.1c0,0-0.1,0-0.1,0l-0.1,0.1v-0.7L17.4,12.9z M17.4,14l0.2,0.1v0.1h-0.4v-0.2L17.4,14z M17.7,14.6v0.2l-0.2-0.1c0,0-0.1,0-0.1,0l-0.1,0.1v-0.2L17.7,14.6L17.7,14.6z M17.4,15l0.2,0.1v0.1h-0.4v-0.1L17.4,15z M17.7,15.6v0.7h-0.4v-0.7H17.7z M17.7,16.7v0.2l-0.2-0.1c0,0-0.1,0-0.1,0l-0.1,0.1v-0.2L17.7,16.7z M17.4,17.2l0.2,0.1v0.1h-0.4v-0.1L17.4,17.2z M17.7,17.8V18l-0.2-0.1c0,0-0.1,0-0.1,0l-0.1,0.1v-0.2L17.7,17.8L17.7,17.8z M17.4,18.3l0.2,0.1V19L17.5,19c0,0-0.1,0-0.1,0L17.2,19v-0.7L17.4,18.3z M17.4,19.3l0.2,0.1v0.1h-0.4v-0.1L17.4,19.3z M17.5,20.1c-0.1,0-0.2-0.1-0.2-0.2h0.4C17.7,20,17.6,20.1,17.5,20.1L17.5,20.1z M17.6,21.2v-0.6c0,0,0.1,0,0.1,0C17.7,20.8,17.7,21,17.6,21.2z M17.7,7.1C17.7,7.1,17.7,7.1,17.7,7.1l-0.2,0c0,0-0.1,0-0.1,0l-0.2,0.1c0,0,0,0,0-0.1c-0.1-0.2-0.3-0.4-0.3-0.6H18C17.9,6.7,17.8,6.9,17.7,7.1L17.7,7.1z M18.1,6h-1.4c0-0.1,0-0.1,0-0.2c0-0.1,0.1-0.1,0.1-0.2l0,0l0.7-0.4l0.8,0.4C18.2,5.7,18.2,5.8,18.1,6z M18.3,5.1l-0.8-0.4c-0.1,0-0.2,0-0.2,0l-0.8,0.4v0l0.1,0L16.6,5c0,0,0,0,0-0.1c0.4-0.5,0.6-1.1,0.6-1.8h0.6C17.8,3.8,18,4.4,18.3,5.1L18.3,5.1L18.3,5.1z M18.4,4.3c-0.2-0.4-0.2-0.8-0.3-1.2h0.1c0,0,0,0,0.1,0l0,0C18.4,3.5,18.4,3.9,18.4,4.3L18.4,4.3z M18.3,2.4h-1.6c0,0,0-0.1,0-0.1c0-0.3,0.1-0.6,0.3-0.8h1c0.3,0.1,0.5,0.3,0.6,0.6C18.6,2.2,18.5,2.4,18.3,2.4C18.3,2.4,18.3,2.4,18.3,2.4L18.3,2.4z M18.9,3.7C21,3.5,24.8,3.1,25.7,3c0.1,0,0.4,0,0.5,0v0.3c0,0-0.1,0-0.1,0c-0.7,0.1-5.9,0.6-7.2,0.7C18.9,3.9,18.9,3.8,18.9,3.7L18.9,3.7z M18.9,4.3c1.2-0.1,6.6-0.6,7.3-0.7c0.1,0,0.1,0,0.2,0c0.4,0.3,0.7,0.6,0.9,1.1c0,0.1,0.1,0.1,0.2,0.1c0.1,0,0.1-0.1,0.1-0.2c-0.1-0.3-0.4-0.6-0.6-0.9l0.4,0c1.5,0.2,3.1,0.1,4.6-0.4C32,3.2,32.1,3.1,32,3c0-0.1-0.1-0.1-0.2-0.1c0,0,0,0,0,0c-0.2,0.1-0.5,0.2-0.7,0.2l-2.6,0.2c-0.4,0-0.8,0-1.1-0.1c-0.3,0-0.6,0-0.8,0V3c2.1,0,4.3-0.2,6.3-0.6c0.6-0.1,1.3,0.3,1.4,0.9c0,0.1,0,0.2,0,0.3c0,0.3-0.2,0.7-0.4,0.9l0,0.1c0,0,0,0.1-0.1,0.1c-0.5,0.5-2.4,2-7.2,2.5v0c-0.1,0-0.3,0.1-0.4,0.1c-2.5,0-4.9-0.7-7-2.1c1.4-0.1,5-0.4,5.3-0.4c0.1,0,0.2-0.1,0.2-0.2c0-0.1-0.1-0.2-0.2-0.2c-0.3,0-4.6,0.4-5.6,0.4C18.9,4.5,18.9,4.4,18.9,4.3L18.9,4.3z M34.4,9.5c-0.1,0.3-0.3,0.6-0.5,0.8c0,0-2.1,1.8-7.8,1.5v0c-0.1,0-0.3,0-0.4,0c-2.6-0.3-4.9-1.7-6.3-3.8c0-0.6-0.1-1.2-0.2-1.8c1.1,0.7,2.2,1.2,3.4,1.7c-0.3,0.2-0.5,0.5-0.6,0.9c0,0.5,0.6,1,1.7,1.4c0.8,0.3,1.5,0.7,2.1,1.3c0.1,0.1,0.2,0.1,0.3,0c0.1-0.1,0.1-0.2,0-0.2c-0.6-0.6-1.4-1.1-2.2-1.4c-0.9-0.3-1.4-0.7-1.4-1.1s0.4-0.7,0.6-0.8c2.1,0.7,4.4,1,6.6,1H30c0.1,0,0.2-0.1,0.2-0.2c0-0.1-0.1-0.2-0.2-0.2c-6.5,0.1-10.3-2.4-11.1-3c0-0.1-0.1-0.1-0.1-0.2c0,0,0,0,0-0.1c2,1.5,4.5,2.4,7,2.3h0.3c0.2,0,0.4,0,0.4,0c1.9,0.2,3.8,0.4,5.7,0.4c0.3,0,0.7,0,1,0c0.1,0,0.2,0,0.3,0C34.1,8.2,34.5,8.8,34.4,9.5L34.4,9.5z M33,2.8c0-0.1,0.1-0.1,0.2-0.1c0,0,0.7,0.3,0.8,0.8c0.1,0.4-0.2,0.8-0.7,1.2c-0.1,0.1-0.2,0-0.3,0c0,0,0,0,0,0c-0.1-0.1,0-0.2,0-0.3c0.4-0.3,0.6-0.6,0.6-0.9c0-0.3-0.5-0.5-0.5-0.5C33.1,3,33,2.9,33,2.8L33,2.8z M32.5,4.9c0-0.1,0.1-0.2,0.2-0.2c0.1,0,0.2,0.1,0.2,0.2c0,0.1-0.1,0.2-0.2,0.2C32.6,5.2,32.5,5.1,32.5,4.9L32.5,4.9z M34.1,9c0.1,0.3,0,0.7-0.5,1.2c0,0-0.1,0.1-0.1,0.1c0,0-0.1,0-0.1-0.1c-0.1-0.1-0.1-0.2,0-0.3c0,0,0,0,0,0c0.2-0.2,0.5-0.6,0.4-0.8c-0.1-0.3-0.6-0.5-0.8-0.5c-0.1,0-0.2-0.1-0.2-0.2c0,0,0,0,0,0c0-0.1,0.1-0.2,0.2-0.2C33.1,8.3,33.9,8.5,34.1,9L34.1,9z M33.3,10.4c0,0.1-0.1,0.2-0.2,0.2c-0.1,0-0.2-0.1-0.2-0.2c0-0.1,0.1-0.2,0.2-0.2C33.2,10.2,33.3,10.3,33.3,10.4C33.3,10.4,33.3,10.4,33.3,10.4L33.3,10.4z"/>
</svg>
