<svg xmlns="http://www.w3.org/2000/svg" viewBox="0 0 24 18">
	<g>
		<path d="M21,2.7H0.8c-0.3,0-0.5,0.2-0.5,0.4v14.4c0,0.3,0.2,0.5,0.5,0.5h20.3c0.2,0,0.4-0.2,0.4-0.5c0,0,0,0,0,0V3.1C21.5,2.9,21.3,2.7,21,2.7C21.1,2.7,21.1,2.7,21,2.7z M20.5,17.1H1.2v-1.6l6.3-6.3l6,5.6c0.2,0.2,0.5,0.2,0.6,0l3.3-3.3l3.1,2.7L20.5,17.1L20.5,17.1z M20.5,12.9l-2.8-2.5c-0.2-0.2-0.4-0.1-0.6,0l-3.3,3.3l-6-5.6C7.7,8,7.4,8,7.2,8.2l-6,6V3.6h19.3L20.5,12.9z"/>
		<path d="M23.3,0H3C2.8,0,2.6,0.2,2.5,0.4v1.8h0.9V0.9h19.4v13.5h-0.9v0.9h1.4c0.2,0,0.4-0.2,0.4-0.5c0,0,0,0,0,0V0.4C23.7,0.2,23.6,0,23.3,0C23.3,0,23.3,0,23.3,0z"/>
		<path d="M14.3,5.8c-1.2,0-2.3,1-2.3,2.3s1,2.3,2.3,2.3s2.3-1,2.3-2.3C16.5,6.8,15.5,5.8,14.3,5.8z M14.3,9.4c-0.7,0-1.4-0.6-1.4-1.4c0-0.7,0.6-1.3,1.4-1.3c0.7,0,1.4,0.6,1.4,1.3C15.6,8.8,15,9.4,14.3,9.4z"/>
	</g>
</svg>
