<svg xmlns="http://www.w3.org/2000/svg" width="18" height="18" viewBox="0 0 18 18">
    <defs>
        <linearGradient id="jl31qi5m5a" x1=".325" x2=".695" y1="1" gradientUnits="objectBoundingBox">
            <stop offset="0" stop-color="#fbda76"/>
            <stop offset=".227" stop-color="#f57e24"/>
            <stop offset=".443" stop-color="#d62976"/>
            <stop offset=".66" stop-color="#962ebf"/>
            <stop offset=".867" stop-color="#962ebf"/>
            <stop offset="1" stop-color="#4f5bd5"/>
        </linearGradient>
    </defs>
    <path fill="url(#jl31qi5m5a)" d="M0 0H18V18H0z"/>
    <path fill="#fff" stroke="#fff" stroke-width="0.3px" d="M5.84 11.456h-.114c-.9 0-1.728-.021-2.534-.07a3.388 3.388 0 0 1-1.953-.739 3.134 3.134 0 0 1-1.053-1.7 7.535 7.535 0 0 1-.173-1.8C.007 6.729 0 6.234 0 5.73s.007-1 .013-1.42a7.535 7.535 0 0 1 .173-1.8A3.134 3.134 0 0 1 1.239.81 3.388 3.388 0 0 1 3.192.071C4 .022 4.829 0 5.728 0s1.728.021 2.534.07a3.388 3.388 0 0 1 1.953.74 3.134 3.134 0 0 1 1.053 1.7 7.535 7.535 0 0 1 .173 1.8c.006.418.012.914.013 1.418 0 .5-.007 1-.013 1.418a7.531 7.531 0 0 1-.173 1.8 3.134 3.134 0 0 1-1.053 1.7 3.388 3.388 0 0 1-1.953.739c-.772.048-1.562.071-2.422.071zm-.114-.9c.883 0 1.694-.02 2.482-.068a2.465 2.465 0 0 0 1.442-.535 2.259 2.259 0 0 0 .75-1.228 6.855 6.855 0 0 0 .145-1.59c.006-.415.012-.907.013-1.406s-.007-.991-.013-1.406a6.856 6.856 0 0 0-.145-1.59A2.259 2.259 0 0 0 9.65 1.5 2.466 2.466 0 0 0 8.208.965C7.42.917 6.609.894 5.728.9S4.034.917 3.246.965A2.466 2.466 0 0 0 1.8 1.5a2.259 2.259 0 0 0-.752 1.228 6.856 6.856 0 0 0-.145 1.59C.9 4.738.9 5.23.895 5.73s.007.99.013 1.405a6.855 6.855 0 0 0 .145 1.59A2.259 2.259 0 0 0 1.8 9.953a2.466 2.466 0 0 0 1.442.539c.792.049 1.603.071 2.484.069zM5.7 8.525a2.8 2.8 0 1 1 2.8-2.8 2.8 2.8 0 0 1-2.8 2.8zm0-4.7a1.9 1.9 0 1 0 1.9 1.9 1.9 1.9 0 0 0-1.9-1.898zm3.11-1.79a.671.671 0 1 0 .671.671.671.671 0 0 0-.666-.669zm0 0" transform="translate(3.273 3.271)"/>
</svg>
