<svg xmlns="http://www.w3.org/2000/svg" fill="#000" width="26" height="26" viewBox="0 0 26 26">
  <g>
    <path d="M35.211 35.485H10.24a.514.514 0 0 1-.514-.514V18.615a.514.514 0 0 1 .514-.514h24.971a.514.514 0 0 1 .514.514v16.356a.514.514 0 0 1-.514.514zm-24.457-1.029H34.7V19.129H10.754z" transform="translate(-9.373 -13.101) translate(-.351 -.7) translate(-.002)"/>
    <path d="M22.725 29.819a.514.514 0 0 1-.335-.124L9.905 19.006a.514.514 0 0 1 .669-.782l12.151 10.4 12.151-10.4a.514.514 0 1 1 .669.782L23.06 29.7a.514.514 0 0 1-.335.119z" transform="translate(-9.373 -13.101) translate(-.351 -.7) translate(-.002)"/>
    <path d="M10.514 42.661a.514.514 0 0 1-.364-.878l8.755-8.756a.514.514 0 0 1 .727.727l-8.754 8.756a.512.512 0 0 1-.364.151z" transform="translate(-9.373 -13.101) translate(-.351 -.7) translate(-.135 -7.177)"/>
    <path d="M50.257 42.671a.513.513 0 0 1-.364-.151l-8.745-8.745a.514.514 0 1 1 .727-.727l8.745 8.745a.514.514 0 0 1-.364.878z" transform="translate(-9.373 -13.101) translate(-.351 -.7) translate(-15.188 -7.186)"/>
  </g>
</svg>
