<svg xmlns="http://www.w3.org/2000/svg" viewBox="0 0 60 60">
	<path fill="#928A77" d="M30,0l30,30L30,60L0,30L30,0z"/>
	<path fill="#ffffff" d="M44.7,26.9c-0.1,0-0.2,0-0.3,0h-0.1c-1.5,0-3,0-4.4-0.2c3.6-0.6,5-1.8,5.5-2.2c0.4-0.3,0.6-0.8,0.6-1.3c0-0.9-0.7-1.6-1.6-1.6c-0.1,0-0.2,0-0.3,0v0l-0.1,0h0c-2,0.3-4.1,0.5-6.1,0.5v0l-0.3,0v0l-0.2,0h0c-0.8,0.1-3.6,0.4-5.5,0.5c0.2,0,0.3-0.1,0.5-0.1l0.1,0l0-0.1c0.2-0.5,0.2-1.1-0.1-1.6l0.3-0.6c0.1-0.1,0-0.3-0.1-0.3c-0.1,0-0.2,0-0.3,0.1L32,20.8l0.1,0.1c0.2,0.4,0.2,0.8,0.1,1.2c-0.2,0.1-0.4,0.1-0.6,0.1c0.1-0.2,0.2-0.4,0.2-0.6c0-0.4-0.3-0.8-0.6-1c0-0.5-0.4-0.8-0.9-0.9h-0.6c-0.5,0-0.8,0.4-0.9,0.9c-0.4,0.2-0.6,0.6-0.6,1c0,0.2,0.1,0.4,0.2,0.6c-0.2,0-0.4,0-0.6-0.1c-0.1-0.4-0.1-0.9,0.1-1.2l0.1-0.1L27.5,20c-0.1-0.1-0.2-0.2-0.3-0.1c-0.1,0.1-0.1,0.2-0.1,0.3l0.3,0.6c-0.2,0.5-0.2,1.1-0.1,1.6l0,0.1l0.1,0c0.1,0.1,0.3,0.1,0.4,0.1c-1.9-0.2-4.5-0.5-5.4-0.5h0l-0.2,0v0l-0.3,0v0c-2.1,0-4.1-0.2-6.1-0.5h0l-0.1,0v0C15,21.4,14.1,22,14,22.8c0,0.1,0,0.2,0,0.3c0,0.5,0.2,1,0.6,1.3c0.4,0.4,1.9,1.7,5.5,2.2c-1.5,0.2-3,0.2-4.4,0.2h-0.1c-0.9,0-1.6,0.7-1.6,1.5c0,0.1,0,0.2,0,0.3c0.1,0.5,0.4,1,0.9,1.2v0c0.6,0.4,2.4,1.4,6.1,1.4c0.4,0,0.9,0,1.3,0h0.1c0.1,0,0.2,0,0.3,0v0l0.1,0h0c2.5-0.3,4.8-1.7,6.2-3.8c0,0,0-0.1,0-0.1c0-0.4,0-0.8,0.1-1.2c0.1,0.2,0.2,0.4,0.3,0.6v11.6c0,0.1,0,0.1,0,0.2c0,0.6,0.1,1.1,0.3,1.6c0,0.1,0.1,0.1,0.2,0.1c0.1,0,0.1-0.1,0.1-0.2c0-0.1-0.1-0.2-0.1-0.3c0,0.1,0.1,0.1,0.2,0.1c0,0,0,0,0,0c0,0.1-0.1,0.2-0.1,0.3c0,0.1,0,0.2,0.1,0.2c0.1,0,0.2,0,0.2-0.1l0,0c0.2-0.5,0.3-1.1,0.3-1.6c0-0.1,0-0.1,0-0.2V26.6c0.1-0.3,0.3-0.5,0.3-0.8c0.1,0.5,0.2,1,0.2,1.5c0,0,0,0.1,0,0.1c1.4,2.1,3.7,3.5,6.2,3.8h0l0.1,0v0c0.1,0,0.2,0,0.3,0h0.1c0.5,0,0.9,0,1.3,0c3.6,0,5.5-1,6.1-1.4v0c0.5-0.3,0.8-0.7,0.9-1.2C46.2,27.8,45.6,27,44.7,26.9z M21.9,22.6c0.1,0,0.4,0,0.5,0c0.9,0.1,4.3,0.5,6.2,0.6v0.3c-0.8-0.1-5.7-0.5-6.7-0.6L21.9,22.6z M14.9,24.1C14.9,24.1,14.9,24.1,14.9,24.1C14.8,24,14.8,24,14.8,24c-0.2-0.2-0.4-0.5-0.4-0.8c0-0.6,0.5-1.1,1.1-1.1c0.1,0,0.1,0,0.2,0c1.9,0.3,3.9,0.5,5.9,0.6v0.3c-0.2,0-0.6,0-1,0c-0.3,0-0.7,0-1,0.1l-2.4-0.2c-0.2-0.1-0.4-0.1-0.6-0.2c-0.1,0-0.2,0-0.2,0.1c0,0.1,0,0.2,0.1,0.2c1.4,0.4,2.8,0.6,4.2,0.4c0.2,0,0.4,0,0.6,0c-0.2,0.2-0.4,0.5-0.6,0.9c0,0.1,0,0.2,0.1,0.2c0.1,0,0.2,0,0.2-0.1c0.2-0.4,0.4-0.7,0.8-1c0.8,0.1,6.1,0.6,6.8,0.6c0,0.1,0,0.2,0,0.3c-0.9-0.1-4.9-0.4-5.2-0.4c-0.1,0-0.2,0.1-0.2,0.2c0,0.1,0.1,0.2,0.1,0.2c0.3,0,3.8,0.3,5,0.4c-1.9,1.3-4.2,1.9-6.4,1.9c-0.1,0-0.3,0-0.4,0v0C17.1,26,15.4,24.5,14.9,24.1z M18.5,28.1h0.4c2.1,0,4.1-0.3,6.1-0.9c0.2,0.1,0.6,0.4,0.6,0.7s-0.5,0.7-1.3,1c-0.8,0.2-1.5,0.7-2.1,1.3c-0.1,0.1-0.1,0.2,0,0.2c0.1,0.1,0.2,0.1,0.2,0c0.5-0.5,1.2-0.9,1.9-1.2c1-0.4,1.5-0.8,1.5-1.3c0-0.4-0.2-0.7-0.5-0.9c1.1-0.4,2.2-0.9,3.2-1.5c-0.1,0.6-0.2,1.1-0.2,1.7c-1.4,1.9-3.5,3.2-5.8,3.5c-0.1,0-0.3,0-0.4,0v0c-5.2,0.3-7.2-1.4-7.2-1.4c-0.3-0.2-0.4-0.5-0.5-0.8c-0.1-0.6,0.3-1.2,0.9-1.2c0.1,0,0.2,0,0.2,0c0.3,0,0.6,0,0.9,0c1.8,0,3.5-0.2,5.2-0.4c0,0,0.2,0,0.4,0h0.2c2.3,0,4.5-0.7,6.4-2.1c0,0,0,0,0,0s0,0,0,0l0,0.1c-0.8,0.6-4.3,2.9-10.3,2.7c-0.1,0-0.2,0.1-0.2,0.2C18.3,28.1,18.4,28.1,18.5,28.1L18.5,28.1z M28.9,21.9c0,0,0-0.1,0-0.2c0-0.1,0.1-0.2,0.1-0.2C28.9,21.7,28.9,21.8,28.9,21.9L28.9,21.9z M29.1,22.8L29.1,22.8C29.1,22.8,29.2,22.8,29.1,22.8l0.2,0c0,0.3-0.1,0.7-0.3,1C29.1,23.3,29.1,23,29.1,22.8L29.1,22.8z M29.8,39.5c0-0.2-0.1-0.4-0.1-0.6c0,0,0.1,0,0.1,0V39.5z M29.9,27.7l0.2,0.1v0.1h-0.4v-0.1L29.9,27.7z M29.8,27.4v-0.6l0.2-0.1l0.2,0.1v0.6L30,27.4c0,0-0.1,0-0.1,0L29.8,27.4z M30.2,28.3v0.7h-0.4v-0.7L30.2,28.3z M30.2,29.3v0.2L30,29.4c0,0-0.1,0-0.1,0l-0.1,0v-0.2H30.2z M29.9,29.8l0.2,0.1v0.6L30,30.4c0,0-0.1,0-0.1,0l-0.1,0v-0.6L29.9,29.8z M29.9,30.7l0.2,0.1V31h-0.4v-0.1L29.9,30.7z M30.2,31.3v0.2L30,31.4c0,0-0.1,0-0.1,0l-0.1,0v-0.2L30.2,31.3L30.2,31.3z M29.9,31.7l0.2,0.1v0.7L30,32.4c0,0-0.1,0-0.1,0l-0.1,0v-0.7L29.9,31.7z M29.9,32.8l0.2,0.1V33h-0.4v-0.1L29.9,32.8z M30.2,33.3v0.2L30,33.4c0,0-0.1,0-0.1,0l-0.1,0v-0.2L30.2,33.3L30.2,33.3z M29.9,33.8l0.2,0.1V34h-0.4v-0.1L29.9,33.8z M30.2,34.3V35h-0.4v-0.7H30.2z M30.2,35.3v0.2L30,35.4c0,0-0.1,0-0.1,0l-0.1,0v-0.1L30.2,35.3z M29.9,35.7l0.2,0.1V36h-0.4v-0.1L29.9,35.7z M30.2,36.3v0.2L30,36.4c0,0-0.1,0-0.1,0l-0.1,0v-0.2L30.2,36.3L30.2,36.3z M29.9,36.7l0.2,0.1v0.6L30,37.4c0,0-0.1,0-0.1,0l-0.1,0v-0.6L29.9,36.7z M29.9,37.7l0.2,0.1v0.1h-0.4v-0.1L29.9,37.7z M30,38.4c-0.1,0-0.2-0.1-0.2-0.2h0.4C30.1,38.4,30.1,38.4,30,38.4L30,38.4z M30.1,39.4v-0.5c0,0,0.1,0,0.1,0C30.2,39.1,30.2,39.3,30.1,39.4L30.1,39.4z M30.2,26.4C30.2,26.4,30.2,26.5,30.2,26.4l-0.2,0c0,0-0.1,0-0.1,0l-0.2,0.1c0,0,0,0,0,0c-0.1-0.2-0.2-0.4-0.3-0.6h1.1C30.4,26,30.3,26.2,30.2,26.4L30.2,26.4z M30.6,25.4h-1.3c0-0.1,0-0.1,0-0.2c0-0.1,0-0.1,0.1-0.2l0,0l0.7-0.3l0.7,0.4C30.6,25.2,30.6,25.3,30.6,25.4L30.6,25.4z M30.8,24.6l-0.7-0.4c-0.1,0-0.1,0-0.2,0l-0.7,0.4v0l0,0l-0.1-0.1v-0.1c0.3-0.5,0.5-1.1,0.6-1.6h0.6C30.3,23.4,30.5,24,30.8,24.6C30.8,24.5,30.8,24.5,30.8,24.6L30.8,24.6z M30.8,23.8c-0.1-0.3-0.2-0.7-0.2-1.1h0.1c0,0,0,0,0.1,0l0,0C30.9,23.1,30.9,23.5,30.8,23.8L30.8,23.8z M30.7,22.1h-1.5c0,0,0-0.1,0-0.1c0-0.3,0.1-0.6,0.3-0.8h1c0.3,0.1,0.5,0.3,0.5,0.5C31.1,21.9,30.9,22.1,30.7,22.1C30.7,22.1,30.7,22.1,30.7,22.1L30.7,22.1z M31.3,23.3c1.9-0.1,5.4-0.5,6.3-0.6c0.1,0,0.4,0,0.5,0v0.2c0,0-0.1,0-0.1,0c-0.6,0.1-5.5,0.5-6.6,0.6C31.3,23.4,31.3,23.4,31.3,23.3L31.3,23.3z M31.3,23.9c1.1-0.1,6.1-0.5,6.7-0.6c0.1,0,0.1,0,0.2,0c0.4,0.2,0.6,0.6,0.8,1c0,0.1,0.1,0.1,0.2,0.1c0.1,0,0.1-0.1,0.1-0.2l0,0c-0.1-0.3-0.3-0.6-0.6-0.8l0.4,0c1.4,0.2,2.8,0.1,4.2-0.4c0.1,0,0.1-0.1,0.1-0.2c0-0.1-0.1-0.1-0.2-0.1c0,0,0,0,0,0c-0.2,0.1-0.4,0.2-0.6,0.2L40.2,23c-0.4,0-0.7,0-1-0.1c-0.3,0-0.5,0-0.7,0v-0.3c2,0,3.9-0.2,5.9-0.6c0.6-0.1,1.2,0.2,1.3,0.8c0,0.1,0,0.2,0,0.2c0,0.3-0.1,0.6-0.4,0.8l0,0c0,0,0,0-0.1,0.1c-0.4,0.4-2.2,1.9-6.6,2.3v0c-0.1,0-0.3,0-0.4,0c-2.3,0-4.6-0.7-6.5-1.9c1.3-0.1,4.6-0.4,4.9-0.4c0.1,0,0.2-0.1,0.1-0.2c0-0.1-0.1-0.1-0.2-0.1c-0.3,0-4.2,0.3-5.2,0.4C31.3,24.1,31.3,24,31.3,23.9L31.3,23.9z M45.6,28.6c-0.1,0.3-0.2,0.6-0.5,0.8c0,0-2,1.7-7.2,1.4v0c-0.1,0-0.3,0-0.4,0c-2.4-0.3-4.5-1.5-5.8-3.5c0-0.6-0.1-1.1-0.2-1.7c1,0.6,2.1,1.1,3.2,1.5c-0.3,0.2-0.5,0.5-0.5,0.9c0,0.5,0.5,0.9,1.5,1.3c0.7,0.2,1.4,0.6,1.9,1.2c0.1,0.1,0.2,0.1,0.2,0c0.1-0.1,0.1-0.2,0-0.2c-0.6-0.6-1.3-1-2-1.2c-0.8-0.3-1.3-0.7-1.3-1s0.4-0.6,0.6-0.7c2,0.6,4,0.9,6.1,0.9h0.4c0.1,0,0.2-0.1,0.2-0.2c0-0.1-0.1-0.1-0.2-0.2c-6,0.1-9.5-2.2-10.3-2.7c0-0.1-0.1-0.1-0.1-0.2c0,0,0,0,0-0.1c1.9,1.4,4.2,2.2,6.5,2.2h0.2c0.2,0,0.4,0,0.4,0c1.7,0.2,3.5,0.4,5.2,0.4c0.3,0,0.6,0,0.9,0c0.1,0,0.2,0,0.2,0C45.3,27.5,45.7,28,45.6,28.6L45.6,28.6z M44.3,22.5c0-0.1,0.1-0.1,0.2-0.1c0,0,0,0,0,0c0,0,0.6,0.3,0.7,0.8c0,0.4-0.2,0.7-0.7,1.1c-0.1,0.1-0.2,0-0.2,0c-0.1-0.1,0-0.2,0-0.2c0.4-0.3,0.6-0.6,0.5-0.8c0-0.3-0.5-0.5-0.5-0.5C44.3,22.7,44.3,22.6,44.3,22.5z M43.8,24.4c0-0.1,0.1-0.2,0.2-0.2s0.2,0.1,0.2,0.2c0,0.1-0.1,0.2-0.2,0.2C43.9,24.6,43.8,24.6,43.8,24.4L43.8,24.4z M45.3,28.2c0.1,0.3,0,0.7-0.4,1.1c0,0-0.1,0.1-0.1,0.1c0,0-0.1,0-0.1,0c-0.1-0.1-0.1-0.2,0-0.2c0.2-0.2,0.4-0.5,0.3-0.7c-0.1-0.3-0.6-0.4-0.8-0.4c-0.1,0-0.2-0.1-0.1-0.2c0-0.1,0.1-0.2,0.2-0.1C44.4,27.6,45.1,27.7,45.3,28.2L45.3,28.2z M44.6,29.5c0,0.1-0.1,0.1-0.1,0.1s-0.1-0.1-0.1-0.1s0.1-0.1,0.1-0.1l0,0C44.5,29.3,44.6,29.4,44.6,29.5z"/>
</svg>
