<svg xmlns="http://www.w3.org/2000/svg" viewBox="0 0 24 18">
	<g>
		<path d="M23.3,14.9c-0.3,0-0.5,0.2-0.5,0.5l0,0v1.8h-2.7V14c0-0.3-0.2-0.5-0.5-0.5s-0.5,0.2-0.5,0.5v3.1h-2.7V14c0-0.3-0.2-0.5-0.5-0.5c-0.3,0-0.5,0.2-0.5,0.5v3.1h-2.7V14c0-0.3-0.2-0.5-0.5-0.5s-0.5,0.2-0.5,0.5v3.1H9.1V14c0-0.3-0.2-0.5-0.5-0.5S8.2,13.8,8.2,14v3.1c-0.7,0-1.4-0.2-2.1-0.3V14c0-0.3-0.2-0.5-0.5-0.5S5.2,13.8,5.2,14v2.5C4.6,16.3,4,16,3.4,15.7l-0.1-0.1v-2.8c0-0.3-0.2-0.5-0.5-0.5s-0.5,0.2-0.5,0.5v2.1c-0.7-0.6-1.2-1.5-1.2-2.5V6.8l0,0l0,0L1.3,7l0,0l0.1,0.1l0,0c0,0,0.1,0.1,0.1,0.1l0,0l0.1,0.1l0,0l0.1,0.1l0,0l0.1,0.1l0,0L2,7.7l0,0l0.1,0.1l0,0l0.1,0.1l0,0L2.4,8l0.1,0l0.1,0.1l0.1,0l0.1,0.1l0,0l0.1,0.1c1.9,1.1,4,1.6,6.1,1.6h13.7v1.8c0,0.3,0.2,0.5,0.5,0.5s0.5-0.2,0.5-0.5V9.4c0-0.3-0.2-0.5-0.5-0.5l0,0h-9.6V4.3c-0.1-1.3-0.9-2.5-2.1-3.1C10.2,0.4,8.6,0,7,0C5.3,0,3.7,0.4,2.3,1.2C1.1,1.8,0.4,3,0.3,4.3v8.1c0.1,1.7,1.1,3.2,2.7,4c1.7,1,3.7,1.5,5.7,1.6c0,0,0.1,0,0.1,0c0.1,0,0.2,0,0.3,0h14.2c0.3,0,0.5-0.2,0.5-0.5l0,0v-2.2C23.7,15.1,23.5,14.9,23.3,14.9z M2.8,2C4.1,1.3,5.5,0.9,7,0.9c1.5,0,2.9,0.3,4.2,1.1c0.9,0.4,1.5,1.3,1.6,2.3c0,1.1-1.7,2.1-3.7,2.1c-0.1,0-0.3,0-0.4,0V3.3c0-0.1,0-0.1,0-0.2C8.6,3,8.6,3,8.5,2.9c0,0-0.1-0.1-0.1-0.1C8,2.7,7.5,2.6,7,2.6c-1.4,0-2.5,0.8-2.5,1.7C4.5,5.2,5,6.1,5.9,6.5c1,0.6,2.1,0.8,3.2,0.8c1.1,0,2.2-0.3,3.2-0.8c0.2-0.1,0.4-0.2,0.5-0.4V9H9.1c-2,0-3.9-0.5-5.7-1.4c-1.2-0.6-2-1.7-2.2-3c0-0.1,0-0.1,0-0.2C1.3,3.3,1.9,2.4,2.8,2z M7.8,6.3C6.4,6,5.4,5.2,5.4,4.3c0-0.4,0.7-0.8,1.6-0.8c0.3,0,0.5,0,0.8,0.1L7.8,6.3z"/>
		<path d="M23.3,13c-0.3,0-0.5,0.2-0.5,0.5c0,0.3,0.2,0.5,0.5,0.5c0.3,0,0.5-0.2,0.5-0.5C23.7,13.2,23.5,13,23.3,13z"/>
	</g>
</svg>
