<svg xmlns="http://www.w3.org/2000/svg" fill="#000" viewBox="0 0 26 26" width="26" height="26">
	<g>
		<path d="M17.6,0.5H8.4c-1.2,0-2.2,1-2.2,2.2v20.6c0,1.2,1,2.2,2.2,2.2h9.2c1.2,0,2.2-1,2.2-2.2V2.7C19.8,1.5,18.8,0.5,17.6,0.5z M18.9,23.3c0,0.7-0.6,1.3-1.3,1.3H8.4c-0.7,0-1.3-0.6-1.3-1.3V2.7c0-0.7,0.6-1.3,1.3-1.3h9.2c0.7,0,1.3,0.6,1.3,1.3C18.9,2.7,18.9,23.3,18.9,23.3z"/>
		<path d="M11.5,3.1h3.1V4h-3.1V3.1z"/>
		<path d="M12.3,1.8h1.3v0.9h-1.3V1.8z"/>
		<path d="M13,21.1c-0.8,0-1.5,0.7-1.5,1.5c0,0.8,0.7,1.5,1.5,1.5c0.8,0,1.5-0.7,1.5-1.5C14.5,21.8,13.9,21.1,13,21.1z M13,23.3c-0.4,0-0.7-0.3-0.7-0.7c0-0.4,0.3-0.7,0.7-0.7s0.7,0.3,0.7,0.7l0,0C13.7,23,13.4,23.3,13,23.3z"/>
	</g>
</svg>
