<svg xmlns="http://www.w3.org/2000/svg" viewBox="0 0 26 26">
	<path d="M25.6,2.6C25.3,2.2,24.8,2,24.2,2c-0.3,0-0.6,0.1-0.9,0.2l-22,8.4C0.1,11,0,11.7,0,12.1s0.2,1,1.4,1.4l0,0L6,14.8l2.5,7.1c0.2,0.9,1,1.5,2,1.6c0.6,0,1.2-0.3,1.6-0.7l2.8-2.6l4.1,3.3l0,0l0,0c0.4,0.3,0.9,0.5,1.4,0.5c1,0,1.8-0.8,1.9-1.8l3.6-17.8C26.1,3.8,26,3.1,25.6,2.6z M7.5,14.5l8.8-4.5l-5.5,5.8c-0.1,0.1-0.2,0.2-0.2,0.3l-1.1,4.3L7.5,14.5z M11,21.6c0,0-0.1,0.1-0.1,0.1l1-4l1.8,1.4L11,21.6z M24.4,4.1l-3.6,17.8c0,0.2-0.1,0.6-0.4,0.6c-0.2,0-0.4-0.1-0.5-0.2l-4.6-3.7l-2.8-2.2l7.9-8.4c0.3-0.3,0.3-0.8,0-1.1c-0.2-0.2-0.6-0.3-0.9-0.1l-13,6.7L1.9,12l22-8.4c0.1-0.1,0.3-0.1,0.4-0.1c0,0,0.1,0,0.2,0C24.5,3.7,24.5,3.9,24.4,4.1L24.4,4.1z"/>
</svg>
