<svg xmlns="http://www.w3.org/2000/svg" viewBox="0 0 26 26">
	<g>
		<path d="M13.6,8.4c0,0.2,0.1,0.3,0.3,0.3c0.9-0.1,1.6,0.6,1.7,1.5c0,0.1,0,0.2,0,0.2c0,0.2,0.2,0.3,0.3,0.3h0c0.2,0,0.3-0.2,0.3-0.3c0.1-1.2-0.8-2.3-2.1-2.3c-0.1,0-0.1,0-0.2,0C13.7,8.1,13.6,8.3,13.6,8.4C13.6,8.4,13.6,8.4,13.6,8.4z"/>
		<path d="M17.2,11c0,0.2,0.1,0.3,0.3,0.3c0,0,0,0,0,0h0c0.2,0,0.3-0.1,0.3-0.3c0.1-1.2-0.4-2.4-1.1-3.2c-0.9-0.9-2.1-1.4-3.3-1.5c-0.2,0-0.3,0.1-0.4,0.3c0,0.2,0.1,0.3,0.3,0.4c1.1,0,2.1,0.5,2.9,1.2C16.9,9,17.3,10,17.2,11z"/>
		<path d="M16.5,13.8c-0.4-0.3-1-0.2-1.4,0.2l-0.5,0.6c-0.2,0.2-0.4,0.3-0.7,0.3c-2.1-0.6-3.7-2.2-4.3-4.3c0-0.3,0.1-0.5,0.3-0.7l0.6-0.5c0.4-0.3,0.5-0.9,0.2-1.4c-0.5-0.8-1-1.6-1.7-2.3C8.8,5.4,8.3,5.3,7.9,5.5h0C7.4,5.8,7,6.1,6.6,6.5l0,0C6.2,7,6,7.6,6.2,8.2l0,0c1,2.9,2.7,5.4,5,7.3c1.6,1.2,3.3,2.2,5.2,2.9l0,0c0.6,0.2,1.2,0,1.6-0.4l0,0c0.4-0.4,0.7-0.8,1-1.2v0c0.2-0.4,0.2-0.9-0.2-1.2C18.1,14.9,17.3,14.3,16.5,13.8z"/>
		<path d="M12.8,4.7c-0.2,0-0.3,0.1-0.3,0.3s0.1,0.3,0.3,0.3c1.6,0,3.2,0.6,4.4,1.7c1.2,1.3,1.8,3,1.8,4.7c0,0.2,0.1,0.3,0.3,0.3c0.2,0,0.3-0.1,0.3-0.3c0.1-1.9-0.6-3.8-2-5.2C16.4,5.3,14.6,4.6,12.8,4.7z"/>
		<path d="M13.5,0c0,0-6.9-0.4-10.2,2.7c-1.9,1.9-2.5,4.6-2.6,8s-0.2,9.7,5.9,11.4h0v2.6c0,0,0,1.1,0.7,1.3c0.8,0.3,1.3-0.5,2.1-1.4c0.4-0.5,1.1-1.2,1.5-1.7c2.6,0.2,5.2,0,7.7-0.6c0.8-0.3,5.6-0.9,6.4-7.2c0.8-6.5-0.4-10.6-2.5-12.5C21.9,1.9,19.3,0,13.5,0z M23.2,14.6c-0.7,5.3-4.5,5.6-5.2,5.8c-2.2,0.5-4.4,0.7-6.7,0.6c0,0-2.6,3.2-3.5,4c-0.1,0.1-0.2,0.2-0.4,0.2c-0.1,0-0.2-0.2-0.2-0.4l0-4.4c-5.2-1.4-4.9-6.8-4.8-9.6S3.1,5.6,4.7,4c2.8-2.6,8.7-2.2,8.7-2.2c4.9,0,7.3,1.5,7.8,2C23,5.4,23.9,9.1,23.2,14.6z"/>
	</g>
</svg>
