<svg xmlns="http://www.w3.org/2000/svg" viewBox="0 0 26 26">
	<g>
		<path d="M14.4,19.6c4.4,1,5.9-2.7,5.1-4.1c-0.3-0.6-3.1-1.6-3.2-1.7c-1.2-0.4-1.6,0.4-2.5,1.4c-1.6-0.6-2.9-1.8-3.7-3.2c0.1-0.1,0.1-0.2,0.2-0.2c0.7-0.5,0.9-1.4,0.6-2.2c-0.3-0.6-0.6-1.2-0.8-1.8C9.8,6.6,9.4,6.2,7.9,6.2c-1.6,0-2.8,2.1-2.8,3.8C5.2,13.9,10.4,18.6,14.4,19.6z M7.9,7.9c0.2,0,0.4,0,0.6,0c0.3,0.8,0.6,1.6,1,2.3c-0.1,0.4-1.5,1.3-0.9,2.4c1.1,1.9,2.7,3.3,4.7,4.1c1.3,0.6,1.7-0.5,2.5-1.4c0.4,0.2,1.7,0.7,2.2,1c-0.1,1.1-1.1,2.2-3.3,1.6c-3.8-0.9-8-5.1-8-7.9C6.8,9,7.5,7.9,7.9,7.9L7.9,7.9z"/>
		<path d="M0.1,25c-0.1,0.4,0.1,0.9,0.6,1c0.1,0,0.1,0,0.2,0c0.2,0-0.1,0,6.3-1.6c1.8,0.9,3.8,1.4,5.9,1.4c11.4,0,17-13.9,9.1-22C11.5-6.6-5.3,6.3,1.8,19.1L0.1,25z M21,4.8c0.2,0.3,5.5,5.2,2.6,12.4c-1.7,4.4-6.1,7.2-10.8,6.9c-3.9-0.2-4.9-1.6-5.6-1.4l-5.1,1.3l1.3-4.9c0.1-0.2,0-0.4-0.1-0.6C-3.1,7.4,11.5-4.1,21,4.8z"/>
	</g>
</svg>
