<?xml version="1.0" standalone="no"?>
<!DOCTYPE svg PUBLIC "-//W3C//DTD SVG 20010904//EN"
 "http://www.w3.org/TR/2001/REC-SVG-20010904/DTD/svg10.dtd">
<svg version="1.0" xmlns="http://www.w3.org/2000/svg"
 width="1120.000000pt" height="1120.000000pt" viewBox="0 0 1120.000000 1120.000000"
 preserveAspectRatio="xMidYMid meet">
<metadata>
Created by potrace 1.11, written by Peter Selinger 2001-2013
</metadata>
<g transform="translate(0.000000,1120.000000) scale(0.100000,-0.100000)"
fill="#000000" stroke="none">
<path d="M5349 9091 c-77 -50 -112 -102 -133 -202 -3 -15 -18 -34 -33 -44 -75
-47 -134 -136 -172 -258 -24 -80 -21 -124 14 -201 14 -30 25 -57 25 -59 0 -9
-70 0 -152 19 -5 1 -21 2 -37 3 -28 1 -30 3 -41 73 -21 121 5 296 50 348 11
13 20 28 20 35 0 23 -121 280 -138 293 -29 23 -98 9 -125 -24 -12 -15 -25 -34
-28 -43 -3 -8 19 -62 49 -120 l54 -106 -22 -85 c-28 -108 -29 -114 -37 -180
-12 -112 -3 -227 25 -300 5 -14 7 -31 5 -37 -3 -8 3 -13 14 -13 10 0 52 -14
93 -30 l75 -30 -60 5 c-33 3 -76 8 -95 10 -44 5 -164 17 -210 20 -32 2 -137
13 -200 20 -14 1 -59 6 -100 10 -41 4 -82 9 -90 10 -8 1 -51 6 -95 10 -44 4
-96 9 -115 11 -19 3 -55 7 -80 9 -82 8 -155 15 -190 20 -19 2 -64 7 -100 10
-36 3 -82 8 -102 10 -21 3 -55 7 -75 10 -21 2 -67 7 -103 10 -36 4 -81 9 -100
11 -33 4 -111 11 -187 17 -18 1 -33 0 -33 -4 0 -3 -20 -3 -45 1 -25 4 -45 3
-45 -2 0 -5 -4 -6 -10 -3 -5 3 -119 8 -252 11 -134 2 -274 6 -313 9 -306 19
-488 33 -525 40 -14 2 -63 7 -110 11 -47 3 -94 8 -105 10 -29 5 -82 12 -155
20 -36 3 -67 7 -70 9 -3 1 -32 6 -65 9 -33 4 -67 9 -75 11 -8 2 -37 7 -65 10
-27 3 -57 7 -65 10 -21 5 -110 18 -137 19 -13 1 -23 3 -23 6 0 3 -8 6 -17 7
-26 1 -123 13 -158 20 -56 10 -178 4 -234 -13 -170 -49 -314 -186 -370 -350
-24 -74 -22 -240 4 -319 52 -151 177 -312 340 -435 33 -25 62 -48 63 -52 2 -5
8 -8 12 -8 5 0 31 -15 57 -32 121 -83 356 -204 498 -258 33 -12 74 -28 90 -35
17 -8 53 -21 80 -30 28 -9 57 -19 65 -22 8 -3 20 -7 25 -8 6 -1 33 -10 60 -20
28 -9 57 -18 65 -20 8 -3 40 -11 70 -20 65 -19 54 -16 210 -53 69 -16 143 -33
165 -38 22 -4 42 -8 45 -9 8 -2 93 -18 115 -21 11 -2 35 -5 54 -8 44 -6 52
-16 15 -17 -16 -1 -42 -2 -59 -4 -16 -1 -88 -5 -160 -9 -71 -4 -159 -9 -195
-12 -36 -2 -126 -6 -200 -10 -74 -3 -164 -7 -200 -9 -36 -2 -204 -6 -375 -10
-543 -11 -505 -7 -610 -59 -218 -108 -356 -382 -304 -606 22 -98 104 -229 194
-313 56 -53 236 -166 358 -225 161 -78 382 -156 567 -200 172 -41 201 -47 330
-67 52 -8 113 -17 135 -20 22 -4 56 -8 75 -10 19 -3 60 -7 90 -10 30 -4 82 -8
115 -11 33 -2 87 -7 120 -10 108 -10 1059 -13 1100 -4 38 8 61 13 120 25 60
12 73 15 135 30 36 9 72 18 80 20 58 12 356 113 400 135 19 10 37 18 40 18 20
2 254 114 360 174 372 209 728 532 919 836 l34 53 3 150 c2 142 5 180 22 273
l7 39 48 -96 48 -96 3 -2128 c2 -1170 6 -2146 10 -2168 12 -71 57 -264 70
-302 13 -37 14 -38 62 -38 48 0 49 0 46 29 -2 16 -10 42 -18 58 -13 25 -4 42
11 18 9 -14 52 -12 58 3 4 8 6 9 6 0 1 -6 -4 -24 -11 -40 -6 -15 -12 -30 -12
-33 -1 -3 -5 -11 -9 -18 -11 -17 11 -24 64 -20 l44 3 23 80 c13 44 25 91 28
105 3 14 7 32 9 40 6 23 15 77 24 150 5 36 9 1025 9 2199 1 1828 3 2135 15
2150 20 23 75 144 89 196 11 39 26 59 29 38 3 -22 9 -61 13 -83 2 -14 7 -43
11 -65 3 -22 8 -51 10 -65 13 -73 23 -195 24 -295 1 -33 12 -56 58 -120 357
-501 898 -885 1553 -1102 41 -13 82 -26 90 -28 133 -35 292 -74 315 -78 17 -3
53 -10 80 -15 50 -8 930 -7 1035 2 30 2 93 7 140 10 147 11 218 19 301 32 14
2 41 6 60 8 43 6 133 21 179 31 14 3 41 8 60 11 19 3 61 12 93 20 32 7 71 16
86 19 96 17 392 117 519 176 46 22 85 39 87 39 4 0 119 66 156 89 169 105 254
192 321 326 21 41 42 102 39 112 0 2 9 29 22 60 16 44 22 79 22 143 0 76 -4
93 -32 151 -46 93 -120 167 -215 215 -96 49 -124 52 -485 54 -485 2 -790 10
-958 26 -27 2 -77 6 -110 9 -154 11 -233 20 -242 28 -2 3 13 7 34 11 64 10 96
16 149 27 28 5 62 12 77 14 31 6 67 13 100 20 12 3 31 7 42 9 29 6 265 66 300
77 17 5 53 16 80 25 28 9 61 18 75 21 14 2 29 8 35 14 5 5 15 9 23 9 44 0 450
180 564 250 18 11 41 23 51 26 9 4 17 10 17 15 0 5 5 9 11 9 13 0 182 126 229
172 87 83 220 251 220 277 0 6 5 11 12 11 6 0 8 3 5 7 -4 3 -3 11 2 17 8 11
26 62 38 107 3 13 6 60 7 104 3 125 -38 241 -121 344 -21 25 -41 47 -45 49 -4
2 -24 17 -44 33 -52 41 -148 85 -218 99 -90 18 -240 16 -346 -5 -14 -3 -38 -7
-55 -10 -16 -3 -41 -7 -55 -10 -14 -3 -38 -7 -55 -9 -48 -7 -118 -18 -137 -22
-9 -1 -41 -5 -70 -8 -29 -4 -62 -8 -74 -10 -24 -5 -100 -15 -163 -21 -24 -2
-60 -7 -80 -9 -41 -6 -151 -17 -196 -21 -16 -1 -64 -6 -105 -10 -106 -10 -141
-13 -435 -31 -33 -2 -203 -6 -379 -8 -175 -3 -321 -7 -323 -10 -3 -2 -17 0
-33 4 -16 4 -31 6 -33 4 -6 -6 -35 -11 -107 -18 -132 -13 -158 -16 -210 -22
-30 -3 -68 -7 -85 -9 -16 -2 -61 -6 -100 -9 -38 -3 -80 -8 -91 -10 -12 -2 -60
-7 -106 -11 -47 -3 -96 -8 -110 -10 -14 -3 -56 -7 -94 -11 -38 -3 -87 -7 -109
-9 -22 -2 -67 -6 -100 -9 -33 -3 -85 -9 -115 -12 -72 -9 -100 -11 -185 -19
-84 -7 -125 -14 -138 -22 -6 -4 -7 -1 -2 7 5 7 4 11 -1 8 -12 -8 -136 -23
-244 -30 -35 -2 3 28 59 48 20 7 36 16 36 21 1 4 9 42 20 83 20 77 27 249 13
320 -9 50 -38 140 -54 173 -9 16 -10 27 -4 27 5 0 10 5 10 12 0 6 20 51 45 99
49 97 55 127 26 153 -15 14 -29 16 -64 11 l-45 -7 -68 -136 c-53 -109 -64
-139 -55 -151 43 -59 73 -191 67 -294 -6 -115 -14 -143 -44 -157 -25 -11 -192
-24 -192 -14 0 2 9 23 19 47 36 78 44 143 28 217 -15 70 -93 177 -182 250 -17
14 -31 27 -31 30 -11 107 -44 168 -128 238 -11 9 -75 12 -239 12 l-223 0 -45
-29z m459 -472 c52 -29 97 -74 123 -123 25 -47 22 -76 -12 -116 l-21 -25 -272
-1 c-183 -1 -273 2 -278 9 -9 14 0 105 13 129 5 10 7 18 3 18 -8 0 56 113 68
121 6 4 84 7 175 7 148 1 168 -1 201 -19z m-592 -123 c-1 -52 -10 -66 -25 -38
-11 21 -7 46 12 70 14 17 14 17 13 -32z m-4527 -121 c40 -8 70 -14 161 -30 80
-14 109 -18 198 -30 20 -3 48 -7 62 -10 14 -2 48 -7 75 -10 28 -3 61 -8 75
-11 14 -2 43 -6 65 -9 86 -10 141 -17 165 -20 32 -5 131 -15 190 -20 25 -3 72
-7 104 -11 80 -8 129 -13 211 -19 39 -3 95 -7 125 -10 30 -3 91 -7 135 -10 44
-2 121 -7 170 -10 50 -4 125 -8 168 -9 43 -2 83 -8 89 -14 5 -5 8 -27 6 -48
l-3 -38 -255 -2 c-242 -1 -306 -5 -409 -24 -25 -4 -52 -7 -61 -5 -9 2 -43 6
-76 9 -32 4 -93 11 -134 16 -41 5 -95 12 -120 14 -25 3 -61 7 -80 10 -37 6
-89 12 -185 22 -33 3 -71 8 -85 10 -14 3 -54 7 -90 10 -78 6 -131 19 -184 45
-50 24 -92 25 -104 2 -11 -23 3 -80 20 -80 7 0 67 -16 133 -36 105 -31 187
-50 260 -62 25 -4 82 -14 115 -20 14 -2 44 -7 68 -10 23 -3 59 -7 80 -10 20
-3 71 -7 112 -10 41 -2 75 -5 75 -5 0 -10 435 4 510 15 17 3 101 7 189 10
l158 4 -42 -37 c-60 -51 -105 -101 -162 -179 -56 -79 -63 -118 -22 -133 34
-13 54 -1 79 47 21 40 90 148 111 173 42 49 111 113 130 121 13 4 33 6 46 4
23 -5 119 -15 193 -20 22 -2 40 -4 40 -5 0 -1 25 -3 55 -5 30 -3 78 -7 105
-10 28 -2 70 -7 95 -9 25 -3 81 -8 125 -11 44 -3 94 -8 110 -10 17 -3 62 -7
100 -10 39 -3 86 -7 105 -9 38 -4 178 -16 248 -21 23 -2 68 -6 100 -9 83 -9
138 -14 217 -21 39 -3 86 -8 105 -10 19 -2 64 -7 100 -10 36 -3 85 -7 110 -10
25 -2 74 -7 108 -10 35 -2 82 -7 105 -10 23 -2 69 -7 102 -10 207 -17 205 -16
205 -71 l0 -44 -57 4 c-32 2 -58 5 -58 6 0 0 -31 3 -70 5 -38 3 -99 7 -135 10
-36 3 -101 7 -145 10 -44 3 -102 7 -130 10 -27 2 -90 7 -140 10 -49 4 -110 8
-135 11 -25 2 -81 7 -125 9 -44 3 -107 7 -140 9 -33 2 -112 7 -175 11 -63 4
-135 9 -160 11 -25 2 -88 6 -140 9 -52 4 -115 7 -140 9 -25 2 -55 0 -67 -5
-47 -17 -54 -81 -13 -107 11 -7 55 -15 98 -17 42 -3 106 -7 142 -10 36 -3 101
-7 145 -10 44 -4 105 -8 135 -10 30 -3 93 -7 140 -11 47 -3 105 -7 130 -9 25
-2 83 -6 129 -9 45 -3 102 -8 125 -11 22 -2 79 -7 126 -10 47 -3 112 -8 145
-11 33 -2 87 -6 120 -9 33 -2 96 -7 140 -11 44 -4 103 -7 132 -8 49 -1 51 -2
35 -18 -9 -9 -31 -25 -49 -35 -17 -10 -78 -46 -135 -79 -145 -86 -318 -172
-503 -249 -128 -53 -373 -136 -445 -150 -19 -4 -39 -10 -45 -13 -5 -4 -16 -7
-24 -9 -7 -1 -34 -7 -60 -13 -25 -6 -55 -12 -66 -14 -11 -3 -41 -9 -68 -15
-26 -6 -64 -14 -85 -17 -20 -3 -44 -7 -52 -10 -8 -2 -38 -6 -65 -9 -28 -3 -57
-8 -65 -10 -8 -2 -46 -7 -85 -11 -38 -3 -86 -8 -105 -10 -19 -2 -123 -7 -230
-10 -167 -6 -201 -4 -234 10 -22 9 -58 18 -80 21 -23 2 -68 7 -101 10 -33 3
-73 8 -90 10 -97 12 -133 17 -155 20 -79 13 -158 25 -175 29 -46 9 -111 20
-130 22 -11 1 -49 9 -85 17 -36 9 -76 18 -90 20 -14 3 -79 19 -145 37 -66 18
-127 33 -135 35 -42 9 -308 102 -400 140 -120 49 -303 135 -310 145 -3 4 -15
10 -27 14 -11 4 -49 25 -82 46 -34 22 -64 40 -67 40 -5 0 -29 18 -81 60 -7 6
-16 10 -22 10 -5 0 -11 3 -13 8 -1 4 -23 23 -48 43 -93 75 -182 175 -215 239
-71 142 -50 315 53 430 88 100 253 147 401 115z m10040 -45 c97 -35 176 -102
219 -185 22 -43 26 -63 26 -140 0 -64 -6 -105 -19 -140 -24 -63 -62 -134 -86
-161 -11 -11 -19 -32 -19 -47 0 -15 -4 -27 -8 -27 -5 0 -40 -27 -78 -61 -153
-134 -402 -279 -659 -384 -16 -7 -43 -18 -60 -25 -38 -16 -278 -101 -285 -101
-3 0 -34 -8 -70 -19 -139 -41 -431 -113 -510 -125 -14 -2 -88 -15 -165 -29
-129 -23 -189 -32 -270 -41 -16 -2 -46 -6 -65 -9 -19 -3 -64 -8 -100 -11 -36
-4 -73 -9 -82 -11 -9 -3 -25 -7 -35 -9 -10 -2 -31 -8 -48 -13 -31 -9 -181 -8
-315 3 -156 12 -186 14 -225 20 -22 3 -62 8 -90 11 -27 3 -53 7 -56 9 -3 2
-28 7 -55 10 -27 4 -57 8 -66 11 -16 5 -39 10 -85 18 -107 21 -435 114 -503
143 -8 3 -17 7 -20 8 -26 6 -95 32 -137 51 -28 13 -54 24 -58 24 -3 0 -59 25
-123 56 -64 31 -126 60 -137 65 -44 21 -145 77 -224 124 -45 28 -96 58 -113
68 -17 10 -37 24 -45 32 -13 13 -10 15 24 16 21 1 58 3 83 4 25 2 77 6 115 9
153 10 242 17 285 22 77 8 223 17 272 18 27 1 48 3 48 6 0 3 17 5 38 6 20 0
78 4 127 8 50 4 117 9 150 11 33 2 89 7 125 10 112 10 162 14 270 21 180 12
164 10 184 30 22 21 20 67 -4 89 -17 15 -32 17 -127 11 -105 -7 -126 -8 -283
-21 -41 -4 -93 -8 -115 -10 -113 -9 -195 -16 -245 -20 -30 -2 -86 -7 -125 -10
-95 -7 -177 -14 -255 -20 -36 -3 -99 -8 -140 -10 -41 -3 -97 -7 -125 -10 -27
-2 -104 -7 -170 -10 -66 -3 -148 -8 -182 -10 -62 -3 -63 -3 -64 23 0 15 -1 51
-2 79 -2 61 -6 59 128 68 44 3 96 8 115 10 19 2 71 6 115 10 44 3 96 8 115 10
19 2 67 6 105 10 39 3 84 7 100 9 35 4 172 17 230 22 63 5 145 13 200 18 28 3
84 8 125 11 41 3 86 8 100 10 14 2 55 7 93 10 37 3 86 7 110 10 23 2 65 7 92
9 28 3 73 8 100 11 28 3 77 7 110 10 60 6 101 10 205 19 55 6 125 13 190 22
19 2 64 7 99 9 58 4 68 2 100 -22 39 -29 136 -125 161 -158 49 -65 103 -169
93 -179 -3 -3 6 -10 19 -15 76 -29 102 31 51 118 -23 41 -69 107 -83 121 -8 8
-66 84 -73 96 -6 11 129 11 223 -1 203 -24 516 -24 725 0 128 15 158 19 210
29 17 3 44 9 60 12 125 22 375 93 375 106 0 15 2 23 10 38 5 10 2 28 -7 48
-20 40 -36 41 -150 3 -56 -19 -118 -32 -173 -36 -97 -6 -179 -12 -265 -19
-101 -9 -215 -18 -274 -21 -31 -2 -56 -4 -56 -5 0 -5 -191 -14 -285 -13 -114
0 -181 6 -230 19 -14 4 -83 8 -155 9 -71 2 -133 3 -137 4 -4 1 -6 13 -5 29 2
24 7 27 42 29 22 1 42 2 45 3 3 1 91 3 195 5 185 4 344 11 455 20 30 2 91 7
135 10 44 3 94 7 110 9 17 2 62 6 100 10 70 6 138 14 184 22 14 2 51 6 84 9
32 4 66 8 76 10 9 2 44 6 76 10 33 4 69 9 80 11 11 2 40 7 65 10 25 3 52 7 60
9 14 4 50 10 115 20 17 2 41 7 55 10 14 3 39 8 55 11 17 3 48 9 70 13 61 12
154 3 214 -19z m-7730 -176 c66 -3 165 -12 201 -18 14 -3 54 -7 90 -10 36 -4
75 -8 85 -10 11 -2 55 -7 97 -11 43 -3 92 -8 110 -11 18 -2 58 -6 88 -9 30 -2
71 -7 90 -9 38 -5 128 -15 200 -21 25 -3 63 -7 85 -10 22 -2 69 -7 105 -11 36
-3 76 -7 90 -9 14 -2 61 -7 105 -11 44 -3 89 -8 100 -10 11 -2 49 -7 83 -10
73 -6 128 -11 192 -19 25 -3 70 -7 100 -10 30 -3 75 -7 100 -10 25 -3 70 -7
100 -10 97 -8 95 -7 97 -59 l2 -46 -42 5 c-47 6 -120 13 -216 20 -35 3 -85 8
-110 10 -25 3 -76 7 -112 10 -36 2 -88 6 -115 9 -27 3 -83 8 -124 12 -41 3
-91 8 -110 10 -19 2 -69 6 -110 8 -82 6 -152 12 -245 22 -81 8 -103 10 -220
19 -55 4 -107 9 -116 10 -9 2 -56 6 -105 10 -49 4 -98 9 -109 11 -11 2 -49 6
-85 9 -36 3 -79 7 -97 9 -17 2 -64 7 -103 11 -39 4 -80 8 -89 10 -10 2 -42 6
-72 10 -30 3 -70 10 -90 16 -36 9 -38 15 -30 91 1 8 100 15 115 9 5 -2 34 -5
65 -7z m5316 7 c4 5 13 6 22 0 9 -4 23 -6 32 -4 14 3 16 -4 16 -43 0 -40 -3
-48 -20 -49 -11 -1 -49 -6 -85 -10 -96 -11 -166 -18 -285 -30 -27 -3 -68 -7
-90 -10 -22 -3 -71 -7 -110 -10 -38 -3 -81 -7 -95 -10 -14 -2 -59 -7 -100 -11
-41 -3 -86 -7 -100 -9 -57 -6 -157 -16 -190 -20 -19 -2 -66 -6 -105 -9 -38 -3
-90 -8 -115 -11 -25 -3 -74 -8 -110 -10 -36 -3 -81 -7 -100 -10 -19 -2 -71 -6
-115 -10 -44 -3 -91 -8 -105 -10 -14 -2 -59 -7 -100 -10 -41 -3 -93 -8 -115
-10 -22 -3 -74 -7 -115 -11 -41 -3 -91 -7 -110 -9 -19 -2 -66 -6 -105 -9 l-70
-5 3 50 c4 49 4 49 40 50 21 0 46 2 57 4 18 4 56 7 195 19 19 2 67 7 105 11
97 10 139 14 215 20 36 4 76 8 90 10 14 2 54 6 90 10 36 3 81 8 100 10 19 3
64 7 100 10 36 3 82 8 103 11 20 3 59 7 85 9 26 1 66 5 87 9 22 3 67 8 100 11
33 2 80 7 105 10 25 2 70 7 100 9 82 8 162 16 190 21 39 6 161 18 197 19 18 1
33 3 33 6 0 3 15 6 33 6 70 3 180 13 184 18 3 3 16 1 29 -4 14 -6 26 -6 29 1z
m-2943 -44 c4 -6 5 -23 2 -37 -2 -14 -6 -40 -8 -59 -6 -47 -47 -170 -68 -205
-17 -29 -17 -26 -17 141 l1 172 42 -1 c22 0 44 -5 48 -11z m320 4 c0 -3 2 -17
3 -31 9 -105 16 -174 20 -180 2 -3 6 -18 9 -32 6 -35 46 -176 58 -207 6 -14
14 -35 19 -46 15 -36 49 -126 49 -130 0 -3 -56 24 -124 59 -152 77 -163 78
-302 7 -56 -28 -104 -51 -108 -51 -16 0 3 50 41 106 57 84 116 227 129 314 2
14 6 39 9 55 2 17 7 55 9 85 3 30 5 56 5 57 2 5 181 -1 183 -6z m166 -4 c1 -7
5 -31 10 -54 5 -23 9 -58 8 -77 -1 -20 1 -36 4 -36 3 0 6 -40 7 -90 1 -49 -1
-90 -6 -90 -4 0 -13 19 -20 42 -18 59 -21 72 -41 178 -10 52 -19 100 -20 105
-5 24 2 32 28 33 16 0 29 -5 30 -11z m-131 -724 c65 -32 120 -59 121 -60 2 -1
-3 -14 -11 -30 -8 -15 -21 -44 -30 -65 l-16 -36 -121 -1 c-66 0 -125 -3 -130
-6 -6 -3 -10 -3 -10 2 0 4 -42 7 -93 6 l-93 -2 1 33 c0 32 33 106 47 106 3 0
48 25 100 55 51 30 99 54 105 55 7 0 66 -26 130 -57z m427 -68 c16 -11 44 -29
62 -40 19 -11 41 -27 51 -35 10 -8 29 -21 43 -28 14 -7 40 -21 58 -32 81 -50
105 -63 227 -124 120 -59 291 -134 375 -165 19 -7 44 -17 55 -21 17 -7 171
-54 260 -81 17 -4 44 -11 60 -14 17 -3 54 -11 84 -20 30 -8 58 -12 63 -9 4 3
8 1 8 -3 0 -5 8 -9 18 -9 9 -1 37 -4 62 -9 99 -17 220 -33 313 -41 39 -4 207
-8 372 -9 165 -2 314 -5 330 -8 17 -3 62 -8 100 -12 39 -3 88 -8 110 -11 22
-3 60 -7 85 -9 71 -6 182 -17 215 -20 17 -2 64 -6 107 -9 42 -4 96 -9 120 -11
23 -3 79 -7 123 -10 44 -3 108 -8 142 -10 103 -8 268 -15 445 -20 92 -2 172
-6 177 -9 5 -4 12 -2 15 3 4 6 18 6 36 1 19 -5 30 -5 30 1 0 6 5 7 10 4 6 -4
41 -6 78 -6 82 2 95 2 192 1 53 0 68 0 83 1 71 3 152 -35 222 -106 127 -126
161 -319 84 -463 -78 -143 -163 -216 -369 -315 -160 -76 -355 -149 -463 -172
-9 -2 -21 -6 -25 -9 -5 -3 -19 -7 -33 -10 -13 -2 -64 -14 -114 -26 -49 -12
-101 -24 -115 -26 -14 -3 -47 -9 -75 -14 -27 -5 -66 -12 -85 -15 -19 -3 -46
-7 -60 -10 -14 -2 -44 -7 -67 -10 -24 -3 -60 -7 -80 -10 -70 -9 -197 -20 -368
-31 -202 -13 -907 -5 -975 11 -14 3 -38 7 -55 9 -121 15 -379 84 -540 144
-379 142 -706 352 -990 636 -136 136 -213 225 -292 338 l-54 78 -4 87 c-4 85
-10 150 -21 223 -3 19 -7 53 -9 75 -2 22 -10 73 -18 113 -8 39 -12 72 -11 72
2 0 52 -29 111 -64 189 -111 553 -299 643 -331 6 -2 64 -27 125 -55 22 -10 74
-32 115 -49 75 -32 105 -51 82 -51 -12 0 -69 -53 -104 -98 -19 -24 -50 -89
-67 -144 -22 -67 1 -136 73 -215 86 -95 228 -178 463 -268 155 -60 390 -179
423 -215 3 -3 28 -20 55 -39 28 -19 84 -64 125 -101 41 -37 84 -71 94 -77 25
-14 60 1 81 34 17 26 15 28 -120 144 -22 19 -46 40 -53 47 -7 6 -64 45 -125
86 -137 91 -287 169 -427 221 -297 109 -428 213 -436 344 -4 81 49 168 141
231 l43 29 128 -38 c193 -58 394 -109 532 -136 13 -2 31 -6 40 -9 9 -3 33 -7
52 -10 44 -7 82 -14 145 -26 28 -6 68 -12 90 -15 71 -10 99 -14 135 -20 19 -3
55 -7 80 -10 25 -2 68 -7 95 -10 227 -29 618 -49 883 -46 59 1 63 3 82 33 15
25 17 36 8 52 -22 41 -36 44 -248 46 -251 2 -432 10 -570 25 -25 3 -74 7 -110
10 -36 3 -100 10 -142 16 -43 5 -90 12 -105 14 -44 5 -115 16 -148 21 -16 3
-43 7 -60 10 -16 2 -41 6 -55 9 -14 3 -38 7 -55 10 -16 3 -43 8 -60 12 -16 3
-39 7 -50 9 -30 4 -229 51 -320 75 -44 11 -89 23 -101 25 -11 2 -107 31 -213
64 -206 65 -389 132 -561 207 -171 74 -503 242 -520 263 -3 4 -13 9 -23 13
-10 4 -71 42 -136 84 -81 54 -127 90 -144 117 -39 61 -24 72 36 28 29 -21 65
-46 81 -57z m-1005 8 c-13 -15 -173 -123 -183 -123 -5 0 -108 -62 -116 -70 -3
-3 -30 -18 -60 -34 -30 -15 -97 -50 -148 -77 -52 -27 -100 -49 -108 -49 -8 0
-14 -4 -14 -10 0 -5 -4 -10 -9 -10 -6 0 -49 -18 -97 -40 -96 -45 -407 -170
-422 -170 -5 0 -23 -7 -40 -15 -17 -9 -39 -18 -49 -20 -10 -2 -70 -21 -133
-41 -103 -32 -270 -80 -310 -90 -8 -1 -30 -7 -49 -13 -18 -6 -36 -10 -40 -9
-3 1 -13 -1 -21 -5 -18 -7 -95 -24 -235 -52 -127 -26 -270 -51 -335 -60 -25
-3 -56 -8 -70 -10 -14 -2 -43 -7 -65 -9 -22 -3 -62 -7 -90 -11 -114 -13 -195
-20 -340 -30 -185 -12 -223 -14 -425 -16 -107 -1 -205 -5 -216 -10 -12 -4 -26
-21 -32 -37 -9 -25 -7 -33 7 -46 10 -9 23 -16 29 -16 7 0 12 -4 12 -9 0 -8 97
-14 170 -12 23 1 141 0 149 -1 3 0 8 0 11 1 3 1 57 4 120 6 116 4 214 10 325
19 142 12 192 17 225 21 19 2 58 7 85 10 28 3 64 8 80 11 17 3 44 7 60 9 27 3
60 8 134 20 13 2 45 8 70 12 25 4 48 8 51 8 6 2 63 13 105 21 17 3 35 6 40 8
10 2 117 26 145 31 8 2 15 4 15 5 0 1 14 4 30 6 17 3 41 9 55 14 21 8 99 29
170 46 8 2 66 19 129 38 l114 35 45 -26 c60 -35 130 -108 141 -147 41 -150
-108 -291 -468 -443 -58 -25 -110 -46 -116 -47 -21 -5 -201 -98 -242 -127 -24
-16 -46 -29 -49 -29 -3 0 -31 -19 -62 -42 -81 -59 -222 -198 -229 -226 -10
-41 31 -89 74 -88 11 1 46 30 151 124 31 28 170 123 247 169 54 33 148 78 225
109 47 19 94 40 105 45 12 6 28 11 36 12 8 2 64 26 123 56 220 108 350 241
370 381 4 33 -20 114 -49 160 -22 35 -77 84 -120 108 -23 12 -35 6 150 75 269
101 586 262 820 417 97 64 94 63 91 43 -2 -10 -6 -39 -10 -64 -4 -25 -9 -57
-11 -70 -17 -92 -33 -253 -39 -381 -2 -39 -10 -57 -51 -110 -27 -35 -52 -65
-55 -68 -3 -3 -25 -30 -50 -60 -61 -76 -258 -275 -328 -332 -31 -25 -70 -58
-87 -72 -53 -47 -217 -160 -322 -224 -109 -66 -350 -187 -395 -197 -16 -4 -28
-10 -28 -14 0 -4 -6 -8 -12 -8 -7 -1 -53 -16 -103 -33 -86 -31 -202 -65 -255
-76 -14 -2 -38 -9 -55 -14 -69 -21 -289 -48 -405 -51 -263 -5 -700 -3 -805 5
-170 12 -267 21 -345 32 -97 13 -159 22 -250 38 -65 11 -85 15 -175 36 -100
23 -97 22 -180 44 -33 9 -67 19 -75 21 -194 52 -478 178 -624 278 -128 87
-182 161 -201 277 -3 19 -11 50 -16 69 -17 51 -5 179 20 230 42 81 134 159
211 179 8 2 119 6 245 7 306 5 662 14 755 20 41 3 113 7 160 10 123 8 197 13
260 20 30 3 84 8 120 10 36 3 90 8 120 11 30 3 71 7 90 8 62 6 164 16 200 21
19 2 64 7 100 11 36 3 79 8 95 10 17 3 129 6 250 8 213 4 429 14 470 22 11 3
45 7 75 9 30 3 66 7 80 10 27 5 80 14 120 20 14 2 38 7 55 10 297 60 576 149
823 261 39 18 72 30 72 26 0 -4 4 -2 8 3 4 6 52 32 107 60 55 27 140 73 189
102 49 29 90 53 92 53 1 0 42 27 91 59 89 61 129 78 102 44z m343 -292 c10 6
19 6 23 0 3 -7 15 -7 30 -1 15 6 27 6 30 0 3 -6 15 -6 30 0 15 6 27 6 30 -1 4
-5 11 -7 16 -4 13 8 89 9 96 1 4 -4 -13 -47 -37 -96 l-44 -90 -49 0 c-26 0
-61 -7 -77 -15 -17 -9 -30 -13 -30 -10 0 3 0 7 0 10 0 3 -20 37 -44 77 -55 90
-65 125 -39 130 10 3 25 1 33 -3 9 -4 23 -3 32 2z m108 -306 l30 -16 0 -109
c0 -61 -4 -110 -8 -110 -5 0 -17 7 -28 15 -24 18 -53 19 -73 1 -15 -13 -16 -4
-16 96 l0 112 30 12 c38 16 31 17 65 -1z m18 -362 c36 -22 13 -38 -55 -37 -65
0 -77 17 -33 46 27 17 50 15 88 -9z m44 -176 c3 -10 2 -182 -1 -205 -1 -6 -97
-9 -121 -3 -5 1 -5 188 -1 212 2 12 119 7 123 -4z m3 -370 c2 -31 -1 -32 -47
-12 -30 12 -38 12 -55 0 -25 -17 -32 -12 -26 19 5 22 9 24 66 22 59 -2 61 -4
62 -29z m-33 -277 l-3 -111 -34 19 c-29 18 -36 19 -60 6 -15 -8 -28 -14 -29
-14 -1 0 -1 48 -1 107 0 68 4 108 11 110 6 2 20 10 30 17 16 12 24 12 54 -4
l35 -18 -3 -112z m-33 -221 c20 -7 31 -18 31 -30 0 -19 -19 -24 -65 -19 -11 1
-28 3 -38 4 -9 0 -17 4 -17 9 0 4 0 11 0 15 0 8 36 30 51 31 3 1 20 -4 38 -10z
m58 -182 c11 -7 11 -53 0 -50 -76 24 -87 25 -101 14 -15 -13 -23 -6 -22 19 1
21 95 34 123 17z m-57 -172 c29 -15 29 -15 32 -125 2 -61 2 -110 2 -110 -1 0
-19 7 -39 16 -30 12 -44 13 -62 5 -13 -6 -25 -11 -26 -11 -5 0 -1 209 3 212
49 32 53 32 90 13z m3 -352 c15 -7 27 -21 27 -31 0 -14 -10 -17 -60 -17 -33 0
-61 4 -62 10 -4 27 -4 41 -1 47 6 11 67 6 96 -9z m60 -185 c-2 -5 -3 -20 -3
-35 0 -16 -4 -23 -8 -17 -4 6 -22 16 -41 22 -28 10 -37 9 -51 -3 -16 -14 -18
-14 -22 2 -10 37 1 43 65 41 34 -2 61 -6 60 -10z m-65 -134 c18 -8 32 -23 32
-32 0 -14 -10 -17 -57 -16 -74 2 -73 2 -73 14 0 7 56 50 66 50 0 0 15 -7 32
-16z m63 -181 c7 -50 2 -206 -6 -212 -8 -6 -91 -8 -115 -2 -4 1 -5 188 -1 214
0 4 28 7 61 7 33 0 60 -3 61 -7z m3 -371 c-3 -32 -9 -36 -34 -22 -33 18 -68
19 -74 3 -9 -22 -26 -5 -22 20 3 12 5 22 5 22 1 0 30 0 64 0 61 1 64 0 61 -23z
m-34 -184 c0 -15 -9 -17 -60 -16 -81 3 -90 24 -20 54 30 13 80 -11 80 -38z
m31 -150 c2 -10 2 -35 0 -49 -1 -7 -10 -5 -26 5 -27 18 -71 21 -80 6 -10 -16
-23 -11 -20 8 2 9 4 22 4 27 1 12 120 14 122 3z m-53 -174 c20 -13 22 -22 22
-110 l0 -95 -62 3 -63 3 -1 100 c0 55 4 105 8 112 11 14 65 7 96 -13z m22
-345 c0 -17 -23 -32 -34 -22 -3 4 -26 6 -50 6 -52 -1 -56 18 -11 45 26 16 32
16 62 3 18 -9 33 -23 33 -32z m28 -153 c11 -11 -13 -40 -41 -50 -19 -7 -32 -5
-51 8 -29 19 -34 43 -9 48 26 5 94 1 101 -6z m-127 -223 c5 -34 4 -113 -2
-113 -8 0 -28 101 -22 113 2 4 8 7 14 7 5 0 10 -3 10 -7z m133 -28 c-1 -50
-13 -115 -24 -133 -7 -12 -9 9 -8 76 2 78 4 92 17 90 11 -2 16 -14 15 -33z"/>
<path d="M10575 8246 c-32 -23 16 -106 61 -106 8 0 14 -3 14 -7 0 -5 14 -16
30 -25 47 -27 72 -75 67 -129 -7 -81 -44 -140 -146 -232 -36 -32 -47 -53 -53
-96 -2 -23 7 -32 43 -41 37 -10 43 -9 77 16 79 60 178 177 201 237 43 112 -3
230 -123 318 -99 73 -139 88 -171 65z"/>
<path d="M10424 7595 c-22 -22 -25 -32 -21 -63 10 -57 25 -65 74 -41 48 24 62
58 38 95 -8 13 -19 24 -24 24 -5 0 -16 3 -25 6 -9 3 -26 -5 -42 -21z"/>
<path d="M10534 6488 c-42 -19 -48 -76 -13 -105 8 -6 30 -13 49 -16 45 -7 111
-31 147 -54 99 -64 125 -127 84 -203 -11 -19 -24 -44 -29 -55 -6 -11 -33 -46
-61 -78 -28 -32 -51 -60 -51 -63 0 -20 38 -84 50 -84 17 0 89 72 134 133 72
99 97 215 62 289 -32 67 -119 137 -231 188 -27 12 -66 30 -85 40 -26 13 -41
15 -56 8z"/>
<path d="M10555 5838 c-32 -25 -34 -71 -3 -92 42 -30 94 -12 101 35 9 57 -53
93 -98 57z"/>
</g>
</svg>
