<svg xmlns="http://www.w3.org/2000/svg" width="205.001" height="25.001"><path d="M133.675 14.358h41.596v1.507h-41.596zM12.7 24.647h2.795l6.262-18.943 6.969 18.943h2.582l8.066-23.591h2.83V0H34.14v1.053h3.679l-6.579 19.58L23.811 0h-4.139l1.309 3.556-5.625 17.148-7.57-19.647h3.184V.001H0v1.052h3.573zm29.539 0h6.615v-1.056h-2.861l3.255-7.817h10.79l3.5 7.817h-3.573v1.056h10.613v-1.056h-2.975L57.167 0h-4.422l.99 1.9-9.339 21.69h-2.158zM49.88 14.26l4.6-10.915 4.882 10.915zm25.754 10.387h7.641v-1.056h-3.042V1.514h.142l17.369 23.133h4.74L83.984 0h-8.349v1.053h2.936v22.535h-2.936zm31.308 0h3.326l.106-23.591h2.759V0h-7.465v1.053h2.936l-.035 19.4L93.181-.004h-4.953z"/><path d="M118.545 24.647h6.615v-1.056h-2.865l3.255-7.817h10.79l3.5 7.817h-3.573v1.056h10.609v-1.056h-2.971L133.476 0h-4.422l.99 1.9-9.339 21.69h-2.158zm7.641-10.387l4.6-10.915 4.882 10.915zm37.958 10.387h6.615v-1.056h-2.865l3.255-7.817h10.786l3.5 7.817h-3.573v1.056h10.613v-1.056h-2.972L179.067 0h-4.422l.99 1.9-9.339 21.69h-2.158zm7.641-10.387l4.6-10.915 4.882 10.915zm30.735 6.643a1.879 1.879 0 11.61 3.707 1.879 1.879 0 11-.61-3.707z"/></svg>