<svg xmlns="http://www.w3.org/2000/svg" width="205" height="25"><path d="M12.604 24.315h2.773l6.214-18.687 6.916 18.688h2.563l8-23.273h2.809V.005h-8v1.042h3.651L31 20.36 23.628.005H19.52l1.3 3.508-5.582 16.916L7.725 1.047h3.16V.005H0v1.042h3.546zm29.315 0h6.565v-1.042H45.64l3.23-7.711h10.708l3.475 7.711h-3.546v1.042H70.04v-1.042h-2.949L56.734.005h-4.389l.983 1.876-9.268 21.4h-2.141zm7.583-10.247L54.066 3.3l4.845 10.768zm25.559 10.247h7.583v-1.042h-3.019V1.494h.141l17.238 22.821h4.7L83.346.005H75.06v1.042h2.914v22.23H75.06zm31.07 0h3.3l.105-23.273h2.738V.005h-7.408v1.042h2.914l-.035 19.139L92.474.005h-4.916zm11.516 0h6.565v-1.042h-2.844l3.23-7.711h10.708l3.475 7.711h-3.546v1.042h10.532v-1.042h-2.949L132.459.005h-4.389l.983 1.876-9.268 21.4h-2.142zm7.583-10.247L129.794 3.3l4.845 10.768zm37.67 10.247h6.565v-1.042h-2.844l3.23-7.711h10.708l3.476 7.711h-3.546v1.042h10.532v-1.042h-2.949L177.716.005h-4.389l.983 1.876-9.269 21.4H162.9zm7.583-10.247L175.047 3.3l4.845 10.768z"/><path fill-rule="evenodd" d="M202.204 19.495a2.753 2.753 0 11-2.8 2.753 2.775 2.775 0 012.8-2.753z"/></svg>